<svg version="1.1" viewBox="0.0 0.0 745.0 461.0" fill="none" stroke="none" stroke-linecap="square" stroke-miterlimit="10" width="745" height="461" xmlns:xlink="http://www.w3.org/1999/xlink" xmlns="http://www.w3.org/2000/svg"><path fill="#ffffff" d="M0 0L745.0 0L745.0 461.0L0 461.0L0 0Z" fill-rule="nonzero"/><path stroke="#333333" stroke-width="1.0" stroke-linecap="butt" d="M91.5 417.5L721.5 417.5" fill-rule="nonzero"/><path stroke="#cccccc" stroke-width="1.0" stroke-linecap="butt" d="M91.5 328.5L721.5 328.5" fill-rule="nonzero"/><path stroke="#cccccc" stroke-width="1.0" stroke-linecap="butt" d="M91.5 238.5L721.5 238.5" fill-rule="nonzero"/><path stroke="#cccccc" stroke-width="1.0" stroke-linecap="butt" d="M91.5 149.5L721.5 149.5" fill-rule="nonzero"/><path stroke="#cccccc" stroke-width="1.0" stroke-linecap="butt" d="M91.5 59.5L721.5 59.5" fill-rule="nonzero"/><clipPath id="id_0"><path d="M91.05 59.416668L721.95 59.416668L721.95 417.95L91.05 417.95L91.05 59.416668Z" clip-rule="nonzero"/></clipPath><path stroke="#000000" stroke-width="2.0" stroke-linecap="butt" stroke-opacity="0.0" clip-path="url(#id_0)" d="M148.0 418.0L122.0 418.0L122.0 406.0C122.0 404.89542 122.89543 404.0 124.0 404.0L146.0 404.0C147.10457 404.0 148.0 404.89542 148.0 406.0Z" fill-rule="nonzero"/><path fill="#4285f4" clip-path="url(#id_0)" d="M148.0 418.0L122.0 418.0L122.0 406.0C122.0 404.89542 122.89543 404.0 124.0 404.0L146.0 404.0C147.10457 404.0 148.0 404.89542 148.0 406.0Z" fill-rule="nonzero"/><path stroke="#000000" stroke-width="2.0" stroke-linecap="butt" stroke-opacity="0.0" clip-path="url(#id_0)" d="M234.0 418.0L208.0 418.0L208.0 405.0C208.0 403.89542 208.89543 403.0 210.0 403.0L232.0 403.0C233.10457 403.0 234.0 403.89542 234.0 405.0Z" fill-rule="nonzero"/><path fill="#4285f4" clip-path="url(#id_0)" d="M234.0 418.0L208.0 418.0L208.0 405.0C208.0 403.89542 208.89543 403.0 210.0 403.0L232.0 403.0C233.10457 403.0 234.0 403.89542 234.0 405.0Z" fill-rule="nonzero"/><path stroke="#000000" stroke-width="2.0" stroke-linecap="butt" stroke-opacity="0.0" clip-path="url(#id_0)" d="M320.0 418.0L294.0 418.0L294.0 402.0C294.0 400.89542 294.89542 400.0 296.0 400.0L318.0 400.0C319.10458 400.0 320.0 400.89542 320.0 402.0Z" fill-rule="nonzero"/><path fill="#4285f4" clip-path="url(#id_0)" d="M320.0 418.0L294.0 418.0L294.0 402.0C294.0 400.89542 294.89542 400.0 296.0 400.0L318.0 400.0C319.10458 400.0 320.0 400.89542 320.0 402.0Z" fill-rule="nonzero"/><path stroke="#000000" stroke-width="2.0" stroke-linecap="butt" stroke-opacity="0.0" clip-path="url(#id_0)" d="M406.0 418.0L380.0 418.0L380.0 397.0C380.0 395.89542 380.89542 395.0 382.0 395.0L404.0 395.0C405.10458 395.0 406.0 395.89542 406.0 397.0Z" fill-rule="nonzero"/><path fill="#4285f4" clip-path="url(#id_0)" d="M406.0 418.0L380.0 418.0L380.0 397.0C380.0 395.89542 380.89542 395.0 382.0 395.0L404.0 395.0C405.10458 395.0 406.0 395.89542 406.0 397.0Z" fill-rule="nonzero"/><path stroke="#000000" stroke-width="2.0" stroke-linecap="butt" stroke-opacity="0.0" clip-path="url(#id_0)" d="M491.0 418.0L465.0 418.0L465.0 384.0C465.0 382.89542 465.89542 382.0 467.0 382.0L489.0 382.0C490.10458 382.0 491.0 382.89542 491.0 384.0Z" fill-rule="nonzero"/><path fill="#4285f4" clip-path="url(#id_0)" d="M491.0 418.0L465.0 418.0L465.0 384.0C465.0 382.89542 465.89542 382.0 467.0 382.0L489.0 382.0C490.10458 382.0 491.0 382.89542 491.0 384.0Z" fill-rule="nonzero"/><path stroke="#000000" stroke-width="2.0" stroke-linecap="butt" stroke-opacity="0.0" clip-path="url(#id_0)" d="M577.0 418.0L551.0 418.0L551.0 362.0C551.0 360.89542 551.89545 360.0 553.0 360.0L575.0 360.0C576.10455 360.0 577.0 360.89542 577.0 362.0Z" fill-rule="nonzero"/><path fill="#4285f4" clip-path="url(#id_0)" d="M577.0 418.0L551.0 418.0L551.0 362.0C551.0 360.89542 551.89545 360.0 553.0 360.0L575.0 360.0C576.10455 360.0 577.0 360.89542 577.0 362.0Z" fill-rule="nonzero"/><path stroke="#000000" stroke-width="2.0" stroke-linecap="butt" stroke-opacity="0.0" clip-path="url(#id_0)" d="M663.0 418.0L637.0 418.0L637.0 325.0C637.0 323.89542 637.89545 323.0 639.0 323.0L661.0 323.0C662.10455 323.0 663.0 323.89542 663.0 325.0Z" fill-rule="nonzero"/><path fill="#4285f4" clip-path="url(#id_0)" d="M663.0 418.0L637.0 418.0L637.0 325.0C637.0 323.89542 637.89545 323.0 639.0 323.0L661.0 323.0C662.10455 323.0 663.0 323.89542 663.0 325.0Z" fill-rule="nonzero"/><path stroke="#000000" stroke-width="2.0" stroke-linecap="butt" stroke-opacity="0.0" clip-path="url(#id_0)" d="M176.0 418.0L150.0 418.0L150.0 395.0C150.0 393.89542 150.89543 393.0 152.0 393.0L174.0 393.0C175.10457 393.0 176.0 393.89542 176.0 395.0Z" fill-rule="nonzero"/><path fill="#ea4335" clip-path="url(#id_0)" d="M176.0 418.0L150.0 418.0L150.0 395.0C150.0 393.89542 150.89543 393.0 152.0 393.0L174.0 393.0C175.10457 393.0 176.0 393.89542 176.0 395.0Z" fill-rule="nonzero"/><path stroke="#000000" stroke-width="2.0" stroke-linecap="butt" stroke-opacity="0.0" clip-path="url(#id_0)" d="M262.0 418.0L236.0 418.0L236.0 391.0C236.0 389.89542 236.89543 389.0 238.0 389.0L260.0 389.0C261.10458 389.0 262.0 389.89542 262.0 391.0Z" fill-rule="nonzero"/><path fill="#ea4335" clip-path="url(#id_0)" d="M262.0 418.0L236.0 418.0L236.0 391.0C236.0 389.89542 236.89543 389.0 238.0 389.0L260.0 389.0C261.10458 389.0 262.0 389.89542 262.0 391.0Z" fill-rule="nonzero"/><path stroke="#000000" stroke-width="2.0" stroke-linecap="butt" stroke-opacity="0.0" clip-path="url(#id_0)" d="M348.0 418.0L322.0 418.0L322.0 382.0C322.0 380.89542 322.89542 380.0 324.0 380.0L346.0 380.0C347.10458 380.0 348.0 380.89542 348.0 382.0Z" fill-rule="nonzero"/><path fill="#ea4335" clip-path="url(#id_0)" d="M348.0 418.0L322.0 418.0L322.0 382.0C322.0 380.89542 322.89542 380.0 324.0 380.0L346.0 380.0C347.10458 380.0 348.0 380.89542 348.0 382.0Z" fill-rule="nonzero"/><path stroke="#000000" stroke-width="2.0" stroke-linecap="butt" stroke-opacity="0.0" clip-path="url(#id_0)" d="M434.0 418.0L408.0 418.0L408.0 364.0C408.0 362.89542 408.89542 362.0 410.0 362.0L432.0 362.0C433.10458 362.0 434.0 362.89542 434.0 364.0Z" fill-rule="nonzero"/><path fill="#ea4335" clip-path="url(#id_0)" d="M434.0 418.0L408.0 418.0L408.0 364.0C408.0 362.89542 408.89542 362.0 410.0 362.0L432.0 362.0C433.10458 362.0 434.0 362.89542 434.0 364.0Z" fill-rule="nonzero"/><path stroke="#000000" stroke-width="2.0" stroke-linecap="butt" stroke-opacity="0.0" clip-path="url(#id_0)" d="M519.0 418.0L493.0 418.0L493.0 328.0C493.0 326.89542 493.89542 326.0 495.0 326.0L517.0 326.0C518.10455 326.0 519.0 326.89542 519.0 328.0Z" fill-rule="nonzero"/><path fill="#ea4335" clip-path="url(#id_0)" d="M519.0 418.0L493.0 418.0L493.0 328.0C493.0 326.89542 493.89542 326.0 495.0 326.0L517.0 326.0C518.10455 326.0 519.0 326.89542 519.0 328.0Z" fill-rule="nonzero"/><path stroke="#000000" stroke-width="2.0" stroke-linecap="butt" stroke-opacity="0.0" clip-path="url(#id_0)" d="M605.0 418.0L579.0 418.0L579.0 260.0C579.0 258.89542 579.89545 258.0 581.0 258.0L603.0 258.0C604.10455 258.0 605.0 258.89542 605.0 260.0Z" fill-rule="nonzero"/><path fill="#ea4335" clip-path="url(#id_0)" d="M605.0 418.0L579.0 418.0L579.0 260.0C579.0 258.89542 579.89545 258.0 581.0 258.0L603.0 258.0C604.10455 258.0 605.0 258.89542 605.0 260.0Z" fill-rule="nonzero"/><path stroke="#000000" stroke-width="2.0" stroke-linecap="butt" stroke-opacity="0.0" clip-path="url(#id_0)" d="M691.0 418.0L665.0 418.0L665.0 137.0C665.0 135.89543 665.89545 135.0 667.0 135.0L689.0 135.0C690.10455 135.0 691.0 135.89543 691.0 137.0Z" fill-rule="nonzero"/><path fill="#ea4335" clip-path="url(#id_0)" d="M691.0 418.0L665.0 418.0L665.0 137.0C665.0 135.89543 665.89545 135.0 667.0 135.0L689.0 135.0C690.10455 135.0 691.0 135.89543 691.0 137.0Z" fill-rule="nonzero"/><path fill="#000000" d="M61.55 417.71564Q61.55 416.1844 61.8625 415.2625Q62.175 414.325 62.784374 413.825Q63.409374 413.325 64.34688 413.325Q65.03438 413.325 65.55 413.60626Q66.08125 413.8875 66.425 414.41876Q66.76875 414.9344 66.95625 415.6844Q67.14375 416.4344 67.14375 417.71564Q67.14375 419.23126 66.83125 420.15314Q66.53438 421.075 65.90938 421.59064Q65.3 422.09064 64.34688 422.09064Q63.1125 422.09064 62.39375 421.2Q61.55 420.1375 61.55 417.71564ZM62.628124 417.71564Q62.628124 419.825 63.128124 420.52814Q63.628124 421.23126 64.34688 421.23126Q65.08125 421.23126 65.56563 420.52814Q66.06563 419.825 66.06563 417.71564Q66.06563 415.59064 65.56563 414.90314Q65.08125 414.2 64.33125 414.2Q63.6125 414.2 63.175 414.8094Q62.628124 415.59064 62.628124 417.71564ZM71.84688 421.95L71.84688 415.73126L72.78438 415.73126L72.78438 416.60626Q73.47188 415.59064 74.76875 415.59064Q75.33125 415.59064 75.8 415.79376Q76.28438 415.9969 76.51875 416.325Q76.75313 416.65314 76.84688 417.09064Q76.89375 417.3875 76.89375 418.1219L76.89375 421.95L75.84688 421.95L75.84688 418.16876Q75.84688 417.5125 75.72188 417.2Q75.59688 416.8875 75.28438 416.7Q74.97188 416.4969 74.55 416.4969Q73.87813 416.4969 73.37813 416.9344Q72.89375 417.35626 72.89375 418.54376L72.89375 421.95L71.84688 421.95ZM78.425 420.09064L79.45625 419.9344Q79.55 420.5594 79.94063 420.8875Q80.34688 421.21564 81.08125 421.21564Q81.8 421.21564 82.14375 420.9344Q82.50313 420.6375 82.50313 420.23126Q82.50313 419.8719 82.19063 419.66876Q81.97188 419.52814 81.1125 419.3094Q79.95625 419.0125 79.50313 418.8094Q79.06563 418.59064 78.83125 418.21564Q78.59688 417.84064 78.59688 417.3719Q78.59688 416.96564 78.78438 416.60626Q78.97188 416.2469 79.3 416.0125Q79.55 415.84064 79.97188 415.71564Q80.39375 415.59064 80.89375 415.59064Q81.6125 415.59064 82.15938 415.8094Q82.72188 416.0125 82.9875 416.3719Q83.25313 416.73126 83.34688 417.325L82.31563 417.46564Q82.25313 416.9969 81.90938 416.73126Q81.58125 416.45 80.95625 416.45Q80.2375 416.45 79.925 416.7Q79.6125 416.9344 79.6125 417.2625Q79.6125 417.46564 79.7375 417.6219Q79.87813 417.79376 80.14375 417.90314Q80.3 417.96564 81.08125 418.16876Q82.20625 418.48126 82.64375 418.66876Q83.08125 418.85626 83.33125 419.21564Q83.58125 419.575 83.58125 420.1219Q83.58125 420.65314 83.26875 421.1219Q82.97188 421.575 82.39375 421.84064Q81.81563 422.09064 81.08125 422.09064Q79.8625 422.09064 79.22188 421.59064Q78.59688 421.075 78.425 420.09064Z" fill-rule="nonzero"/><path fill="#000000" d="M30.55 330.06668L31.659374 329.97293Q31.784374 330.78543 32.221874 331.19168Q32.675 331.59793 33.315624 331.59793Q34.065624 331.59793 34.596874 331.0198Q35.128124 330.44168 35.128124 329.50418Q35.128124 328.59793 34.6125 328.0823Q34.1125 327.55106 33.284374 327.55106Q32.784374 327.55106 32.3625 327.78543Q31.95625 328.0198 31.721874 328.37918L30.7375 328.25418L31.565624 323.84793L35.846874 323.84793L35.846874 324.84793L32.409374 324.84793L31.95625 327.16043Q32.721874 326.61356 33.565624 326.61356Q34.690624 326.61356 35.45625 327.3948Q36.2375 328.17606 36.2375 329.41043Q36.2375 330.56668 35.565624 331.42606Q34.7375 332.4573 33.315624 332.4573Q32.14375 332.4573 31.39375 331.80106Q30.659374 331.1448 30.55 330.06668ZM37.55 328.0823Q37.55 326.55106 37.8625 325.62918Q38.175 324.69168 38.784374 324.19168Q39.409374 323.69168 40.346874 323.69168Q41.034374 323.69168 41.55 323.97293Q42.08125 324.25418 42.425 324.78543Q42.76875 325.30106 42.95625 326.05106Q43.14375 326.80106 43.14375 328.0823Q43.14375 329.59793 42.83125 330.5198Q42.534374 331.44168 41.909374 331.9573Q41.3 332.4573 40.346874 332.4573Q39.1125 332.4573 38.39375 331.56668Q37.55 330.50418 37.55 328.0823ZM38.628124 328.0823Q38.628124 330.19168 39.128124 330.8948Q39.628124 331.59793 40.346874 331.59793Q41.08125 331.59793 41.565624 330.8948Q42.065624 330.19168 42.065624 328.0823Q42.065624 325.9573 41.565624 325.2698Q41.08125 324.56668 40.33125 324.56668Q39.6125 324.56668 39.175 325.17606Q38.628124 325.9573 38.628124 328.0823ZM45.1125 332.31668L45.1125 331.11356L46.315624 331.11356L46.315624 332.31668Q46.315624 332.97293 46.08125 333.37918Q45.846874 333.80106 45.346874 334.0198L45.05 333.56668Q45.378124 333.42606 45.534374 333.12918Q45.690624 332.84793 45.721874 332.31668L45.1125 332.31668ZM47.55 328.0823Q47.55 326.55106 47.8625 325.62918Q48.175 324.69168 48.784374 324.19168Q49.409374 323.69168 50.346874 323.69168Q51.034374 323.69168 51.55 323.97293Q52.08125 324.25418 52.425 324.78543Q52.76875 325.30106 52.95625 326.05106Q53.14375 326.80106 53.14375 328.0823Q53.14375 329.59793 52.83125 330.5198Q52.534374 331.44168 51.909374 331.9573Q51.3 332.4573 50.346874 332.4573Q49.1125 332.4573 48.39375 331.56668Q47.55 330.50418 47.55 328.0823ZM48.628124 328.0823Q48.628124 330.19168 49.128124 330.8948Q49.628124 331.59793 50.346874 331.59793Q51.08125 331.59793 51.565624 330.8948Q52.065624 330.19168 52.065624 328.0823Q52.065624 325.9573 51.565624 325.2698Q51.08125 324.56668 50.33125 324.56668Q49.6125 324.56668 49.175 325.17606Q48.628124 325.9573 48.628124 328.0823ZM54.55 328.0823Q54.55 326.55106 54.8625 325.62918Q55.175 324.69168 55.784374 324.19168Q56.409374 323.69168 57.346874 323.69168Q58.034374 323.69168 58.55 323.97293Q59.08125 324.25418 59.425 324.78543Q59.76875 325.30106 59.95625 326.05106Q60.14375 326.80106 60.14375 328.0823Q60.14375 329.59793 59.83125 330.5198Q59.534374 331.44168 58.909374 331.9573Q58.3 332.4573 57.346874 332.4573Q56.1125 332.4573 55.39375 331.56668Q54.55 330.50418 54.55 328.0823ZM55.628124 328.0823Q55.628124 330.19168 56.128124 330.8948Q56.628124 331.59793 57.346874 331.59793Q58.08125 331.59793 58.565624 330.8948Q59.065624 330.19168 59.065624 328.0823Q59.065624 325.9573 58.565624 325.2698Q58.08125 324.56668 57.33125 324.56668Q56.6125 324.56668 56.175 325.17606Q55.628124 325.9573 55.628124 328.0823ZM61.55 328.0823Q61.55 326.55106 61.8625 325.62918Q62.175 324.69168 62.784374 324.19168Q63.409374 323.69168 64.34688 323.69168Q65.03438 323.69168 65.55 323.97293Q66.08125 324.25418 66.425 324.78543Q66.76875 325.30106 66.95625 326.05106Q67.14375 326.80106 67.14375 328.0823Q67.14375 329.59793 66.83125 330.5198Q66.53438 331.44168 65.90938 331.9573Q65.3 332.4573 64.34688 332.4573Q63.1125 332.4573 62.39375 331.56668Q61.55 330.50418 61.55 328.0823ZM62.628124 328.0823Q62.628124 330.19168 63.128124 330.8948Q63.628124 331.59793 64.34688 331.59793Q65.08125 331.59793 65.56563 330.8948Q66.06563 330.19168 66.06563 328.0823Q66.06563 325.9573 65.56563 325.2698Q65.08125 324.56668 64.33125 324.56668Q63.6125 324.56668 63.175 325.17606Q62.628124 325.9573 62.628124 328.0823ZM71.84688 332.31668L71.84688 326.09793L72.78438 326.09793L72.78438 326.97293Q73.47188 325.9573 74.76875 325.9573Q75.33125 325.9573 75.8 326.16043Q76.28438 326.36356 76.51875 326.69168Q76.75313 327.0198 76.84688 327.4573Q76.89375 327.75418 76.89375 328.48856L76.89375 332.31668L75.84688 332.31668L75.84688 328.53543Q75.84688 327.87918 75.72188 327.56668Q75.59688 327.25418 75.28438 327.06668Q74.97188 326.86356 74.55 326.86356Q73.87813 326.86356 73.37813 327.30106Q72.89375 327.72293 72.89375 328.91043L72.89375 332.31668L71.84688 332.31668ZM78.425 330.4573L79.45625 330.30106Q79.55 330.92606 79.94063 331.25418Q80.34688 331.5823 81.08125 331.5823Q81.8 331.5823 82.14375 331.30106Q82.50313 331.00418 82.50313 330.59793Q82.50313 330.23856 82.19063 330.03543Q81.97188 329.8948 81.1125 329.67606Q79.95625 329.37918 79.50313 329.17606Q79.06563 328.9573 78.83125 328.5823Q78.59688 328.2073 78.59688 327.73856Q78.59688 327.3323 78.78438 326.97293Q78.97188 326.61356 79.3 326.37918Q79.55 326.2073 79.97188 326.0823Q80.39375 325.9573 80.89375 325.9573Q81.6125 325.9573 82.15938 326.17606Q82.72188 326.37918 82.9875 326.73856Q83.25313 327.09793 83.34688 327.69168L82.31563 327.8323Q82.25313 327.36356 81.90938 327.09793Q81.58125 326.81668 80.95625 326.81668Q80.2375 326.81668 79.925 327.06668Q79.6125 327.30106 79.6125 327.62918Q79.6125 327.8323 79.7375 327.98856Q79.87813 328.16043 80.14375 328.2698Q80.3 328.3323 81.08125 328.53543Q82.20625 328.84793 82.64375 329.03543Q83.08125 329.22293 83.33125 329.5823Q83.58125 329.94168 83.58125 330.48856Q83.58125 331.0198 83.26875 331.48856Q82.97188 331.94168 82.39375 332.2073Q81.81563 332.4573 81.08125 332.4573Q79.8625 332.4573 79.22188 331.9573Q78.59688 331.44168 78.425 330.4573Z" fill-rule="nonzero"/><path fill="#000000" d="M27.51875 242.68333L26.471874 242.68333L26.471874 235.96458Q26.08125 236.32396 25.45625 236.69896Q24.846874 237.05833 24.3625 237.23021L24.3625 236.21458Q25.2375 235.79271 25.89375 235.21458Q26.565624 234.62083 26.846874 234.05833L27.51875 234.05833L27.51875 242.68333ZM30.55 238.44896Q30.55 236.91771 30.8625 235.99583Q31.175 235.05833 31.784374 234.55833Q32.409374 234.05833 33.346874 234.05833Q34.034374 234.05833 34.55 234.33958Q35.08125 234.62083 35.425 235.15208Q35.76875 235.66771 35.95625 236.41771Q36.14375 237.16771 36.14375 238.44896Q36.14375 239.96458 35.83125 240.88646Q35.534374 241.80833 34.909374 242.32396Q34.3 242.82396 33.346874 242.82396Q32.1125 242.82396 31.39375 241.93333Q30.55 240.87083 30.55 238.44896ZM31.628124 238.44896Q31.628124 240.55833 32.128124 241.26146Q32.628124 241.96458 33.346874 241.96458Q34.08125 241.96458 34.565624 241.26146Q35.065624 240.55833 35.065624 238.44896Q35.065624 236.32396 34.565624 235.63646Q34.08125 234.93333 33.33125 234.93333Q32.6125 234.93333 32.175 235.54271Q31.628124 236.32396 31.628124 238.44896ZM37.55 238.44896Q37.55 236.91771 37.8625 235.99583Q38.175 235.05833 38.784374 234.55833Q39.409374 234.05833 40.346874 234.05833Q41.034374 234.05833 41.55 234.33958Q42.08125 234.62083 42.425 235.15208Q42.76875 235.66771 42.95625 236.41771Q43.14375 237.16771 43.14375 238.44896Q43.14375 239.96458 42.83125 240.88646Q42.534374 241.80833 41.909374 242.32396Q41.3 242.82396 40.346874 242.82396Q39.1125 242.82396 38.39375 241.93333Q37.55 240.87083 37.55 238.44896ZM38.628124 238.44896Q38.628124 240.55833 39.128124 241.26146Q39.628124 241.96458 40.346874 241.96458Q41.08125 241.96458 41.565624 241.26146Q42.065624 240.55833 42.065624 238.44896Q42.065624 236.32396 41.565624 235.63646Q41.08125 234.93333 40.33125 234.93333Q39.6125 234.93333 39.175 235.54271Q38.628124 236.32396 38.628124 238.44896ZM45.1125 242.68333L45.1125 241.48021L46.315624 241.48021L46.315624 242.68333Q46.315624 243.33958 46.08125 243.74583Q45.846874 244.16771 45.346874 244.38646L45.05 243.93333Q45.378124 243.79271 45.534374 243.49583Q45.690624 243.21458 45.721874 242.68333L45.1125 242.68333ZM47.55 238.44896Q47.55 236.91771 47.8625 235.99583Q48.175 235.05833 48.784374 234.55833Q49.409374 234.05833 50.346874 234.05833Q51.034374 234.05833 51.55 234.33958Q52.08125 234.62083 52.425 235.15208Q52.76875 235.66771 52.95625 236.41771Q53.14375 237.16771 53.14375 238.44896Q53.14375 239.96458 52.83125 240.88646Q52.534374 241.80833 51.909374 242.32396Q51.3 242.82396 50.346874 242.82396Q49.1125 242.82396 48.39375 241.93333Q47.55 240.87083 47.55 238.44896ZM48.628124 238.44896Q48.628124 240.55833 49.128124 241.26146Q49.628124 241.96458 50.346874 241.96458Q51.08125 241.96458 51.565624 241.26146Q52.065624 240.55833 52.065624 238.44896Q52.065624 236.32396 51.565624 235.63646Q51.08125 234.93333 50.33125 234.93333Q49.6125 234.93333 49.175 235.54271Q48.628124 236.32396 48.628124 238.44896ZM54.55 238.44896Q54.55 236.91771 54.8625 235.99583Q55.175 235.05833 55.784374 234.55833Q56.409374 234.05833 57.346874 234.05833Q58.034374 234.05833 58.55 234.33958Q59.08125 234.62083 59.425 235.15208Q59.76875 235.66771 59.95625 236.41771Q60.14375 237.16771 60.14375 238.44896Q60.14375 239.96458 59.83125 240.88646Q59.534374 241.80833 58.909374 242.32396Q58.3 242.82396 57.346874 242.82396Q56.1125 242.82396 55.39375 241.93333Q54.55 240.87083 54.55 238.44896ZM55.628124 238.44896Q55.628124 240.55833 56.128124 241.26146Q56.628124 241.96458 57.346874 241.96458Q58.08125 241.96458 58.565624 241.26146Q59.065624 240.55833 59.065624 238.44896Q59.065624 236.32396 58.565624 235.63646Q58.08125 234.93333 57.33125 234.93333Q56.6125 234.93333 56.175 235.54271Q55.628124 236.32396 55.628124 238.44896ZM61.55 238.44896Q61.55 236.91771 61.8625 235.99583Q62.175 235.05833 62.784374 234.55833Q63.409374 234.05833 64.34688 234.05833Q65.03438 234.05833 65.55 234.33958Q66.08125 234.62083 66.425 235.15208Q66.76875 235.66771 66.95625 236.41771Q67.14375 237.16771 67.14375 238.44896Q67.14375 239.96458 66.83125 240.88646Q66.53438 241.80833 65.90938 242.32396Q65.3 242.82396 64.34688 242.82396Q63.1125 242.82396 62.39375 241.93333Q61.55 240.87083 61.55 238.44896ZM62.628124 238.44896Q62.628124 240.55833 63.128124 241.26146Q63.628124 241.96458 64.34688 241.96458Q65.08125 241.96458 65.56563 241.26146Q66.06563 240.55833 66.06563 238.44896Q66.06563 236.32396 65.56563 235.63646Q65.08125 234.93333 64.33125 234.93333Q63.6125 234.93333 63.175 235.54271Q62.628124 236.32396 62.628124 238.44896ZM71.84688 242.68333L71.84688 236.46458L72.78438 236.46458L72.78438 237.33958Q73.47188 236.32396 74.76875 236.32396Q75.33125 236.32396 75.8 236.52708Q76.28438 236.73021 76.51875 237.05833Q76.75313 237.38646 76.84688 237.82396Q76.89375 238.12083 76.89375 238.85521L76.89375 242.68333L75.84688 242.68333L75.84688 238.90208Q75.84688 238.24583 75.72188 237.93333Q75.59688 237.62083 75.28438 237.43333Q74.97188 237.23021 74.55 237.23021Q73.87813 237.23021 73.37813 237.66771Q72.89375 238.08958 72.89375 239.27708L72.89375 242.68333L71.84688 242.68333ZM78.425 240.82396L79.45625 240.66771Q79.55 241.29271 79.94063 241.62083Q80.34688 241.94896 81.08125 241.94896Q81.8 241.94896 82.14375 241.66771Q82.50313 241.37083 82.50313 240.96458Q82.50313 240.60521 82.19063 240.40208Q81.97188 240.26146 81.1125 240.04271Q79.95625 239.74583 79.50313 239.54271Q79.06563 239.32396 78.83125 238.94896Q78.59688 238.57396 78.59688 238.10521Q78.59688 237.69896 78.78438 237.33958Q78.97188 236.98021 79.3 236.74583Q79.55 236.57396 79.97188 236.44896Q80.39375 236.32396 80.89375 236.32396Q81.6125 236.32396 82.15938 236.54271Q82.72188 236.74583 82.9875 237.10521Q83.25313 237.46458 83.34688 238.05833L82.31563 238.19896Q82.25313 237.73021 81.90938 237.46458Q81.58125 237.18333 80.95625 237.18333Q80.2375 237.18333 79.925 237.43333Q79.6125 237.66771 79.6125 237.99583Q79.6125 238.19896 79.7375 238.35521Q79.87813 238.52708 80.14375 238.63646Q80.3 238.69896 81.08125 238.90208Q82.20625 239.21458 82.64375 239.40208Q83.08125 239.58958 83.33125 239.94896Q83.58125 240.30833 83.58125 240.85521Q83.58125 241.38646 83.26875 241.85521Q82.97188 242.30833 82.39375 242.57396Q81.81563 242.82396 81.08125 242.82396Q79.8625 242.82396 79.22188 242.32396Q78.59688 241.80833 78.425 240.82396Z" fill-rule="nonzero"/><path fill="#000000" d="M27.51875 153.05L26.471874 153.05L26.471874 146.33125Q26.08125 146.69063 25.45625 147.06563Q24.846874 147.425 24.3625 147.59688L24.3625 146.58125Q25.2375 146.15938 25.89375 145.58125Q26.565624 144.9875 26.846874 144.425L27.51875 144.425L27.51875 153.05ZM30.55 150.8L31.659374 150.70625Q31.784374 151.51875 32.221874 151.925Q32.675 152.33125 33.315624 152.33125Q34.065624 152.33125 34.596874 151.75313Q35.128124 151.175 35.128124 150.2375Q35.128124 149.33125 34.6125 148.81563Q34.1125 148.28438 33.284374 148.28438Q32.784374 148.28438 32.3625 148.51875Q31.95625 148.75313 31.721874 149.1125L30.7375 148.9875L31.565624 144.58125L35.846874 144.58125L35.846874 145.58125L32.409374 145.58125L31.95625 147.89375Q32.721874 147.34688 33.565624 147.34688Q34.690624 147.34688 35.45625 148.12813Q36.2375 148.90938 36.2375 150.14375Q36.2375 151.3 35.565624 152.15938Q34.7375 153.19063 33.315624 153.19063Q32.14375 153.19063 31.39375 152.53438Q30.659374 151.87813 30.55 150.8ZM37.55 148.81563Q37.55 147.28438 37.8625 146.3625Q38.175 145.425 38.784374 144.925Q39.409374 144.425 40.346874 144.425Q41.034374 144.425 41.55 144.70625Q42.08125 144.9875 42.425 145.51875Q42.76875 146.03438 42.95625 146.78438Q43.14375 147.53438 43.14375 148.81563Q43.14375 150.33125 42.83125 151.25313Q42.534374 152.175 41.909374 152.69063Q41.3 153.19063 40.346874 153.19063Q39.1125 153.19063 38.39375 152.3Q37.55 151.2375 37.55 148.81563ZM38.628124 148.81563Q38.628124 150.925 39.128124 151.62813Q39.628124 152.33125 40.346874 152.33125Q41.08125 152.33125 41.565624 151.62813Q42.065624 150.925 42.065624 148.81563Q42.065624 146.69063 41.565624 146.00313Q41.08125 145.3 40.33125 145.3Q39.6125 145.3 39.175 145.90938Q38.628124 146.69063 38.628124 148.81563ZM45.1125 153.05L45.1125 151.84688L46.315624 151.84688L46.315624 153.05Q46.315624 153.70625 46.08125 154.1125Q45.846874 154.53438 45.346874 154.75313L45.05 154.3Q45.378124 154.15938 45.534374 153.8625Q45.690624 153.58125 45.721874 153.05L45.1125 153.05ZM47.55 148.81563Q47.55 147.28438 47.8625 146.3625Q48.175 145.425 48.784374 144.925Q49.409374 144.425 50.346874 144.425Q51.034374 144.425 51.55 144.70625Q52.08125 144.9875 52.425 145.51875Q52.76875 146.03438 52.95625 146.78438Q53.14375 147.53438 53.14375 148.81563Q53.14375 150.33125 52.83125 151.25313Q52.534374 152.175 51.909374 152.69063Q51.3 153.19063 50.346874 153.19063Q49.1125 153.19063 48.39375 152.3Q47.55 151.2375 47.55 148.81563ZM48.628124 148.81563Q48.628124 150.925 49.128124 151.62813Q49.628124 152.33125 50.346874 152.33125Q51.08125 152.33125 51.565624 151.62813Q52.065624 150.925 52.065624 148.81563Q52.065624 146.69063 51.565624 146.00313Q51.08125 145.3 50.33125 145.3Q49.6125 145.3 49.175 145.90938Q48.628124 146.69063 48.628124 148.81563ZM54.55 148.81563Q54.55 147.28438 54.8625 146.3625Q55.175 145.425 55.784374 144.925Q56.409374 144.425 57.346874 144.425Q58.034374 144.425 58.55 144.70625Q59.08125 144.9875 59.425 145.51875Q59.76875 146.03438 59.95625 146.78438Q60.14375 147.53438 60.14375 148.81563Q60.14375 150.33125 59.83125 151.25313Q59.534374 152.175 58.909374 152.69063Q58.3 153.19063 57.346874 153.19063Q56.1125 153.19063 55.39375 152.3Q54.55 151.2375 54.55 148.81563ZM55.628124 148.81563Q55.628124 150.925 56.128124 151.62813Q56.628124 152.33125 57.346874 152.33125Q58.08125 152.33125 58.565624 151.62813Q59.065624 150.925 59.065624 148.81563Q59.065624 146.69063 58.565624 146.00313Q58.08125 145.3 57.33125 145.3Q56.6125 145.3 56.175 145.90938Q55.628124 146.69063 55.628124 148.81563ZM61.55 148.81563Q61.55 147.28438 61.8625 146.3625Q62.175 145.425 62.784374 144.925Q63.409374 144.425 64.34688 144.425Q65.03438 144.425 65.55 144.70625Q66.08125 144.9875 66.425 145.51875Q66.76875 146.03438 66.95625 146.78438Q67.14375 147.53438 67.14375 148.81563Q67.14375 150.33125 66.83125 151.25313Q66.53438 152.175 65.90938 152.69063Q65.3 153.19063 64.34688 153.19063Q63.1125 153.19063 62.39375 152.3Q61.55 151.2375 61.55 148.81563ZM62.628124 148.81563Q62.628124 150.925 63.128124 151.62813Q63.628124 152.33125 64.34688 152.33125Q65.08125 152.33125 65.56563 151.62813Q66.06563 150.925 66.06563 148.81563Q66.06563 146.69063 65.56563 146.00313Q65.08125 145.3 64.33125 145.3Q63.6125 145.3 63.175 145.90938Q62.628124 146.69063 62.628124 148.81563ZM71.84688 153.05L71.84688 146.83125L72.78438 146.83125L72.78438 147.70625Q73.47188 146.69063 74.76875 146.69063Q75.33125 146.69063 75.8 146.89375Q76.28438 147.09688 76.51875 147.425Q76.75313 147.75313 76.84688 148.19063Q76.89375 148.4875 76.89375 149.22188L76.89375 153.05L75.84688 153.05L75.84688 149.26875Q75.84688 148.6125 75.72188 148.3Q75.59688 147.9875 75.28438 147.8Q74.97188 147.59688 74.55 147.59688Q73.87813 147.59688 73.37813 148.03438Q72.89375 148.45625 72.89375 149.64375L72.89375 153.05L71.84688 153.05ZM78.425 151.19063L79.45625 151.03438Q79.55 151.65938 79.94063 151.9875Q80.34688 152.31563 81.08125 152.31563Q81.8 152.31563 82.14375 152.03438Q82.50313 151.7375 82.50313 151.33125Q82.50313 150.97188 82.19063 150.76875Q81.97188 150.62813 81.1125 150.40938Q79.95625 150.1125 79.50313 149.90938Q79.06563 149.69063 78.83125 149.31563Q78.59688 148.94063 78.59688 148.47188Q78.59688 148.06563 78.78438 147.70625Q78.97188 147.34688 79.3 147.1125Q79.55 146.94063 79.97188 146.81563Q80.39375 146.69063 80.89375 146.69063Q81.6125 146.69063 82.15938 146.90938Q82.72188 147.1125 82.9875 147.47188Q83.25313 147.83125 83.34688 148.425L82.31563 148.56563Q82.25313 148.09688 81.90938 147.83125Q81.58125 147.55 80.95625 147.55Q80.2375 147.55 79.925 147.8Q79.6125 148.03438 79.6125 148.3625Q79.6125 148.56563 79.7375 148.72188Q79.87813 148.89375 80.14375 149.00313Q80.3 149.06563 81.08125 149.26875Q82.20625 149.58125 82.64375 149.76875Q83.08125 149.95625 83.33125 150.31563Q83.58125 150.675 83.58125 151.22188Q83.58125 151.75313 83.26875 152.22188Q82.97188 152.675 82.39375 152.94063Q81.81563 153.19063 81.08125 153.19063Q79.8625 153.19063 79.22188 152.69063Q78.59688 152.175 78.425 151.19063Z" fill-rule="nonzero"/><path fill="#000000" d="M29.096874 62.401043L29.096874 63.416668L23.409374 63.416668Q23.409374 63.041668 23.534374 62.682293Q23.753124 62.104168 24.221874 61.541668Q24.70625 60.979168 25.6125 60.244793Q27.01875 59.088543 27.503124 58.416668Q28.003124 57.744793 28.003124 57.151043Q28.003124 56.526043 27.55 56.104168Q27.096874 55.666668 26.378124 55.666668Q25.6125 55.666668 25.159374 56.119793Q24.70625 56.572918 24.690624 57.385418L23.6125 57.276043Q23.721874 56.057293 24.440624 55.432293Q25.175 54.791668 26.409374 54.791668Q27.64375 54.791668 28.3625 55.479168Q29.08125 56.166668 29.08125 57.182293Q29.08125 57.697918 28.8625 58.197918Q28.659374 58.682293 28.159374 59.244793Q27.675 59.791668 26.55 60.744793Q25.596874 61.541668 25.315624 61.838543Q25.05 62.119793 24.878124 62.401043L29.096874 62.401043ZM30.55 59.182293Q30.55 57.651043 30.8625 56.729168Q31.175 55.791668 31.784374 55.291668Q32.409374 54.791668 33.346874 54.791668Q34.034374 54.791668 34.55 55.072918Q35.08125 55.354168 35.425 55.885418Q35.76875 56.401043 35.95625 57.151043Q36.14375 57.901043 36.14375 59.182293Q36.14375 60.697918 35.83125 61.619793Q35.534374 62.541668 34.909374 63.057293Q34.3 63.557293 33.346874 63.557293Q32.1125 63.557293 31.39375 62.666668Q30.55 61.604168 30.55 59.182293ZM31.628124 59.182293Q31.628124 61.291668 32.128124 61.994793Q32.628124 62.697918 33.346874 62.697918Q34.08125 62.697918 34.565624 61.994793Q35.065624 61.291668 35.065624 59.182293Q35.065624 57.057293 34.565624 56.369793Q34.08125 55.666668 33.33125 55.666668Q32.6125 55.666668 32.175 56.276043Q31.628124 57.057293 31.628124 59.182293ZM37.55 59.182293Q37.55 57.651043 37.8625 56.729168Q38.175 55.791668 38.784374 55.291668Q39.409374 54.791668 40.346874 54.791668Q41.034374 54.791668 41.55 55.072918Q42.08125 55.354168 42.425 55.885418Q42.76875 56.401043 42.95625 57.151043Q43.14375 57.901043 43.14375 59.182293Q43.14375 60.697918 42.83125 61.619793Q42.534374 62.541668 41.909374 63.057293Q41.3 63.557293 40.346874 63.557293Q39.1125 63.557293 38.39375 62.666668Q37.55 61.604168 37.55 59.182293ZM38.628124 59.182293Q38.628124 61.291668 39.128124 61.994793Q39.628124 62.697918 40.346874 62.697918Q41.08125 62.697918 41.565624 61.994793Q42.065624 61.291668 42.065624 59.182293Q42.065624 57.057293 41.565624 56.369793Q41.08125 55.666668 40.33125 55.666668Q39.6125 55.666668 39.175 56.276043Q38.628124 57.057293 38.628124 59.182293ZM45.1125 63.416668L45.1125 62.213543L46.315624 62.213543L46.315624 63.416668Q46.315624 64.07292 46.08125 64.47917Q45.846874 64.90105 45.346874 65.1198L45.05 64.66667Q45.378124 64.52605 45.534374 64.22917Q45.690624 63.947918 45.721874 63.416668L45.1125 63.416668ZM47.55 59.182293Q47.55 57.651043 47.8625 56.729168Q48.175 55.791668 48.784374 55.291668Q49.409374 54.791668 50.346874 54.791668Q51.034374 54.791668 51.55 55.072918Q52.08125 55.354168 52.425 55.885418Q52.76875 56.401043 52.95625 57.151043Q53.14375 57.901043 53.14375 59.182293Q53.14375 60.697918 52.83125 61.619793Q52.534374 62.541668 51.909374 63.057293Q51.3 63.557293 50.346874 63.557293Q49.1125 63.557293 48.39375 62.666668Q47.55 61.604168 47.55 59.182293ZM48.628124 59.182293Q48.628124 61.291668 49.128124 61.994793Q49.628124 62.697918 50.346874 62.697918Q51.08125 62.697918 51.565624 61.994793Q52.065624 61.291668 52.065624 59.182293Q52.065624 57.057293 51.565624 56.369793Q51.08125 55.666668 50.33125 55.666668Q49.6125 55.666668 49.175 56.276043Q48.628124 57.057293 48.628124 59.182293ZM54.55 59.182293Q54.55 57.651043 54.8625 56.729168Q55.175 55.791668 55.784374 55.291668Q56.409374 54.791668 57.346874 54.791668Q58.034374 54.791668 58.55 55.072918Q59.08125 55.354168 59.425 55.885418Q59.76875 56.401043 59.95625 57.151043Q60.14375 57.901043 60.14375 59.182293Q60.14375 60.697918 59.83125 61.619793Q59.534374 62.541668 58.909374 63.057293Q58.3 63.557293 57.346874 63.557293Q56.1125 63.557293 55.39375 62.666668Q54.55 61.604168 54.55 59.182293ZM55.628124 59.182293Q55.628124 61.291668 56.128124 61.994793Q56.628124 62.697918 57.346874 62.697918Q58.08125 62.697918 58.565624 61.994793Q59.065624 61.291668 59.065624 59.182293Q59.065624 57.057293 58.565624 56.369793Q58.08125 55.666668 57.33125 55.666668Q56.6125 55.666668 56.175 56.276043Q55.628124 57.057293 55.628124 59.182293ZM61.55 59.182293Q61.55 57.651043 61.8625 56.729168Q62.175 55.791668 62.784374 55.291668Q63.409374 54.791668 64.34688 54.791668Q65.03438 54.791668 65.55 55.072918Q66.08125 55.354168 66.425 55.885418Q66.76875 56.401043 66.95625 57.151043Q67.14375 57.901043 67.14375 59.182293Q67.14375 60.697918 66.83125 61.619793Q66.53438 62.541668 65.90938 63.057293Q65.3 63.557293 64.34688 63.557293Q63.1125 63.557293 62.39375 62.666668Q61.55 61.604168 61.55 59.182293ZM62.628124 59.182293Q62.628124 61.291668 63.128124 61.994793Q63.628124 62.697918 64.34688 62.697918Q65.08125 62.697918 65.56563 61.994793Q66.06563 61.291668 66.06563 59.182293Q66.06563 57.057293 65.56563 56.369793Q65.08125 55.666668 64.33125 55.666668Q63.6125 55.666668 63.175 56.276043Q62.628124 57.057293 62.628124 59.182293ZM71.84688 63.416668L71.84688 57.197918L72.78438 57.197918L72.78438 58.072918Q73.47188 57.057293 74.76875 57.057293Q75.33125 57.057293 75.8 57.260418Q76.28438 57.463543 76.51875 57.791668Q76.75313 58.119793 76.84688 58.557293Q76.89375 58.854168 76.89375 59.588543L76.89375 63.416668L75.84688 63.416668L75.84688 59.635418Q75.84688 58.979168 75.72188 58.666668Q75.59688 58.354168 75.28438 58.166668Q74.97188 57.963543 74.55 57.963543Q73.87813 57.963543 73.37813 58.401043Q72.89375 58.822918 72.89375 60.010418L72.89375 63.416668L71.84688 63.416668ZM78.425 61.557293L79.45625 61.401043Q79.55 62.026043 79.94063 62.354168Q80.34688 62.682293 81.08125 62.682293Q81.8 62.682293 82.14375 62.401043Q82.50313 62.104168 82.50313 61.697918Q82.50313 61.338543 82.19063 61.135418Q81.97188 60.994793 81.1125 60.776043Q79.95625 60.479168 79.50313 60.276043Q79.06563 60.057293 78.83125 59.682293Q78.59688 59.307293 78.59688 58.838543Q78.59688 58.432293 78.78438 58.072918Q78.97188 57.713543 79.3 57.479168Q79.55 57.307293 79.97188 57.182293Q80.39375 57.057293 80.89375 57.057293Q81.6125 57.057293 82.15938 57.276043Q82.72188 57.479168 82.9875 57.838543Q83.25313 58.197918 83.34688 58.791668L82.31563 58.932293Q82.25313 58.463543 81.90938 58.197918Q81.58125 57.916668 80.95625 57.916668Q80.2375 57.916668 79.925 58.166668Q79.6125 58.401043 79.6125 58.729168Q79.6125 58.932293 79.7375 59.088543Q79.87813 59.260418 80.14375 59.369793Q80.3 59.432293 81.08125 59.635418Q82.20625 59.947918 82.64375 60.135418Q83.08125 60.322918 83.33125 60.682293Q83.58125 61.041668 83.58125 61.588543Q83.58125 62.119793 83.26875 62.588543Q82.97188 63.041668 82.39375 63.307293Q81.81563 63.557293 81.08125 63.557293Q79.8625 63.557293 79.22188 63.057293Q78.59688 62.541668 78.425 61.557293Z" fill-rule="nonzero"/><path fill="#000000" d="M128.41168 434.95L128.41168 426.35626L131.38043 426.35626Q132.38043 426.35626 132.91168 426.48126Q133.64606 426.65314 134.16168 427.09064Q134.84918 427.66876 135.1773 428.575Q135.52106 429.46564 135.52106 430.60626Q135.52106 431.59064 135.28668 432.34064Q135.06793 433.09064 134.70856 433.59064Q134.34918 434.09064 133.91168 434.3719Q133.4898 434.65314 132.89606 434.8094Q132.3023 434.95 131.52106 434.95L128.41168 434.95ZM129.5523 433.9344L131.38043 433.9344Q132.2398 433.9344 132.72418 433.77814Q133.20856 433.6219 133.4898 433.325Q133.89606 432.9344 134.1148 432.2469Q134.34918 431.5594 134.34918 430.59064Q134.34918 429.2469 133.89606 428.52814Q133.45856 427.79376 132.83356 427.54376Q132.3648 427.3719 131.3648 427.3719L129.5523 427.3719L129.5523 433.9344ZM141.53668 432.95L142.63043 433.075Q142.38043 434.02814 141.6773 434.5594Q140.97418 435.09064 139.89606 435.09064Q138.53668 435.09064 137.72418 434.2469Q136.9273 433.40314 136.9273 431.8875Q136.9273 430.325 137.7398 429.46564Q138.5523 428.59064 139.83356 428.59064Q141.08356 428.59064 141.8648 429.4344Q142.66168 430.27814 142.66168 431.825Q142.66168 431.91876 142.66168 432.10626L138.02106 432.10626Q138.08356 433.1375 138.59918 433.6844Q139.1148 434.21564 139.89606 434.21564Q140.47418 434.21564 140.88043 433.91876Q141.3023 433.60626 141.53668 432.95ZM138.08356 431.2469L141.5523 431.2469Q141.4898 430.45 141.16168 430.0594Q140.64606 429.45 139.84918 429.45Q139.1148 429.45 138.6148 429.9344Q138.13043 430.41876 138.08356 431.2469ZM144.28668 437.34064L144.28668 428.73126L145.2398 428.73126L145.2398 429.52814Q145.58356 429.0594 146.00543 428.825Q146.44293 428.59064 147.0523 428.59064Q147.84918 428.59064 148.45856 428.9969Q149.06793 429.40314 149.3648 430.15314Q149.6773 430.90314 149.6773 431.79376Q149.6773 432.7469 149.33356 433.5125Q149.00543 434.27814 148.34918 434.6844Q147.69293 435.09064 146.97418 435.09064Q146.44293 435.09064 146.02106 434.8719Q145.59918 434.6375 145.33356 434.3094L145.33356 437.34064L144.28668 437.34064ZM145.2398 431.8719Q145.2398 433.075 145.72418 433.65314Q146.20856 434.21564 146.89606 434.21564Q147.59918 434.21564 148.09918 433.6219Q148.59918 433.02814 148.59918 431.77814Q148.59918 430.59064 148.1148 430.0125Q147.63043 429.41876 146.94293 429.41876Q146.27106 429.41876 145.75543 430.04376Q145.2398 430.66876 145.2398 431.8719ZM153.58356 434.0125L153.7398 434.9344Q153.28668 435.02814 152.94293 435.02814Q152.3648 435.02814 152.0523 434.85626Q151.7398 434.66876 151.59918 434.3719Q151.47418 434.075 151.47418 433.1219L151.47418 429.54376L150.70856 429.54376L150.70856 428.73126L151.47418 428.73126L151.47418 427.1844L152.52106 426.5594L152.52106 428.73126L153.58356 428.73126L153.58356 429.54376L152.52106 429.54376L152.52106 433.1844Q152.52106 433.6375 152.56793 433.7625Q152.63043 433.8875 152.75543 433.96564Q152.88043 434.04376 153.1148 434.04376Q153.3023 434.04376 153.58356 434.0125ZM154.28668 434.95L154.28668 426.35626L155.33356 426.35626L155.33356 429.4344Q156.06793 428.59064 157.19293 428.59064Q157.89606 428.59064 158.39606 428.8719Q158.91168 429.1375 159.13043 429.6219Q159.34918 430.09064 159.34918 431.0125L159.34918 434.95L158.3023 434.95L158.3023 431.0125Q158.3023 430.21564 157.95856 429.85626Q157.6148 429.4969 156.9898 429.4969Q156.52106 429.4969 156.09918 429.7469Q155.69293 429.98126 155.50543 430.40314Q155.33356 430.8094 155.33356 431.54376L155.33356 434.95L154.28668 434.95ZM167.95856 434.95L166.91168 434.95L166.91168 428.23126Q166.52106 428.59064 165.89606 428.96564Q165.28668 429.325 164.8023 429.4969L164.8023 428.48126Q165.6773 428.0594 166.33356 427.48126Q167.00543 426.8875 167.28668 426.325L167.95856 426.325L167.95856 434.95Z" fill-rule="nonzero"/><path fill="#000000" d="M214.24841 434.95L214.24841 426.35626L217.21716 426.35626Q218.21716 426.35626 218.74841 426.48126Q219.48279 426.65314 219.99841 427.09064Q220.68591 427.66876 221.01404 428.575Q221.35779 429.46564 221.35779 430.60626Q221.35779 431.59064 221.12341 432.34064Q220.90466 433.09064 220.54529 433.59064Q220.18591 434.09064 219.74841 434.3719Q219.32654 434.65314 218.73279 434.8094Q218.13904 434.95 217.35779 434.95L214.24841 434.95ZM215.38904 433.9344L217.21716 433.9344Q218.07654 433.9344 218.56091 433.77814Q219.04529 433.6219 219.32654 433.325Q219.73279 432.9344 219.95154 432.2469Q220.18591 431.5594 220.18591 430.59064Q220.18591 429.2469 219.73279 428.52814Q219.29529 427.79376 218.67029 427.54376Q218.20154 427.3719 217.20154 427.3719L215.38904 427.3719L215.38904 433.9344ZM227.37341 432.95L228.46716 433.075Q228.21716 434.02814 227.51404 434.5594Q226.81091 435.09064 225.73279 435.09064Q224.37341 435.09064 223.56091 434.2469Q222.76404 433.40314 222.76404 431.8875Q222.76404 430.325 223.57654 429.46564Q224.38904 428.59064 225.67029 428.59064Q226.92029 428.59064 227.70154 429.4344Q228.49841 430.27814 228.49841 431.825Q228.49841 431.91876 228.49841 432.10626L223.85779 432.10626Q223.92029 433.1375 224.43591 433.6844Q224.95154 434.21564 225.73279 434.21564Q226.31091 434.21564 226.71716 433.91876Q227.13904 433.60626 227.37341 432.95ZM223.92029 431.2469L227.38904 431.2469Q227.32654 430.45 226.99841 430.0594Q226.48279 429.45 225.68591 429.45Q224.95154 429.45 224.45154 429.9344Q223.96716 430.41876 223.92029 431.2469ZM230.12341 437.34064L230.12341 428.73126L231.07654 428.73126L231.07654 429.52814Q231.42029 429.0594 231.84216 428.825Q232.27966 428.59064 232.88904 428.59064Q233.68591 428.59064 234.29529 428.9969Q234.90466 429.40314 235.20154 430.15314Q235.51404 430.90314 235.51404 431.79376Q235.51404 432.7469 235.17029 433.5125Q234.84216 434.27814 234.18591 434.6844Q233.52966 435.09064 232.81091 435.09064Q232.27966 435.09064 231.85779 434.8719Q231.43591 434.6375 231.17029 434.3094L231.17029 437.34064L230.12341 437.34064ZM231.07654 431.8719Q231.07654 433.075 231.56091 433.65314Q232.04529 434.21564 232.73279 434.21564Q233.43591 434.21564 233.93591 433.6219Q234.43591 433.02814 234.43591 431.77814Q234.43591 430.59064 233.95154 430.0125Q233.46716 429.41876 232.77966 429.41876Q232.10779 429.41876 231.59216 430.04376Q231.07654 430.66876 231.07654 431.8719ZM239.42029 434.0125L239.57654 434.9344Q239.12341 435.02814 238.77966 435.02814Q238.20154 435.02814 237.88904 434.85626Q237.57654 434.66876 237.43591 434.3719Q237.31091 434.075 237.31091 433.1219L237.31091 429.54376L236.54529 429.54376L236.54529 428.73126L237.31091 428.73126L237.31091 427.1844L238.35779 426.5594L238.35779 428.73126L239.42029 428.73126L239.42029 429.54376L238.35779 429.54376L238.35779 433.1844Q238.35779 433.6375 238.40466 433.7625Q238.46716 433.8875 238.59216 433.96564Q238.71716 434.04376 238.95154 434.04376Q239.13904 434.04376 239.42029 434.0125ZM240.12341 434.95L240.12341 426.35626L241.17029 426.35626L241.17029 429.4344Q241.90466 428.59064 243.02966 428.59064Q243.73279 428.59064 244.23279 428.8719Q244.74841 429.1375 244.96716 429.6219Q245.18591 430.09064 245.18591 431.0125L245.18591 434.95L244.13904 434.95L244.13904 431.0125Q244.13904 430.21564 243.79529 429.85626Q243.45154 429.4969 242.82654 429.4969Q242.35779 429.4969 241.93591 429.7469Q241.52966 429.98126 241.34216 430.40314Q241.17029 430.8094 241.17029 431.54376L241.17029 434.95L240.12341 434.95ZM255.37341 433.9344L255.37341 434.95L249.68591 434.95Q249.68591 434.575 249.81091 434.21564Q250.02966 433.6375 250.49841 433.075Q250.98279 432.5125 251.88904 431.77814Q253.29529 430.6219 253.77966 429.95Q254.27966 429.27814 254.27966 428.6844Q254.27966 428.0594 253.82654 427.6375Q253.37341 427.2 252.65466 427.2Q251.88904 427.2 251.43591 427.65314Q250.98279 428.10626 250.96716 428.91876L249.88904 428.8094Q249.99841 427.59064 250.71716 426.96564Q251.45154 426.325 252.68591 426.325Q253.92029 426.325 254.63904 427.0125Q255.35779 427.7 255.35779 428.71564Q255.35779 429.23126 255.13904 429.73126Q254.93591 430.21564 254.43591 430.77814Q253.95154 431.325 252.82654 432.27814Q251.87341 433.075 251.59216 433.3719Q251.32654 433.65314 251.15466 433.9344L255.37341 433.9344Z" fill-rule="nonzero"/><path fill="#000000" d="M300.08514 434.95L300.08514 426.35626L303.0539 426.35626Q304.0539 426.35626 304.58514 426.48126Q305.31952 426.65314 305.83514 427.09064Q306.52264 427.66876 306.85077 428.575Q307.19452 429.46564 307.19452 430.60626Q307.19452 431.59064 306.96014 432.34064Q306.7414 433.09064 306.38202 433.59064Q306.02264 434.09064 305.58514 434.3719Q305.16327 434.65314 304.56952 434.8094Q303.97577 434.95 303.19452 434.95L300.08514 434.95ZM301.22577 433.9344L303.0539 433.9344Q303.91327 433.9344 304.39764 433.77814Q304.88202 433.6219 305.16327 433.325Q305.56952 432.9344 305.78827 432.2469Q306.02264 431.5594 306.02264 430.59064Q306.02264 429.2469 305.56952 428.52814Q305.13202 427.79376 304.50702 427.54376Q304.03827 427.3719 303.03827 427.3719L301.22577 427.3719L301.22577 433.9344ZM313.21014 432.95L314.3039 433.075Q314.0539 434.02814 313.35077 434.5594Q312.64764 435.09064 311.56952 435.09064Q310.21014 435.09064 309.39764 434.2469Q308.60077 433.40314 308.60077 431.8875Q308.60077 430.325 309.41327 429.46564Q310.22577 428.59064 311.50702 428.59064Q312.75702 428.59064 313.53827 429.4344Q314.33514 430.27814 314.33514 431.825Q314.33514 431.91876 314.33514 432.10626L309.69452 432.10626Q309.75702 433.1375 310.27264 433.6844Q310.78827 434.21564 311.56952 434.21564Q312.14764 434.21564 312.5539 433.91876Q312.97577 433.60626 313.21014 432.95ZM309.75702 431.2469L313.22577 431.2469Q313.16327 430.45 312.83514 430.0594Q312.31952 429.45 311.52264 429.45Q310.78827 429.45 310.28827 429.9344Q309.8039 430.41876 309.75702 431.2469ZM315.96014 437.34064L315.96014 428.73126L316.91327 428.73126L316.91327 429.52814Q317.25702 429.0594 317.6789 428.825Q318.1164 428.59064 318.72577 428.59064Q319.52264 428.59064 320.13202 428.9969Q320.7414 429.40314 321.03827 430.15314Q321.35077 430.90314 321.35077 431.79376Q321.35077 432.7469 321.00702 433.5125Q320.6789 434.27814 320.02264 434.6844Q319.3664 435.09064 318.64764 435.09064Q318.1164 435.09064 317.69452 434.8719Q317.27264 434.6375 317.00702 434.3094L317.00702 437.34064L315.96014 437.34064ZM316.91327 431.8719Q316.91327 433.075 317.39764 433.65314Q317.88202 434.21564 318.56952 434.21564Q319.27264 434.21564 319.77264 433.6219Q320.27264 433.02814 320.27264 431.77814Q320.27264 430.59064 319.78827 430.0125Q319.3039 429.41876 318.6164 429.41876Q317.94452 429.41876 317.4289 430.04376Q316.91327 430.66876 316.91327 431.8719ZM325.25702 434.0125L325.41327 434.9344Q324.96014 435.02814 324.6164 435.02814Q324.03827 435.02814 323.72577 434.85626Q323.41327 434.66876 323.27264 434.3719Q323.14764 434.075 323.14764 433.1219L323.14764 429.54376L322.38202 429.54376L322.38202 428.73126L323.14764 428.73126L323.14764 427.1844L324.19452 426.5594L324.19452 428.73126L325.25702 428.73126L325.25702 429.54376L324.19452 429.54376L324.19452 433.1844Q324.19452 433.6375 324.2414 433.7625Q324.3039 433.8875 324.4289 433.96564Q324.5539 434.04376 324.78827 434.04376Q324.97577 434.04376 325.25702 434.0125ZM325.96014 434.95L325.96014 426.35626L327.00702 426.35626L327.00702 429.4344Q327.7414 428.59064 328.8664 428.59064Q329.56952 428.59064 330.06952 428.8719Q330.58514 429.1375 330.8039 429.6219Q331.02264 430.09064 331.02264 431.0125L331.02264 434.95L329.97577 434.95L329.97577 431.0125Q329.97577 430.21564 329.63202 429.85626Q329.28827 429.4969 328.66327 429.4969Q328.19452 429.4969 327.77264 429.7469Q327.3664 429.98126 327.1789 430.40314Q327.00702 430.8094 327.00702 431.54376L327.00702 434.95L325.96014 434.95ZM339.03827 434.95L339.03827 432.8875L335.31952 432.8875L335.31952 431.91876L339.2414 426.35626L340.10077 426.35626L340.10077 431.91876L341.25702 431.91876L341.25702 432.8875L340.10077 432.8875L340.10077 434.95L339.03827 434.95ZM339.03827 431.91876L339.03827 428.0594L336.35077 431.91876L339.03827 431.91876Z" fill-rule="nonzero"/><path fill="#000000" d="M385.92188 434.95L385.92188 426.35626L388.89062 426.35626Q389.89062 426.35626 390.42188 426.48126Q391.15625 426.65314 391.67188 427.09064Q392.35938 427.66876 392.6875 428.575Q393.03125 429.46564 393.03125 430.60626Q393.03125 431.59064 392.79688 432.34064Q392.57812 433.09064 392.21875 433.59064Q391.85938 434.09064 391.42188 434.3719Q391.0 434.65314 390.40625 434.8094Q389.8125 434.95 389.03125 434.95L385.92188 434.95ZM387.0625 433.9344L388.89062 433.9344Q389.75 433.9344 390.23438 433.77814Q390.71875 433.6219 391.0 433.325Q391.40625 432.9344 391.625 432.2469Q391.85938 431.5594 391.85938 430.59064Q391.85938 429.2469 391.40625 428.52814Q390.96875 427.79376 390.34375 427.54376Q389.875 427.3719 388.875 427.3719L387.0625 427.3719L387.0625 433.9344ZM399.04688 432.95L400.14062 433.075Q399.89062 434.02814 399.1875 434.5594Q398.48438 435.09064 397.40625 435.09064Q396.04688 435.09064 395.23438 434.2469Q394.4375 433.40314 394.4375 431.8875Q394.4375 430.325 395.25 429.46564Q396.0625 428.59064 397.34375 428.59064Q398.59375 428.59064 399.375 429.4344Q400.17188 430.27814 400.17188 431.825Q400.17188 431.91876 400.17188 432.10626L395.53125 432.10626Q395.59375 433.1375 396.10938 433.6844Q396.625 434.21564 397.40625 434.21564Q397.98438 434.21564 398.39062 433.91876Q398.8125 433.60626 399.04688 432.95ZM395.59375 431.2469L399.0625 431.2469Q399.0 430.45 398.67188 430.0594Q398.15625 429.45 397.35938 429.45Q396.625 429.45 396.125 429.9344Q395.64062 430.41876 395.59375 431.2469ZM401.79688 437.34064L401.79688 428.73126L402.75 428.73126L402.75 429.52814Q403.09375 429.0594 403.51562 428.825Q403.95312 428.59064 404.5625 428.59064Q405.35938 428.59064 405.96875 428.9969Q406.57812 429.40314 406.875 430.15314Q407.1875 430.90314 407.1875 431.79376Q407.1875 432.7469 406.84375 433.5125Q406.51562 434.27814 405.85938 434.6844Q405.20312 435.09064 404.48438 435.09064Q403.95312 435.09064 403.53125 434.8719Q403.10938 434.6375 402.84375 434.3094L402.84375 437.34064L401.79688 437.34064ZM402.75 431.8719Q402.75 433.075 403.23438 433.65314Q403.71875 434.21564 404.40625 434.21564Q405.10938 434.21564 405.60938 433.6219Q406.10938 433.02814 406.10938 431.77814Q406.10938 430.59064 405.625 430.0125Q405.14062 429.41876 404.45312 429.41876Q403.78125 429.41876 403.26562 430.04376Q402.75 430.66876 402.75 431.8719ZM411.09375 434.0125L411.25 434.9344Q410.79688 435.02814 410.45312 435.02814Q409.875 435.02814 409.5625 434.85626Q409.25 434.66876 409.10938 434.3719Q408.98438 434.075 408.98438 433.1219L408.98438 429.54376L408.21875 429.54376L408.21875 428.73126L408.98438 428.73126L408.98438 427.1844L410.03125 426.5594L410.03125 428.73126L411.09375 428.73126L411.09375 429.54376L410.03125 429.54376L410.03125 433.1844Q410.03125 433.6375 410.07812 433.7625Q410.14062 433.8875 410.26562 433.96564Q410.39062 434.04376 410.625 434.04376Q410.8125 434.04376 411.09375 434.0125ZM411.79688 434.95L411.79688 426.35626L412.84375 426.35626L412.84375 429.4344Q413.57812 428.59064 414.70312 428.59064Q415.40625 428.59064 415.90625 428.8719Q416.42188 429.1375 416.64062 429.6219Q416.85938 430.09064 416.85938 431.0125L416.85938 434.95L415.8125 434.95L415.8125 431.0125Q415.8125 430.21564 415.46875 429.85626Q415.125 429.4969 414.5 429.4969Q414.03125 429.4969 413.60938 429.7469Q413.20312 429.98126 413.01562 430.40314Q412.84375 430.8094 412.84375 431.54376L412.84375 434.95L411.79688 434.95ZM423.125 430.29376Q422.46875 430.04376 422.14062 429.60626Q421.82812 429.15314 421.82812 428.54376Q421.82812 427.60626 422.5 426.96564Q423.1875 426.325 424.29688 426.325Q425.42188 426.325 426.10938 426.98126Q426.79688 427.6375 426.79688 428.575Q426.79688 429.16876 426.48438 429.60626Q426.17188 430.04376 425.53125 430.29376Q426.32812 430.54376 426.73438 431.1219Q427.14062 431.7 427.14062 432.4969Q427.14062 433.59064 426.35938 434.34064Q425.59375 435.09064 424.3125 435.09064Q423.04688 435.09064 422.26562 434.34064Q421.48438 433.59064 421.48438 432.46564Q421.48438 431.6219 421.90625 431.0594Q422.34375 430.4969 423.125 430.29376ZM422.90625 428.4969Q422.90625 429.10626 423.29688 429.4969Q423.70312 429.8875 424.32812 429.8875Q424.9375 429.8875 425.32812 429.5125Q425.71875 429.1219 425.71875 428.5594Q425.71875 427.98126 425.3125 427.59064Q424.90625 427.1844 424.3125 427.1844Q423.70312 427.1844 423.29688 427.575Q422.90625 427.96564 422.90625 428.4969ZM422.57812 432.46564Q422.57812 432.91876 422.78125 433.34064Q423.0 433.7625 423.42188 433.9969Q423.84375 434.23126 424.32812 434.23126Q425.07812 434.23126 425.5625 433.7469Q426.0625 433.2625 426.0625 432.5125Q426.0625 431.7469 425.5625 431.2469Q425.0625 430.7469 424.29688 430.7469Q423.54688 430.7469 423.0625 431.2469Q422.57812 431.73126 422.57812 432.46564Z" fill-rule="nonzero"/><path fill="#000000" d="M468.2586 434.95L468.2586 426.35626L471.22736 426.35626Q472.22736 426.35626 472.7586 426.48126Q473.49298 426.65314 474.0086 427.09064Q474.6961 427.66876 475.02423 428.575Q475.36798 429.46564 475.36798 430.60626Q475.36798 431.59064 475.1336 432.34064Q474.91486 433.09064 474.55548 433.59064Q474.1961 434.09064 473.7586 434.3719Q473.33673 434.65314 472.74298 434.8094Q472.14923 434.95 471.36798 434.95L468.2586 434.95ZM469.39923 433.9344L471.22736 433.9344Q472.08673 433.9344 472.5711 433.77814Q473.05548 433.6219 473.33673 433.325Q473.74298 432.9344 473.96173 432.2469Q474.1961 431.5594 474.1961 430.59064Q474.1961 429.2469 473.74298 428.52814Q473.30548 427.79376 472.68048 427.54376Q472.21173 427.3719 471.21173 427.3719L469.39923 427.3719L469.39923 433.9344ZM481.3836 432.95L482.47736 433.075Q482.22736 434.02814 481.52423 434.5594Q480.8211 435.09064 479.74298 435.09064Q478.3836 435.09064 477.5711 434.2469Q476.77423 433.40314 476.77423 431.8875Q476.77423 430.325 477.58673 429.46564Q478.39923 428.59064 479.68048 428.59064Q480.93048 428.59064 481.71173 429.4344Q482.5086 430.27814 482.5086 431.825Q482.5086 431.91876 482.5086 432.10626L477.86798 432.10626Q477.93048 433.1375 478.4461 433.6844Q478.96173 434.21564 479.74298 434.21564Q480.3211 434.21564 480.72736 433.91876Q481.14923 433.60626 481.3836 432.95ZM477.93048 431.2469L481.39923 431.2469Q481.33673 430.45 481.0086 430.0594Q480.49298 429.45 479.6961 429.45Q478.96173 429.45 478.46173 429.9344Q477.97736 430.41876 477.93048 431.2469ZM484.1336 437.34064L484.1336 428.73126L485.08673 428.73126L485.08673 429.52814Q485.43048 429.0594 485.85236 428.825Q486.28986 428.59064 486.89923 428.59064Q487.6961 428.59064 488.30548 428.9969Q488.91486 429.40314 489.21173 430.15314Q489.52423 430.90314 489.52423 431.79376Q489.52423 432.7469 489.18048 433.5125Q488.85236 434.27814 488.1961 434.6844Q487.53986 435.09064 486.8211 435.09064Q486.28986 435.09064 485.86798 434.8719Q485.4461 434.6375 485.18048 434.3094L485.18048 437.34064L484.1336 437.34064ZM485.08673 431.8719Q485.08673 433.075 485.5711 433.65314Q486.05548 434.21564 486.74298 434.21564Q487.4461 434.21564 487.9461 433.6219Q488.4461 433.02814 488.4461 431.77814Q488.4461 430.59064 487.96173 430.0125Q487.47736 429.41876 486.78986 429.41876Q486.11798 429.41876 485.60236 430.04376Q485.08673 430.66876 485.08673 431.8719ZM493.43048 434.0125L493.58673 434.9344Q493.1336 435.02814 492.78986 435.02814Q492.21173 435.02814 491.89923 434.85626Q491.58673 434.66876 491.4461 434.3719Q491.3211 434.075 491.3211 433.1219L491.3211 429.54376L490.55548 429.54376L490.55548 428.73126L491.3211 428.73126L491.3211 427.1844L492.36798 426.5594L492.36798 428.73126L493.43048 428.73126L493.43048 429.54376L492.36798 429.54376L492.36798 433.1844Q492.36798 433.6375 492.41486 433.7625Q492.47736 433.8875 492.60236 433.96564Q492.72736 434.04376 492.96173 434.04376Q493.14923 434.04376 493.43048 434.0125ZM494.1336 434.95L494.1336 426.35626L495.18048 426.35626L495.18048 429.4344Q495.91486 428.59064 497.03986 428.59064Q497.74298 428.59064 498.24298 428.8719Q498.7586 429.1375 498.97736 429.6219Q499.1961 430.09064 499.1961 431.0125L499.1961 434.95L498.14923 434.95L498.14923 431.0125Q498.14923 430.21564 497.80548 429.85626Q497.46173 429.4969 496.83673 429.4969Q496.36798 429.4969 495.9461 429.7469Q495.53986 429.98126 495.35236 430.40314Q495.18048 430.8094 495.18048 431.54376L495.18048 434.95L494.1336 434.95ZM507.80548 434.95L506.7586 434.95L506.7586 428.23126Q506.36798 428.59064 505.74298 428.96564Q505.1336 429.325 504.64923 429.4969L504.64923 428.48126Q505.52423 428.0594 506.18048 427.48126Q506.85236 426.8875 507.1336 426.325L507.80548 426.325L507.80548 434.95ZM516.3055 428.46564L515.2586 428.54376Q515.118 427.91876 514.868 427.6375Q514.4305 427.1844 513.8055 427.1844Q513.3055 427.1844 512.91486 427.46564Q512.4305 427.84064 512.1336 428.54376Q511.85236 429.23126 511.83673 430.5125Q512.21173 429.9344 512.7586 429.65314Q513.3211 429.3719 513.9305 429.3719Q514.97736 429.3719 515.71173 430.15314Q516.46173 430.9344 516.46173 432.15314Q516.46173 432.96564 516.10236 433.66876Q515.7586 434.35626 515.14923 434.73126Q514.53986 435.09064 513.77423 435.09064Q512.4461 435.09064 511.61798 434.1219Q510.78986 433.15314 510.78986 430.9344Q510.78986 428.4344 511.71173 427.3094Q512.5086 426.325 513.868 426.325Q514.8836 426.325 515.52423 426.90314Q516.1805 427.46564 516.3055 428.46564ZM512.0086 432.16876Q512.0086 432.71564 512.22736 433.21564Q512.46173 433.7 512.868 433.96564Q513.28986 434.23126 513.7586 434.23126Q514.41486 434.23126 514.89923 433.7Q515.3836 433.15314 515.3836 432.23126Q515.3836 431.34064 514.89923 430.825Q514.4305 430.3094 513.71173 430.3094Q512.993 430.3094 512.493 430.825Q512.0086 431.34064 512.0086 432.16876Z" fill-rule="nonzero"/><path fill="#000000" d="M554.09534 434.95L554.09534 426.35626L557.0641 426.35626Q558.0641 426.35626 558.59534 426.48126Q559.3297 426.65314 559.84534 427.09064Q560.53284 427.66876 560.86096 428.575Q561.2047 429.46564 561.2047 430.60626Q561.2047 431.59064 560.97034 432.34064Q560.7516 433.09064 560.3922 433.59064Q560.03284 434.09064 559.59534 434.3719Q559.17346 434.65314 558.5797 434.8094Q557.98596 434.95 557.2047 434.95L554.09534 434.95ZM555.23596 433.9344L557.0641 433.9344Q557.92346 433.9344 558.40784 433.77814Q558.8922 433.6219 559.17346 433.325Q559.5797 432.9344 559.79846 432.2469Q560.03284 431.5594 560.03284 430.59064Q560.03284 429.2469 559.5797 428.52814Q559.1422 427.79376 558.5172 427.54376Q558.04846 427.3719 557.04846 427.3719L555.23596 427.3719L555.23596 433.9344ZM567.22034 432.95L568.3141 433.075Q568.0641 434.02814 567.36096 434.5594Q566.65784 435.09064 565.5797 435.09064Q564.22034 435.09064 563.40784 434.2469Q562.61096 433.40314 562.61096 431.8875Q562.61096 430.325 563.42346 429.46564Q564.23596 428.59064 565.5172 428.59064Q566.7672 428.59064 567.54846 429.4344Q568.34534 430.27814 568.34534 431.825Q568.34534 431.91876 568.34534 432.10626L563.7047 432.10626Q563.7672 433.1375 564.28284 433.6844Q564.79846 434.21564 565.5797 434.21564Q566.15784 434.21564 566.5641 433.91876Q566.98596 433.60626 567.22034 432.95ZM563.7672 431.2469L567.23596 431.2469Q567.17346 430.45 566.84534 430.0594Q566.3297 429.45 565.53284 429.45Q564.79846 429.45 564.29846 429.9344Q563.8141 430.41876 563.7672 431.2469ZM569.97034 437.34064L569.97034 428.73126L570.92346 428.73126L570.92346 429.52814Q571.2672 429.0594 571.6891 428.825Q572.1266 428.59064 572.73596 428.59064Q573.53284 428.59064 574.1422 428.9969Q574.7516 429.40314 575.04846 430.15314Q575.36096 430.90314 575.36096 431.79376Q575.36096 432.7469 575.0172 433.5125Q574.6891 434.27814 574.03284 434.6844Q573.3766 435.09064 572.65784 435.09064Q572.1266 435.09064 571.7047 434.8719Q571.28284 434.6375 571.0172 434.3094L571.0172 437.34064L569.97034 437.34064ZM570.92346 431.8719Q570.92346 433.075 571.40784 433.65314Q571.8922 434.21564 572.5797 434.21564Q573.28284 434.21564 573.78284 433.6219Q574.28284 433.02814 574.28284 431.77814Q574.28284 430.59064 573.79846 430.0125Q573.3141 429.41876 572.6266 429.41876Q571.9547 429.41876 571.4391 430.04376Q570.92346 430.66876 570.92346 431.8719ZM579.2672 434.0125L579.42346 434.9344Q578.97034 435.02814 578.6266 435.02814Q578.04846 435.02814 577.73596 434.85626Q577.42346 434.66876 577.28284 434.3719Q577.15784 434.075 577.15784 433.1219L577.15784 429.54376L576.3922 429.54376L576.3922 428.73126L577.15784 428.73126L577.15784 427.1844L578.2047 426.5594L578.2047 428.73126L579.2672 428.73126L579.2672 429.54376L578.2047 429.54376L578.2047 433.1844Q578.2047 433.6375 578.2516 433.7625Q578.3141 433.8875 578.4391 433.96564Q578.5641 434.04376 578.79846 434.04376Q578.98596 434.04376 579.2672 434.0125ZM579.97034 434.95L579.97034 426.35626L581.0172 426.35626L581.0172 429.4344Q581.7516 428.59064 582.8766 428.59064Q583.5797 428.59064 584.0797 428.8719Q584.59534 429.1375 584.8141 429.6219Q585.03284 430.09064 585.03284 431.0125L585.03284 434.95L583.98596 434.95L583.98596 431.0125Q583.98596 430.21564 583.6422 429.85626Q583.29846 429.4969 582.67346 429.4969Q582.2047 429.4969 581.78284 429.7469Q581.3766 429.98126 581.1891 430.40314Q581.0172 430.8094 581.0172 431.54376L581.0172 434.95L579.97034 434.95ZM589.67346 432.6844L590.73596 432.54376Q590.90784 433.4344 591.34534 433.84064Q591.78284 434.23126 592.40784 434.23126Q593.15784 434.23126 593.67346 433.71564Q594.1891 433.2 594.1891 432.4344Q594.1891 431.71564 593.7047 431.2469Q593.23596 430.7625 592.5016 430.7625Q592.2047 430.7625 591.7516 430.8875L591.8766 429.95Q591.98596 429.96564 592.04846 429.96564Q592.72034 429.96564 593.2516 429.6219Q593.79846 429.2625 593.79846 428.52814Q593.79846 427.95 593.40784 427.575Q593.0172 427.1844 592.3922 427.1844Q591.78284 427.1844 591.36096 427.575Q590.9547 427.96564 590.84534 428.73126L589.78284 428.54376Q589.97034 427.4969 590.65784 426.91876Q591.34534 426.325 592.36096 426.325Q593.0641 426.325 593.65784 426.6375Q594.2516 426.9344 594.5641 427.45Q594.8766 427.96564 594.8766 428.5594Q594.8766 429.10626 594.5797 429.575Q594.28284 430.02814 593.7047 430.29376Q594.4547 430.46564 594.8766 431.02814Q595.29846 431.575 595.29846 432.41876Q595.29846 433.54376 594.47034 434.325Q593.65784 435.10626 592.40784 435.10626Q591.28284 435.10626 590.53284 434.4344Q589.78284 433.7469 589.67346 432.6844ZM602.22034 433.9344L602.22034 434.95L596.53284 434.95Q596.53284 434.575 596.65784 434.21564Q596.8766 433.6375 597.34534 433.075Q597.8297 432.5125 598.73596 431.77814Q600.1422 430.6219 600.6266 429.95Q601.1266 429.27814 601.1266 428.6844Q601.1266 428.0594 600.67346 427.6375Q600.22034 427.2 599.5016 427.2Q598.73596 427.2 598.28284 427.65314Q597.8297 428.10626 597.8141 428.91876L596.73596 428.8094Q596.84534 427.59064 597.5641 426.96564Q598.29846 426.325 599.53284 426.325Q600.7672 426.325 601.48596 427.0125Q602.2047 427.7 602.2047 428.71564Q602.2047 429.23126 601.98596 429.73126Q601.78284 430.21564 601.28284 430.77814Q600.79846 431.325 599.67346 432.27814Q598.72034 433.075 598.4391 433.3719Q598.17346 433.65314 598.0016 433.9344L602.22034 433.9344Z" fill-rule="nonzero"/><path fill="#000000" d="M639.93207 434.95L639.93207 426.35626L642.9008 426.35626Q643.9008 426.35626 644.43207 426.48126Q645.16644 426.65314 645.68207 427.09064Q646.36957 427.66876 646.6977 428.575Q647.04144 429.46564 647.04144 430.60626Q647.04144 431.59064 646.80707 432.34064Q646.5883 433.09064 646.22894 433.59064Q645.86957 434.09064 645.43207 434.3719Q645.0102 434.65314 644.41644 434.8094Q643.8227 434.95 643.04144 434.95L639.93207 434.95ZM641.0727 433.9344L642.9008 433.9344Q643.7602 433.9344 644.24457 433.77814Q644.72894 433.6219 645.0102 433.325Q645.41644 432.9344 645.6352 432.2469Q645.86957 431.5594 645.86957 430.59064Q645.86957 429.2469 645.41644 428.52814Q644.97894 427.79376 644.35394 427.54376Q643.8852 427.3719 642.8852 427.3719L641.0727 427.3719L641.0727 433.9344ZM653.05707 432.95L654.1508 433.075Q653.9008 434.02814 653.1977 434.5594Q652.49457 435.09064 651.41644 435.09064Q650.05707 435.09064 649.24457 434.2469Q648.4477 433.40314 648.4477 431.8875Q648.4477 430.325 649.2602 429.46564Q650.0727 428.59064 651.35394 428.59064Q652.60394 428.59064 653.3852 429.4344Q654.18207 430.27814 654.18207 431.825Q654.18207 431.91876 654.18207 432.10626L649.54144 432.10626Q649.60394 433.1375 650.11957 433.6844Q650.6352 434.21564 651.41644 434.21564Q651.99457 434.21564 652.4008 433.91876Q652.8227 433.60626 653.05707 432.95ZM649.60394 431.2469L653.0727 431.2469Q653.0102 430.45 652.68207 430.0594Q652.16644 429.45 651.36957 429.45Q650.6352 429.45 650.1352 429.9344Q649.6508 430.41876 649.60394 431.2469ZM655.80707 437.34064L655.80707 428.73126L656.7602 428.73126L656.7602 429.52814Q657.10394 429.0594 657.5258 428.825Q657.9633 428.59064 658.5727 428.59064Q659.36957 428.59064 659.97894 428.9969Q660.5883 429.40314 660.8852 430.15314Q661.1977 430.90314 661.1977 431.79376Q661.1977 432.7469 660.85394 433.5125Q660.5258 434.27814 659.86957 434.6844Q659.2133 435.09064 658.49457 435.09064Q657.9633 435.09064 657.54144 434.8719Q657.11957 434.6375 656.85394 434.3094L656.85394 437.34064L655.80707 437.34064ZM656.7602 431.8719Q656.7602 433.075 657.24457 433.65314Q657.72894 434.21564 658.41644 434.21564Q659.11957 434.21564 659.61957 433.6219Q660.11957 433.02814 660.11957 431.77814Q660.11957 430.59064 659.6352 430.0125Q659.1508 429.41876 658.4633 429.41876Q657.79144 429.41876 657.2758 430.04376Q656.7602 430.66876 656.7602 431.8719ZM665.10394 434.0125L665.2602 434.9344Q664.80707 435.02814 664.4633 435.02814Q663.8852 435.02814 663.5727 434.85626Q663.2602 434.66876 663.11957 434.3719Q662.99457 434.075 662.99457 433.1219L662.99457 429.54376L662.22894 429.54376L662.22894 428.73126L662.99457 428.73126L662.99457 427.1844L664.04144 426.5594L664.04144 428.73126L665.10394 428.73126L665.10394 429.54376L664.04144 429.54376L664.04144 433.1844Q664.04144 433.6375 664.0883 433.7625Q664.1508 433.8875 664.2758 433.96564Q664.4008 434.04376 664.6352 434.04376Q664.8227 434.04376 665.10394 434.0125ZM665.80707 434.95L665.80707 426.35626L666.85394 426.35626L666.85394 429.4344Q667.5883 428.59064 668.7133 428.59064Q669.41644 428.59064 669.91644 428.8719Q670.43207 429.1375 670.6508 429.6219Q670.86957 430.09064 670.86957 431.0125L670.86957 434.95L669.8227 434.95L669.8227 431.0125Q669.8227 430.21564 669.47894 429.85626Q669.1352 429.4969 668.5102 429.4969Q668.04144 429.4969 667.61957 429.7469Q667.2133 429.98126 667.0258 430.40314Q666.85394 430.8094 666.85394 431.54376L666.85394 434.95L665.80707 434.95ZM680.97894 428.46564L679.93207 428.54376Q679.79144 427.91876 679.54144 427.6375Q679.10394 427.1844 678.47894 427.1844Q677.97894 427.1844 677.5883 427.46564Q677.10394 427.84064 676.80707 428.54376Q676.5258 429.23126 676.5102 430.5125Q676.8852 429.9344 677.43207 429.65314Q677.99457 429.3719 678.60394 429.3719Q679.6508 429.3719 680.3852 430.15314Q681.1352 430.9344 681.1352 432.15314Q681.1352 432.96564 680.7758 433.66876Q680.43207 434.35626 679.8227 434.73126Q679.2133 435.09064 678.4477 435.09064Q677.11957 435.09064 676.29144 434.1219Q675.4633 433.15314 675.4633 430.9344Q675.4633 428.4344 676.3852 427.3094Q677.18207 426.325 678.54144 426.325Q679.55707 426.325 680.1977 426.90314Q680.85394 427.46564 680.97894 428.46564ZM676.68207 432.16876Q676.68207 432.71564 676.9008 433.21564Q677.1352 433.7 677.54144 433.96564Q677.9633 434.23126 678.43207 434.23126Q679.0883 434.23126 679.5727 433.7Q680.05707 433.15314 680.05707 432.23126Q680.05707 431.34064 679.5727 430.825Q679.10394 430.3094 678.3852 430.3094Q677.66644 430.3094 677.16644 430.825Q676.68207 431.34064 676.68207 432.16876ZM685.8852 434.95L685.8852 432.8875L682.16644 432.8875L682.16644 431.91876L686.0883 426.35626L686.9477 426.35626L686.9477 431.91876L688.10394 431.91876L688.10394 432.8875L686.9477 432.8875L686.9477 434.95L685.8852 434.95ZM685.8852 431.91876L685.8852 428.0594L683.1977 431.91876L685.8852 431.91876Z" fill-rule="nonzero"/><path fill="#4285f4" d="M176.0 25.05C176.0 24.497715 176.44771 24.05 177.0 24.05L187.0 24.05C187.55229 24.05 188.0 24.497715 188.0 25.05L188.0 35.05C188.0 35.602283 187.55229 36.05 187.0 36.05L177.0 36.05C176.44771 36.05 176.0 35.602283 176.0 35.05Z" fill-rule="nonzero"/><path fill="#1a1a1a" d="M199.375 34.05L196.04688 25.45625L197.28125 25.45625L199.51562 31.70625Q199.78125 32.45625 199.96875 33.1125Q200.17188 32.409374 200.4375 31.70625L202.75 25.45625L203.90625 25.45625L200.54688 34.05L199.375 34.05ZM203.40625 30.940624Q203.40625 29.20625 204.35938 28.378124Q205.15625 27.690624 206.3125 27.690624Q207.59375 27.690624 208.40625 28.534374Q209.23438 29.3625 209.23438 30.846874Q209.23438 32.05 208.875 32.7375Q208.51562 33.425 207.8125 33.815624Q207.125 34.190624 206.3125 34.190624Q205.01562 34.190624 204.20312 33.3625Q203.40625 32.51875 203.40625 30.940624ZM204.48438 30.940624Q204.48438 32.128124 205.0 32.721874Q205.53125 33.315624 206.3125 33.315624Q207.10938 33.315624 207.625 32.721874Q208.14062 32.128124 208.14062 30.909374Q208.14062 29.753124 207.60938 29.159374Q207.09375 28.565624 206.3125 28.565624Q205.53125 28.565624 205.0 29.159374Q204.48438 29.7375 204.48438 30.940624ZM210.79688 26.675L210.79688 25.45625L211.85938 25.45625L211.85938 26.675L210.79688 26.675ZM210.79688 34.05L210.79688 27.83125L211.85938 27.83125L211.85938 34.05L210.79688 34.05ZM217.82812 34.05L217.82812 33.26875Q217.23438 34.190624 216.09375 34.190624Q215.34375 34.190624 214.71875 33.784374Q214.09375 33.3625 213.75 32.628124Q213.40625 31.89375 213.40625 30.940624Q213.40625 30.01875 213.71875 29.253124Q214.03125 28.4875 214.65625 28.096874Q215.28125 27.690624 216.04688 27.690624Q216.60938 27.690624 217.04688 27.925Q217.48438 28.159374 217.76562 28.534374L217.76562 25.45625L218.8125 25.45625L218.8125 34.05L217.82812 34.05ZM214.5 30.940624Q214.5 32.14375 215.0 32.7375Q215.5 33.315624 216.1875 33.315624Q216.875 33.315624 217.35938 32.753124Q217.84375 32.190624 217.84375 31.034374Q217.84375 29.753124 217.34375 29.159374Q216.85938 28.565624 216.14062 28.565624Q215.4375 28.565624 214.96875 29.14375Q214.5 29.70625 214.5 30.940624ZM219.8125 36.440624L219.8125 35.675L226.8125 35.675L226.8125 36.440624L219.8125 36.440624ZM227.9375 34.05L227.9375 25.45625L231.75 25.45625Q232.90625 25.45625 233.5 25.690624Q234.09375 25.925 234.45312 26.51875Q234.8125 27.096874 234.8125 27.8Q234.8125 28.721874 234.21875 29.346874Q233.625 29.971874 232.39062 30.14375Q232.84375 30.3625 233.07812 30.565624Q233.57812 31.01875 234.01562 31.70625L235.51562 34.05L234.07812 34.05L232.95312 32.26875Q232.45312 31.4875 232.125 31.08125Q231.8125 30.675 231.54688 30.51875Q231.29688 30.346874 231.03125 30.26875Q230.84375 30.2375 230.40625 30.2375L229.07812 30.2375L229.07812 34.05L227.9375 34.05ZM229.07812 29.253124L231.53125 29.253124Q232.29688 29.253124 232.73438 29.096874Q233.1875 28.925 233.40625 28.58125Q233.64062 28.221874 233.64062 27.8Q233.64062 27.190624 233.1875 26.8Q232.75 26.409374 231.79688 26.409374L229.07812 26.409374L229.07812 29.253124ZM241.04688 32.05L242.14062 32.175Q241.89062 33.128124 241.1875 33.659374Q240.48438 34.190624 239.40625 34.190624Q238.04688 34.190624 237.23438 33.346874Q236.4375 32.503124 236.4375 30.9875Q236.4375 29.425 237.25 28.565624Q238.0625 27.690624 239.34375 27.690624Q240.59375 27.690624 241.375 28.534374Q242.17188 29.378124 242.17188 30.925Q242.17188 31.01875 242.17188 31.20625L237.53125 31.20625Q237.59375 32.2375 238.10938 32.784374Q238.625 33.315624 239.40625 33.315624Q239.98438 33.315624 240.39062 33.01875Q240.8125 32.70625 241.04688 32.05ZM237.59375 30.346874L241.0625 30.346874Q241.0 29.55 240.67188 29.159374Q240.15625 28.55 239.35938 28.55Q238.625 28.55 238.125 29.034374Q237.64062 29.51875 237.59375 30.346874ZM247.85938 33.284374Q247.26562 33.784374 246.71875 33.9875Q246.1875 34.190624 245.5625 34.190624Q244.53125 34.190624 243.98438 33.690624Q243.4375 33.190624 243.4375 32.409374Q243.4375 31.95625 243.64062 31.58125Q243.84375 31.190624 244.1875 30.971874Q244.53125 30.7375 244.95312 30.628124Q245.25 30.534374 245.89062 30.45625Q247.15625 30.315624 247.76562 30.096874Q247.76562 29.878124 247.76562 29.83125Q247.76562 29.175 247.46875 28.909374Q247.0625 28.565624 246.26562 28.565624Q245.53125 28.565624 245.17188 28.83125Q244.8125 29.08125 244.64062 29.7375L243.60938 29.596874Q243.75 28.940624 244.07812 28.534374Q244.40625 28.128124 245.01562 27.909374Q245.625 27.690624 246.42188 27.690624Q247.21875 27.690624 247.71875 27.878124Q248.21875 28.065624 248.45312 28.346874Q248.6875 28.628124 248.78125 29.065624Q248.82812 29.33125 248.82812 30.034374L248.82812 31.440624Q248.82812 32.909374 248.89062 33.3Q248.96875 33.690624 249.17188 34.05L248.0625 34.05Q247.90625 33.721874 247.85938 33.284374ZM247.76562 30.925Q247.1875 31.159374 246.04688 31.33125Q245.39062 31.425 245.125 31.55Q244.85938 31.659374 244.70312 31.878124Q244.5625 32.096874 244.5625 32.378124Q244.5625 32.8 244.875 33.08125Q245.20312 33.3625 245.8125 33.3625Q246.42188 33.3625 246.89062 33.096874Q247.375 32.83125 247.59375 32.3625Q247.76562 32.003124 247.76562 31.315624L247.76562 30.925ZM254.82812 34.05L254.82812 33.26875Q254.23438 34.190624 253.09375 34.190624Q252.34375 34.190624 251.71875 33.784374Q251.09375 33.3625 250.75 32.628124Q250.40625 31.89375 250.40625 30.940624Q250.40625 30.01875 250.71875 29.253124Q251.03125 28.4875 251.65625 28.096874Q252.28125 27.690624 253.04688 27.690624Q253.60938 27.690624 254.04688 27.925Q254.48438 28.159374 254.76562 28.534374L254.76562 25.45625L255.8125 25.45625L255.8125 34.05L254.82812 34.05ZM251.5 30.940624Q251.5 32.14375 252.0 32.7375Q252.5 33.315624 253.1875 33.315624Q253.875 33.315624 254.35938 32.753124Q254.84375 32.190624 254.84375 31.034374Q254.84375 29.753124 254.34375 29.159374Q253.85938 28.565624 253.14062 28.565624Q252.4375 28.565624 251.96875 29.14375Q251.5 29.70625 251.5 30.940624ZM260.57812 29.8625Q260.57812 27.721874 261.71875 26.51875Q262.875 25.3 264.6875 25.3Q265.89062 25.3 266.84375 25.878124Q267.79688 26.440624 268.29688 27.45625Q268.79688 28.471874 268.79688 29.76875Q268.79688 31.065624 268.26562 32.096874Q267.73438 33.128124 266.76562 33.659374Q265.8125 34.190624 264.6875 34.190624Q263.46875 34.190624 262.51562 33.6125Q261.5625 33.01875 261.0625 32.01875Q260.57812 31.003124 260.57812 29.8625ZM261.75 29.878124Q261.75 31.440624 262.57812 32.33125Q263.42188 33.221874 264.6875 33.221874Q265.96875 33.221874 266.79688 32.33125Q267.625 31.425 267.625 29.753124Q267.625 28.70625 267.26562 27.925Q266.92188 27.14375 266.23438 26.721874Q265.54688 26.284374 264.70312 26.284374Q263.5 26.284374 262.625 27.1125Q261.75 27.940624 261.75 29.878124ZM269.79688 34.05L269.79688 27.83125L270.73438 27.83125L270.73438 28.70625Q271.42188 27.690624 272.71875 27.690624Q273.28125 27.690624 273.75 27.89375Q274.23438 28.096874 274.46875 28.425Q274.70312 28.753124 274.79688 29.190624Q274.84375 29.4875 274.84375 30.221874L274.84375 34.05L273.79688 34.05L273.79688 30.26875Q273.79688 29.6125 273.67188 29.3Q273.54688 28.9875 273.23438 28.8Q272.92188 28.596874 272.5 28.596874Q271.82812 28.596874 271.32812 29.034374Q270.84375 29.45625 270.84375 30.64375L270.84375 34.05L269.79688 34.05ZM276.76562 34.05L276.76562 25.45625L277.82812 25.45625L277.82812 34.05L276.76562 34.05ZM279.75 36.440624L279.625 35.45625Q279.96875 35.55 280.23438 35.55Q280.57812 35.55 280.78125 35.425Q281.0 35.315624 281.14062 35.1125Q281.23438 34.940624 281.46875 34.315624Q281.48438 34.2375 281.5625 34.065624L279.1875 27.83125L280.32812 27.83125L281.625 31.425Q281.875 32.1125 282.07812 32.878124Q282.26562 32.14375 282.51562 31.45625L283.84375 27.83125L284.89062 27.83125L282.53125 34.159374Q282.14062 35.175 281.9375 35.565624Q281.65625 36.096874 281.28125 36.33125Q280.92188 36.58125 280.42188 36.58125Q280.125 36.58125 279.75 36.440624ZM287.89062 34.05L287.89062 25.45625L289.60938 25.45625L291.64062 31.534374Q291.92188 32.39375 292.04688 32.815624Q292.1875 32.346874 292.5 31.440624L294.5625 25.45625L296.09375 25.45625L296.09375 34.05L295.0 34.05L295.0 26.8625L292.5 34.05L291.46875 34.05L288.98438 26.7375L288.98438 34.05L287.89062 34.05ZM301.04688 32.05L302.14062 32.175Q301.89062 33.128124 301.1875 33.659374Q300.48438 34.190624 299.40625 34.190624Q298.04688 34.190624 297.23438 33.346874Q296.4375 32.503124 296.4375 30.9875Q296.4375 29.425 297.25 28.565624Q298.0625 27.690624 299.34375 27.690624Q300.59375 27.690624 301.375 28.534374Q302.17188 29.378124 302.17188 30.925Q302.17188 31.01875 302.17188 31.20625L297.53125 31.20625Q297.59375 32.2375 298.10938 32.784374Q298.625 33.315624 299.40625 33.315624Q299.98438 33.315624 300.39062 33.01875Q300.8125 32.70625 301.04688 32.05ZM297.59375 30.346874L301.0625 30.346874Q301.0 29.55 300.67188 29.159374Q300.15625 28.55 299.35938 28.55Q298.625 28.55 298.125 29.034374Q297.64062 29.51875 297.59375 30.346874ZM303.375 32.190624L304.40625 32.034374Q304.5 32.659374 304.89062 32.9875Q305.29688 33.315624 306.03125 33.315624Q306.75 33.315624 307.09375 33.034374Q307.45312 32.7375 307.45312 32.33125Q307.45312 31.971874 307.14062 31.76875Q306.92188 31.628124 306.0625 31.409374Q304.90625 31.1125 304.45312 30.909374Q304.01562 30.690624 303.78125 30.315624Q303.54688 29.940624 303.54688 29.471874Q303.54688 29.065624 303.73438 28.70625Q303.92188 28.346874 304.25 28.1125Q304.5 27.940624 304.92188 27.815624Q305.34375 27.690624 305.84375 27.690624Q306.5625 27.690624 307.10938 27.909374Q307.67188 28.1125 307.9375 28.471874Q308.20312 28.83125 308.29688 29.425L307.26562 29.565624Q307.20312 29.096874 306.85938 28.83125Q306.53125 28.55 305.90625 28.55Q305.1875 28.55 304.875 28.8Q304.5625 29.034374 304.5625 29.3625Q304.5625 29.565624 304.6875 29.721874Q304.82812 29.89375 305.09375 30.003124Q305.25 30.065624 306.03125 30.26875Q307.15625 30.58125 307.59375 30.76875Q308.03125 30.95625 308.28125 31.315624Q308.53125 31.675 308.53125 32.221874Q308.53125 32.753124 308.21875 33.221874Q307.92188 33.675 307.34375 33.940624Q306.76562 34.190624 306.03125 34.190624Q304.8125 34.190624 304.17188 33.690624Q303.54688 33.175 303.375 32.190624ZM310.375 32.190624L311.40625 32.034374Q311.5 32.659374 311.89062 32.9875Q312.29688 33.315624 313.03125 33.315624Q313.75 33.315624 314.09375 33.034374Q314.45312 32.7375 314.45312 32.33125Q314.45312 31.971874 314.14062 31.76875Q313.92188 31.628124 313.0625 31.409374Q311.90625 31.1125 311.45312 30.909374Q311.01562 30.690624 310.78125 30.315624Q310.54688 29.940624 310.54688 29.471874Q310.54688 29.065624 310.73438 28.70625Q310.92188 28.346874 311.25 28.1125Q311.5 27.940624 311.92188 27.815624Q312.34375 27.690624 312.84375 27.690624Q313.5625 27.690624 314.10938 27.909374Q314.67188 28.1125 314.9375 28.471874Q315.20312 28.83125 315.29688 29.425L314.26562 29.565624Q314.20312 29.096874 313.85938 28.83125Q313.53125 28.55 312.90625 28.55Q312.1875 28.55 311.875 28.8Q311.5625 29.034374 311.5625 29.3625Q311.5625 29.565624 311.6875 29.721874Q311.82812 29.89375 312.09375 30.003124Q312.25 30.065624 313.03125 30.26875Q314.15625 30.58125 314.59375 30.76875Q315.03125 30.95625 315.28125 31.315624Q315.53125 31.675 315.53125 32.221874Q315.53125 32.753124 315.21875 33.221874Q314.92188 33.675 314.34375 33.940624Q313.76562 34.190624 313.03125 34.190624Q311.8125 34.190624 311.17188 33.690624Q310.54688 33.175 310.375 32.190624ZM321.85938 33.284374Q321.26562 33.784374 320.71875 33.9875Q320.1875 34.190624 319.5625 34.190624Q318.53125 34.190624 317.98438 33.690624Q317.4375 33.190624 317.4375 32.409374Q317.4375 31.95625 317.64062 31.58125Q317.84375 31.190624 318.1875 30.971874Q318.53125 30.7375 318.95312 30.628124Q319.25 30.534374 319.89062 30.45625Q321.15625 30.315624 321.76562 30.096874Q321.76562 29.878124 321.76562 29.83125Q321.76562 29.175 321.46875 28.909374Q321.0625 28.565624 320.26562 28.565624Q319.53125 28.565624 319.17188 28.83125Q318.8125 29.08125 318.64062 29.7375L317.60938 29.596874Q317.75 28.940624 318.07812 28.534374Q318.40625 28.128124 319.01562 27.909374Q319.625 27.690624 320.42188 27.690624Q321.21875 27.690624 321.71875 27.878124Q322.21875 28.065624 322.45312 28.346874Q322.6875 28.628124 322.78125 29.065624Q322.82812 29.33125 322.82812 30.034374L322.82812 31.440624Q322.82812 32.909374 322.89062 33.3Q322.96875 33.690624 323.17188 34.05L322.0625 34.05Q321.90625 33.721874 321.85938 33.284374ZM321.76562 30.925Q321.1875 31.159374 320.04688 31.33125Q319.39062 31.425 319.125 31.55Q318.85938 31.659374 318.70312 31.878124Q318.5625 32.096874 318.5625 32.378124Q318.5625 32.8 318.875 33.08125Q319.20312 33.3625 319.8125 33.3625Q320.42188 33.3625 320.89062 33.096874Q321.375 32.83125 321.59375 32.3625Q321.76562 32.003124 321.76562 31.315624L321.76562 30.925ZM324.59375 34.565624L325.625 34.721874Q325.6875 35.190624 325.98438 35.409374Q326.375 35.70625 327.04688 35.70625Q327.78125 35.70625 328.17188 35.409374Q328.57812 35.1125 328.71875 34.596874Q328.8125 34.26875 328.79688 33.2375Q328.10938 34.05 327.07812 34.05Q325.79688 34.05 325.09375 33.128124Q324.39062 32.190624 324.39062 30.909374Q324.39062 30.01875 324.70312 29.26875Q325.03125 28.503124 325.64062 28.096874Q326.25 27.690624 327.07812 27.690624Q328.1875 27.690624 328.90625 28.58125L328.90625 27.83125L329.875 27.83125L329.875 33.20625Q329.875 34.659374 329.57812 35.26875Q329.28125 35.878124 328.64062 36.221874Q328.0 36.58125 327.0625 36.58125Q325.95312 36.58125 325.26562 36.08125Q324.57812 35.58125 324.59375 34.565624ZM325.46875 30.83125Q325.46875 32.05 325.95312 32.6125Q326.4375 33.175 327.17188 33.175Q327.90625 33.175 328.39062 32.6125Q328.89062 32.05 328.89062 30.8625Q328.89062 29.721874 328.375 29.14375Q327.875 28.565624 327.15625 28.565624Q326.45312 28.565624 325.95312 29.14375Q325.46875 29.70625 325.46875 30.83125ZM336.04688 32.05L337.14062 32.175Q336.89062 33.128124 336.1875 33.659374Q335.48438 34.190624 334.40625 34.190624Q333.04688 34.190624 332.23438 33.346874Q331.4375 32.503124 331.4375 30.9875Q331.4375 29.425 332.25 28.565624Q333.0625 27.690624 334.34375 27.690624Q335.59375 27.690624 336.375 28.534374Q337.17188 29.378124 337.17188 30.925Q337.17188 31.01875 337.17188 31.20625L332.53125 31.20625Q332.59375 32.2375 333.10938 32.784374Q333.625 33.315624 334.40625 33.315624Q334.98438 33.315624 335.39062 33.01875Q335.8125 32.70625 336.04688 32.05ZM332.59375 30.346874L336.0625 30.346874Q336.0 29.55 335.67188 29.159374Q335.15625 28.55 334.35938 28.55Q333.625 28.55 333.125 29.034374Q332.64062 29.51875 332.59375 30.346874Z" fill-rule="nonzero"/><path fill="#ea4335" d="M354.0 25.05C354.0 24.497715 354.44772 24.05 355.0 24.05L365.0 24.05C365.55228 24.05 366.0 24.497715 366.0 25.05L366.0 35.05C366.0 35.602283 365.55228 36.05 365.0 36.05L355.0 36.05C354.44772 36.05 354.0 35.602283 354.0 35.05Z" fill-rule="nonzero"/><path fill="#1a1a1a" d="M377.375 34.05L374.04688 25.45625L375.28125 25.45625L377.51562 31.70625Q377.78125 32.45625 377.96875 33.1125Q378.17188 32.409374 378.4375 31.70625L380.75 25.45625L381.90625 25.45625L378.54688 34.05L377.375 34.05ZM381.40625 30.940624Q381.40625 29.20625 382.35938 28.378124Q383.15625 27.690624 384.3125 27.690624Q385.59375 27.690624 386.40625 28.534374Q387.23438 29.3625 387.23438 30.846874Q387.23438 32.05 386.875 32.7375Q386.51562 33.425 385.8125 33.815624Q385.125 34.190624 384.3125 34.190624Q383.01562 34.190624 382.20312 33.3625Q381.40625 32.51875 381.40625 30.940624ZM382.48438 30.940624Q382.48438 32.128124 383.0 32.721874Q383.53125 33.315624 384.3125 33.315624Q385.10938 33.315624 385.625 32.721874Q386.14062 32.128124 386.14062 30.909374Q386.14062 29.753124 385.60938 29.159374Q385.09375 28.565624 384.3125 28.565624Q383.53125 28.565624 383.0 29.159374Q382.48438 29.7375 382.48438 30.940624ZM388.79688 26.675L388.79688 25.45625L389.85938 25.45625L389.85938 26.675L388.79688 26.675ZM388.79688 34.05L388.79688 27.83125L389.85938 27.83125L389.85938 34.05L388.79688 34.05ZM395.82812 34.05L395.82812 33.26875Q395.23438 34.190624 394.09375 34.190624Q393.34375 34.190624 392.71875 33.784374Q392.09375 33.3625 391.75 32.628124Q391.40625 31.89375 391.40625 30.940624Q391.40625 30.01875 391.71875 29.253124Q392.03125 28.4875 392.65625 28.096874Q393.28125 27.690624 394.04688 27.690624Q394.60938 27.690624 395.04688 27.925Q395.48438 28.159374 395.76562 28.534374L395.76562 25.45625L396.8125 25.45625L396.8125 34.05L395.82812 34.05ZM392.5 30.940624Q392.5 32.14375 393.0 32.7375Q393.5 33.315624 394.1875 33.315624Q394.875 33.315624 395.35938 32.753124Q395.84375 32.190624 395.84375 31.034374Q395.84375 29.753124 395.34375 29.159374Q394.85938 28.565624 394.14062 28.565624Q393.4375 28.565624 392.96875 29.14375Q392.5 29.70625 392.5 30.940624ZM397.8125 36.440624L397.8125 35.675L404.8125 35.675L404.8125 36.440624L397.8125 36.440624ZM408.10938 34.05L408.10938 26.471874L405.28125 26.471874L405.28125 25.45625L412.09375 25.45625L412.09375 26.471874L409.25 26.471874L409.25 34.05L408.10938 34.05ZM412.78125 34.05L412.78125 27.83125L413.73438 27.83125L413.73438 28.76875Q414.09375 28.1125 414.39062 27.909374Q414.70312 27.690624 415.07812 27.690624Q415.60938 27.690624 416.15625 28.01875L415.79688 29.003124Q415.40625 28.76875 415.03125 28.76875Q414.67188 28.76875 414.39062 28.9875Q414.125 29.190624 414.01562 29.565624Q413.82812 30.128124 413.82812 30.784374L413.82812 34.05L412.78125 34.05ZM416.79688 26.675L416.79688 25.45625L417.85938 25.45625L417.85938 26.675L416.79688 26.675ZM416.79688 34.05L416.79688 27.83125L417.85938 27.83125L417.85938 34.05L416.79688 34.05ZM419.59375 34.565624L420.625 34.721874Q420.6875 35.190624 420.98438 35.409374Q421.375 35.70625 422.04688 35.70625Q422.78125 35.70625 423.17188 35.409374Q423.57812 35.1125 423.71875 34.596874Q423.8125 34.26875 423.79688 33.2375Q423.10938 34.05 422.07812 34.05Q420.79688 34.05 420.09375 33.128124Q419.39062 32.190624 419.39062 30.909374Q419.39062 30.01875 419.70312 29.26875Q420.03125 28.503124 420.64062 28.096874Q421.25 27.690624 422.07812 27.690624Q423.1875 27.690624 423.90625 28.58125L423.90625 27.83125L424.875 27.83125L424.875 33.20625Q424.875 34.659374 424.57812 35.26875Q424.28125 35.878124 423.64062 36.221874Q423.0 36.58125 422.0625 36.58125Q420.95312 36.58125 420.26562 36.08125Q419.57812 35.58125 419.59375 34.565624ZM420.46875 30.83125Q420.46875 32.05 420.95312 32.6125Q421.4375 33.175 422.17188 33.175Q422.90625 33.175 423.39062 32.6125Q423.89062 32.05 423.89062 30.8625Q423.89062 29.721874 423.375 29.14375Q422.875 28.565624 422.15625 28.565624Q421.45312 28.565624 420.95312 29.14375Q420.46875 29.70625 420.46875 30.83125ZM426.59375 34.565624L427.625 34.721874Q427.6875 35.190624 427.98438 35.409374Q428.375 35.70625 429.04688 35.70625Q429.78125 35.70625 430.17188 35.409374Q430.57812 35.1125 430.71875 34.596874Q430.8125 34.26875 430.79688 33.2375Q430.10938 34.05 429.07812 34.05Q427.79688 34.05 427.09375 33.128124Q426.39062 32.190624 426.39062 30.909374Q426.39062 30.01875 426.70312 29.26875Q427.03125 28.503124 427.64062 28.096874Q428.25 27.690624 429.07812 27.690624Q430.1875 27.690624 430.90625 28.58125L430.90625 27.83125L431.875 27.83125L431.875 33.20625Q431.875 34.659374 431.57812 35.26875Q431.28125 35.878124 430.64062 36.221874Q430.0 36.58125 429.0625 36.58125Q427.95312 36.58125 427.26562 36.08125Q426.57812 35.58125 426.59375 34.565624ZM427.46875 30.83125Q427.46875 32.05 427.95312 32.6125Q428.4375 33.175 429.17188 33.175Q429.90625 33.175 430.39062 32.6125Q430.89062 32.05 430.89062 30.8625Q430.89062 29.721874 430.375 29.14375Q429.875 28.565624 429.15625 28.565624Q428.45312 28.565624 427.95312 29.14375Q427.46875 29.70625 427.46875 30.83125ZM438.04688 32.05L439.14062 32.175Q438.89062 33.128124 438.1875 33.659374Q437.48438 34.190624 436.40625 34.190624Q435.04688 34.190624 434.23438 33.346874Q433.4375 32.503124 433.4375 30.9875Q433.4375 29.425 434.25 28.565624Q435.0625 27.690624 436.34375 27.690624Q437.59375 27.690624 438.375 28.534374Q439.17188 29.378124 439.17188 30.925Q439.17188 31.01875 439.17188 31.20625L434.53125 31.20625Q434.59375 32.2375 435.10938 32.784374Q435.625 33.315624 436.40625 33.315624Q436.98438 33.315624 437.39062 33.01875Q437.8125 32.70625 438.04688 32.05ZM434.59375 30.346874L438.0625 30.346874Q438.0 29.55 437.67188 29.159374Q437.15625 28.55 436.35938 28.55Q435.625 28.55 435.125 29.034374Q434.64062 29.51875 434.59375 30.346874ZM440.78125 34.05L440.78125 27.83125L441.73438 27.83125L441.73438 28.76875Q442.09375 28.1125 442.39062 27.909374Q442.70312 27.690624 443.07812 27.690624Q443.60938 27.690624 444.15625 28.01875L443.79688 29.003124Q443.40625 28.76875 443.03125 28.76875Q442.67188 28.76875 442.39062 28.9875Q442.125 29.190624 442.01562 29.565624Q441.82812 30.128124 441.82812 30.784374L441.82812 34.05L440.78125 34.05ZM447.54688 31.284374L448.60938 31.190624Q448.6875 31.846874 448.96875 32.253124Q449.25 32.659374 449.82812 32.925Q450.42188 33.175 451.15625 33.175Q451.79688 33.175 452.29688 32.9875Q452.79688 32.784374 453.03125 32.45625Q453.28125 32.1125 453.28125 31.721874Q453.28125 31.315624 453.04688 31.01875Q452.8125 30.70625 452.28125 30.503124Q451.92188 30.3625 450.73438 30.08125Q449.5625 29.8 449.09375 29.55Q448.46875 29.221874 448.17188 28.753124Q447.875 28.26875 447.875 27.675Q447.875 27.034374 448.23438 26.471874Q448.60938 25.89375 449.3125 25.6125Q450.03125 25.315624 450.89062 25.315624Q451.84375 25.315624 452.57812 25.628124Q453.3125 25.925 453.70312 26.534374Q454.09375 27.128124 454.125 27.878124L453.03125 27.95625Q452.9375 27.14375 452.42188 26.7375Q451.92188 26.315624 450.9375 26.315624Q449.90625 26.315624 449.4375 26.690624Q448.96875 27.065624 448.96875 27.596874Q448.96875 28.065624 449.29688 28.3625Q449.625 28.659374 451.0 28.971874Q452.39062 29.284374 452.90625 29.51875Q453.65625 29.878124 454.01562 30.409374Q454.375 30.925 454.375 31.628124Q454.375 32.315624 453.98438 32.925Q453.59375 33.51875 452.85938 33.8625Q452.125 34.190624 451.20312 34.190624Q450.03125 34.190624 449.23438 33.8625Q448.45312 33.51875 448.0 32.83125Q447.5625 32.14375 447.54688 31.284374ZM458.09375 33.1125L458.25 34.034374Q457.79688 34.128124 457.45312 34.128124Q456.875 34.128124 456.5625 33.95625Q456.25 33.76875 456.10938 33.471874Q455.98438 33.175 455.98438 32.221874L455.98438 28.64375L455.21875 28.64375L455.21875 27.83125L455.98438 27.83125L455.98438 26.284374L457.03125 25.659374L457.03125 27.83125L458.09375 27.83125L458.09375 28.64375L457.03125 28.64375L457.03125 32.284374Q457.03125 32.7375 457.07812 32.8625Q457.14062 32.9875 457.26562 33.065624Q457.39062 33.14375 457.625 33.14375Q457.8125 33.14375 458.09375 33.1125ZM462.85938 33.284374Q462.26562 33.784374 461.71875 33.9875Q461.1875 34.190624 460.5625 34.190624Q459.53125 34.190624 458.98438 33.690624Q458.4375 33.190624 458.4375 32.409374Q458.4375 31.95625 458.64062 31.58125Q458.84375 31.190624 459.1875 30.971874Q459.53125 30.7375 459.95312 30.628124Q460.25 30.534374 460.89062 30.45625Q462.15625 30.315624 462.76562 30.096874Q462.76562 29.878124 462.76562 29.83125Q462.76562 29.175 462.46875 28.909374Q462.0625 28.565624 461.26562 28.565624Q460.53125 28.565624 460.17188 28.83125Q459.8125 29.08125 459.64062 29.7375L458.60938 29.596874Q458.75 28.940624 459.07812 28.534374Q459.40625 28.128124 460.01562 27.909374Q460.625 27.690624 461.42188 27.690624Q462.21875 27.690624 462.71875 27.878124Q463.21875 28.065624 463.45312 28.346874Q463.6875 28.628124 463.78125 29.065624Q463.82812 29.33125 463.82812 30.034374L463.82812 31.440624Q463.82812 32.909374 463.89062 33.3Q463.96875 33.690624 464.17188 34.05L463.0625 34.05Q462.90625 33.721874 462.85938 33.284374ZM462.76562 30.925Q462.1875 31.159374 461.04688 31.33125Q460.39062 31.425 460.125 31.55Q459.85938 31.659374 459.70312 31.878124Q459.5625 32.096874 459.5625 32.378124Q459.5625 32.8 459.875 33.08125Q460.20312 33.3625 460.8125 33.3625Q461.42188 33.3625 461.89062 33.096874Q462.375 32.83125 462.59375 32.3625Q462.76562 32.003124 462.76562 31.315624L462.76562 30.925ZM469.85938 31.76875L470.89062 31.909374Q470.71875 32.971874 470.01562 33.58125Q469.3125 34.190624 468.29688 34.190624Q467.01562 34.190624 466.23438 33.3625Q465.46875 32.51875 465.46875 30.95625Q465.46875 29.95625 465.79688 29.20625Q466.14062 28.440624 466.8125 28.065624Q467.5 27.690624 468.3125 27.690624Q469.3125 27.690624 469.95312 28.20625Q470.60938 28.70625 470.79688 29.659374L469.76562 29.815624Q469.625 29.190624 469.25 28.878124Q468.875 28.55 468.34375 28.55Q467.54688 28.55 467.04688 29.128124Q466.54688 29.690624 466.54688 30.925Q466.54688 32.190624 467.03125 32.753124Q467.51562 33.315624 468.28125 33.315624Q468.90625 33.315624 469.3125 32.940624Q469.73438 32.565624 469.85938 31.76875ZM471.79688 34.05L471.79688 25.45625L472.85938 25.45625L472.85938 30.3625L475.34375 27.83125L476.71875 27.83125L474.32812 30.128124L476.95312 34.05L475.65625 34.05L473.59375 30.8625L472.85938 31.58125L472.85938 34.05L471.79688 34.05ZM483.10938 34.05L483.10938 26.471874L480.28125 26.471874L480.28125 25.45625L487.09375 25.45625L487.09375 26.471874L484.25 26.471874L484.25 34.05L483.10938 34.05ZM487.78125 34.05L487.78125 27.83125L488.73438 27.83125L488.73438 28.76875Q489.09375 28.1125 489.39062 27.909374Q489.70312 27.690624 490.07812 27.690624Q490.60938 27.690624 491.15625 28.01875L490.79688 29.003124Q490.40625 28.76875 490.03125 28.76875Q489.67188 28.76875 489.39062 28.9875Q489.125 29.190624 489.01562 29.565624Q488.82812 30.128124 488.82812 30.784374L488.82812 34.05L487.78125 34.05ZM495.85938 33.284374Q495.26562 33.784374 494.71875 33.9875Q494.1875 34.190624 493.5625 34.190624Q492.53125 34.190624 491.98438 33.690624Q491.4375 33.190624 491.4375 32.409374Q491.4375 31.95625 491.64062 31.58125Q491.84375 31.190624 492.1875 30.971874Q492.53125 30.7375 492.95312 30.628124Q493.25 30.534374 493.89062 30.45625Q495.15625 30.315624 495.76562 30.096874Q495.76562 29.878124 495.76562 29.83125Q495.76562 29.175 495.46875 28.909374Q495.0625 28.565624 494.26562 28.565624Q493.53125 28.565624 493.17188 28.83125Q492.8125 29.08125 492.64062 29.7375L491.60938 29.596874Q491.75 28.940624 492.07812 28.534374Q492.40625 28.128124 493.01562 27.909374Q493.625 27.690624 494.42188 27.690624Q495.21875 27.690624 495.71875 27.878124Q496.21875 28.065624 496.45312 28.346874Q496.6875 28.628124 496.78125 29.065624Q496.82812 29.33125 496.82812 30.034374L496.82812 31.440624Q496.82812 32.909374 496.89062 33.3Q496.96875 33.690624 497.17188 34.05L496.0625 34.05Q495.90625 33.721874 495.85938 33.284374ZM495.76562 30.925Q495.1875 31.159374 494.04688 31.33125Q493.39062 31.425 493.125 31.55Q492.85938 31.659374 492.70312 31.878124Q492.5625 32.096874 492.5625 32.378124Q492.5625 32.8 492.875 33.08125Q493.20312 33.3625 493.8125 33.3625Q494.42188 33.3625 494.89062 33.096874Q495.375 32.83125 495.59375 32.3625Q495.76562 32.003124 495.76562 31.315624L495.76562 30.925ZM502.85938 31.76875L503.89062 31.909374Q503.71875 32.971874 503.01562 33.58125Q502.3125 34.190624 501.29688 34.190624Q500.01562 34.190624 499.23438 33.3625Q498.46875 32.51875 498.46875 30.95625Q498.46875 29.95625 498.79688 29.20625Q499.14062 28.440624 499.8125 28.065624Q500.5 27.690624 501.3125 27.690624Q502.3125 27.690624 502.95312 28.20625Q503.60938 28.70625 503.79688 29.659374L502.76562 29.815624Q502.625 29.190624 502.25 28.878124Q501.875 28.55 501.34375 28.55Q500.54688 28.55 500.04688 29.128124Q499.54688 29.690624 499.54688 30.925Q499.54688 32.190624 500.03125 32.753124Q500.51562 33.315624 501.28125 33.315624Q501.90625 33.315624 502.3125 32.940624Q502.73438 32.565624 502.85938 31.76875ZM509.04688 32.05L510.14062 32.175Q509.89062 33.128124 509.1875 33.659374Q508.48438 34.190624 507.40625 34.190624Q506.04688 34.190624 505.23438 33.346874Q504.4375 32.503124 504.4375 30.9875Q504.4375 29.425 505.25 28.565624Q506.0625 27.690624 507.34375 27.690624Q508.59375 27.690624 509.375 28.534374Q510.17188 29.378124 510.17188 30.925Q510.17188 31.01875 510.17188 31.20625L505.53125 31.20625Q505.59375 32.2375 506.10938 32.784374Q506.625 33.315624 507.40625 33.315624Q507.98438 33.315624 508.39062 33.01875Q508.8125 32.70625 509.04688 32.05ZM505.59375 30.346874L509.0625 30.346874Q509.0 29.55 508.67188 29.159374Q508.15625 28.55 507.35938 28.55Q506.625 28.55 506.125 29.034374Q505.64062 29.51875 505.59375 30.346874ZM521.0625 31.034374L522.1875 31.33125Q521.8281 32.721874 520.90625 33.45625Q519.9844 34.190624 518.6406 34.190624Q517.25 34.190624 516.375 33.628124Q515.5 33.065624 515.0469 32.003124Q514.59375 30.925 514.59375 29.690624Q514.59375 28.346874 515.1094 27.346874Q515.625 26.346874 516.5625 25.83125Q517.5156 25.315624 518.65625 25.315624Q519.9375 25.315624 520.8125 25.971874Q521.7031 26.628124 522.0469 27.815624L520.9219 28.08125Q520.625 27.14375 520.0469 26.721874Q519.4844 26.284374 518.625 26.284374Q517.6406 26.284374 516.96875 26.76875Q516.3125 27.2375 516.03125 28.034374Q515.7656 28.83125 515.7656 29.690624Q515.7656 30.784374 516.0781 31.596874Q516.40625 32.409374 517.0781 32.815624Q517.75 33.221874 518.5469 33.221874Q519.5 33.221874 520.15625 32.675Q520.8281 32.128124 521.0625 31.034374ZM523.40625 30.940624Q523.40625 29.20625 524.3594 28.378124Q525.15625 27.690624 526.3125 27.690624Q527.59375 27.690624 528.40625 28.534374Q529.2344 29.3625 529.2344 30.846874Q529.2344 32.05 528.875 32.7375Q528.5156 33.425 527.8125 33.815624Q527.125 34.190624 526.3125 34.190624Q525.0156 34.190624 524.2031 33.3625Q523.40625 32.51875 523.40625 30.940624ZM524.4844 30.940624Q524.4844 32.128124 525.0 32.721874Q525.53125 33.315624 526.3125 33.315624Q527.1094 33.315624 527.625 32.721874Q528.1406 32.128124 528.1406 30.909374Q528.1406 29.753124 527.6094 29.159374Q527.09375 28.565624 526.3125 28.565624Q525.53125 28.565624 525.0 29.159374Q524.4844 29.7375 524.4844 30.940624ZM530.7656 34.05L530.7656 25.45625L531.8281 25.45625L531.8281 34.05L530.7656 34.05ZM533.7656 34.05L533.7656 25.45625L534.8281 25.45625L534.8281 34.05L533.7656 34.05ZM541.0469 32.05L542.1406 32.175Q541.8906 33.128124 541.1875 33.659374Q540.4844 34.190624 539.40625 34.190624Q538.0469 34.190624 537.2344 33.346874Q536.4375 32.503124 536.4375 30.9875Q536.4375 29.425 537.25 28.565624Q538.0625 27.690624 539.34375 27.690624Q540.59375 27.690624 541.375 28.534374Q542.1719 29.378124 542.1719 30.925Q542.1719 31.01875 542.1719 31.20625L537.53125 31.20625Q537.59375 32.2375 538.1094 32.784374Q538.625 33.315624 539.40625 33.315624Q539.9844 33.315624 540.3906 33.01875Q540.8125 32.70625 541.0469 32.05ZM537.59375 30.346874L541.0625 30.346874Q541.0 29.55 540.6719 29.159374Q540.15625 28.55 539.3594 28.55Q538.625 28.55 538.125 29.034374Q537.6406 29.51875 537.59375 30.346874ZM547.8594 31.76875L548.8906 31.909374Q548.71875 32.971874 548.0156 33.58125Q547.3125 34.190624 546.2969 34.190624Q545.0156 34.190624 544.2344 33.3625Q543.46875 32.51875 543.46875 30.95625Q543.46875 29.95625 543.7969 29.20625Q544.1406 28.440624 544.8125 28.065624Q545.5 27.690624 546.3125 27.690624Q547.3125 27.690624 547.9531 28.20625Q548.6094 28.70625 548.7969 29.659374L547.7656 29.815624Q547.625 29.190624 547.25 28.878124Q546.875 28.55 546.34375 28.55Q545.5469 28.55 545.0469 29.128124Q544.5469 29.690624 544.5469 30.925Q544.5469 32.190624 545.03125 32.753124Q545.5156 33.315624 546.28125 33.315624Q546.90625 33.315624 547.3125 32.940624Q547.7344 32.565624 547.8594 31.76875ZM552.09375 33.1125L552.25 34.034374Q551.7969 34.128124 551.4531 34.128124Q550.875 34.128124 550.5625 33.95625Q550.25 33.76875 550.1094 33.471874Q549.9844 33.175 549.9844 32.221874L549.9844 28.64375L549.21875 28.64375L549.21875 27.83125L549.9844 27.83125L549.9844 26.284374L551.03125 25.659374L551.03125 27.83125L552.09375 27.83125L552.09375 28.64375L551.03125 28.64375L551.03125 32.284374Q551.03125 32.7375 551.0781 32.8625Q551.1406 32.9875 551.2656 33.065624Q551.3906 33.14375 551.625 33.14375Q551.8125 33.14375 552.09375 33.1125ZM552.7969 26.675L552.7969 25.45625L553.8594 25.45625L553.8594 26.675L552.7969 26.675ZM552.7969 34.05L552.7969 27.83125L553.8594 27.83125L553.8594 34.05L552.7969 34.05ZM555.40625 30.940624Q555.40625 29.20625 556.3594 28.378124Q557.15625 27.690624 558.3125 27.690624Q559.59375 27.690624 560.40625 28.534374Q561.2344 29.3625 561.2344 30.846874Q561.2344 32.05 560.875 32.7375Q560.5156 33.425 559.8125 33.815624Q559.125 34.190624 558.3125 34.190624Q557.0156 34.190624 556.2031 33.3625Q555.40625 32.51875 555.40625 30.940624ZM556.4844 30.940624Q556.4844 32.128124 557.0 32.721874Q557.53125 33.315624 558.3125 33.315624Q559.1094 33.315624 559.625 32.721874Q560.1406 32.128124 560.1406 30.909374Q560.1406 29.753124 559.6094 29.159374Q559.09375 28.565624 558.3125 28.565624Q557.53125 28.565624 557.0 29.159374Q556.4844 29.7375 556.4844 30.940624ZM562.7969 34.05L562.7969 27.83125L563.7344 27.83125L563.7344 28.70625Q564.4219 27.690624 565.71875 27.690624Q566.28125 27.690624 566.75 27.89375Q567.2344 28.096874 567.46875 28.425Q567.7031 28.753124 567.7969 29.190624Q567.84375 29.4875 567.84375 30.221874L567.84375 34.05L566.7969 34.05L566.7969 30.26875Q566.7969 29.6125 566.6719 29.3Q566.5469 28.9875 566.2344 28.8Q565.9219 28.596874 565.5 28.596874Q564.8281 28.596874 564.3281 29.034374Q563.84375 29.45625 563.84375 30.64375L563.84375 34.05L562.7969 34.05Z" fill-rule="nonzero"/></svg>