<svg version="1.1" viewBox="0.0 0.0 745.0 461.0" fill="none" stroke="none" stroke-linecap="square" stroke-miterlimit="10" width="745" height="461" xmlns:xlink="http://www.w3.org/1999/xlink" xmlns="http://www.w3.org/2000/svg"><path fill="#ffffff" d="M0 0L745.0 0L745.0 461.0L0 461.0L0 0Z" fill-rule="nonzero"/><path stroke="#cccccc" stroke-width="1.0" stroke-linecap="butt" d="M190.5 56.5L190.5 419.5" fill-rule="nonzero"/><path stroke="#cccccc" stroke-width="1.0" stroke-linecap="butt" d="M288.5 56.5L288.5 419.5" fill-rule="nonzero"/><path stroke="#cccccc" stroke-width="1.0" stroke-linecap="butt" d="M387.5 56.5L387.5 419.5" fill-rule="nonzero"/><path stroke="#cccccc" stroke-width="1.0" stroke-linecap="butt" d="M485.5 56.5L485.5 419.5" fill-rule="nonzero"/><path stroke="#cccccc" stroke-width="1.0" stroke-linecap="butt" d="M584.5 56.5L584.5 419.5" fill-rule="nonzero"/><path stroke="#cccccc" stroke-width="1.0" stroke-linecap="butt" d="M682.5 56.5L682.5 419.5" fill-rule="nonzero"/><path stroke="#333333" stroke-width="1.0" stroke-linecap="butt" d="M101.5 419.5L721.5 419.5" fill-rule="nonzero"/><path stroke="#cccccc" stroke-width="1.0" stroke-linecap="butt" d="M101.5 329.5L721.5 329.5" fill-rule="nonzero"/><path stroke="#cccccc" stroke-width="1.0" stroke-linecap="butt" d="M101.5 238.5L721.5 238.5" fill-rule="nonzero"/><path stroke="#cccccc" stroke-width="1.0" stroke-linecap="butt" d="M101.5 147.5L721.5 147.5" fill-rule="nonzero"/><path stroke="#cccccc" stroke-width="1.0" stroke-linecap="butt" d="M101.5 56.5L721.5 56.5" fill-rule="nonzero"/><clipPath id="id_0"><path d="M101.5 56.416668L721.95 56.416668L721.95 419.95L101.5 419.95L101.5 56.416668Z" clip-rule="nonzero"/></clipPath><path stroke="#4285f4" stroke-width="2.0" stroke-linecap="butt" clip-path="url(#id_0)" d="M101.5 405.74164L111.34841 404.34567L131.04524 401.5628L170.43889 396.71777L249.2262 383.2816L406.80078 360.98572L721.95 323.87634" fill-rule="nonzero"/><path stroke="#ea4335" stroke-width="2.0" stroke-linecap="butt" clip-path="url(#id_0)" d="M101.5 394.9738L111.34841 390.77853L131.04524 381.45282L170.43889 363.61703L249.2262 326.2554L406.80078 258.08597L721.95 133.14789" fill-rule="nonzero"/><path fill="#000000" fill-opacity="0.0" clip-path="url(#id_0)" d="M104.5 405.74164C104.5 407.3985 103.15685 408.74164 101.5 408.74164C99.84315 408.74164 98.5 407.3985 98.5 405.74164C98.5 404.08478 99.84315 402.74164 101.5 402.74164C103.15685 402.74164 104.5 404.08478 104.5 405.74164Z" fill-rule="nonzero"/><path fill="#000000" fill-opacity="0.0" clip-path="url(#id_0)" d="M114.34841 404.34567C114.34841 406.0025 113.005264 407.34567 111.34841 407.34567C109.69156 407.34567 108.34841 406.0025 108.34841 404.34567C108.34841 402.6888 109.69156 401.34567 111.34841 401.34567C113.005264 401.34567 114.34841 402.6888 114.34841 404.34567Z" fill-rule="nonzero"/><path fill="#000000" fill-opacity="0.0" clip-path="url(#id_0)" d="M134.04524 401.5628C134.04524 403.21967 132.70209 404.5628 131.04524 404.5628C129.38838 404.5628 128.04524 403.21967 128.04524 401.5628C128.04524 399.90594 129.38838 398.5628 131.04524 398.5628C132.70209 398.5628 134.04524 399.90594 134.04524 401.5628Z" fill-rule="nonzero"/><path fill="#000000" fill-opacity="0.0" clip-path="url(#id_0)" d="M173.43889 396.71777C173.43889 398.37463 172.09575 399.71777 170.43889 399.71777C168.78203 399.71777 167.43889 398.37463 167.43889 396.71777C167.43889 395.0609 168.78203 393.71777 170.43889 393.71777C172.09575 393.71777 173.43889 395.0609 173.43889 396.71777Z" fill-rule="nonzero"/><path fill="#000000" fill-opacity="0.0" clip-path="url(#id_0)" d="M252.2262 383.2816C252.2262 384.93845 250.88304 386.2816 249.2262 386.2816C247.56934 386.2816 246.2262 384.93845 246.2262 383.2816C246.2262 381.62476 247.56934 380.2816 249.2262 380.2816C250.88304 380.2816 252.2262 381.62476 252.2262 383.2816Z" fill-rule="nonzero"/><path fill="#000000" fill-opacity="0.0" clip-path="url(#id_0)" d="M409.80078 360.98572C409.80078 362.64258 408.45764 363.98572 406.80078 363.98572C405.14395 363.98572 403.80078 362.64258 403.80078 360.98572C403.80078 359.32886 405.14395 357.98572 406.80078 357.98572C408.45764 357.98572 409.80078 359.32886 409.80078 360.98572Z" fill-rule="nonzero"/><path fill="#000000" fill-opacity="0.0" clip-path="url(#id_0)" d="M724.95 323.87634C724.95 325.53317 723.6069 326.87634 721.95 326.87634C720.29315 326.87634 718.95 325.53317 718.95 323.87634C718.95 322.21948 720.29315 320.87634 721.95 320.87634C723.6069 320.87634 724.95 322.21948 724.95 323.87634Z" fill-rule="nonzero"/><path fill="#000000" fill-opacity="0.0" clip-path="url(#id_0)" d="M104.5 394.9738C104.5 396.63065 103.15685 397.9738 101.5 397.9738C99.84315 397.9738 98.5 396.63065 98.5 394.9738C98.5 393.31693 99.84315 391.9738 101.5 391.9738C103.15685 391.9738 104.5 393.31693 104.5 394.9738Z" fill-rule="nonzero"/><path fill="#000000" fill-opacity="0.0" clip-path="url(#id_0)" d="M114.34841 390.77853C114.34841 392.4354 113.005264 393.77853 111.34841 393.77853C109.69156 393.77853 108.34841 392.4354 108.34841 390.77853C108.34841 389.12167 109.69156 387.77853 111.34841 387.77853C113.005264 387.77853 114.34841 389.12167 114.34841 390.77853Z" fill-rule="nonzero"/><path fill="#000000" fill-opacity="0.0" clip-path="url(#id_0)" d="M134.04524 381.45282C134.04524 383.10968 132.70209 384.45282 131.04524 384.45282C129.38838 384.45282 128.04524 383.10968 128.04524 381.45282C128.04524 379.79596 129.38838 378.45282 131.04524 378.45282C132.70209 378.45282 134.04524 379.79596 134.04524 381.45282Z" fill-rule="nonzero"/><path fill="#000000" fill-opacity="0.0" clip-path="url(#id_0)" d="M173.43889 363.61703C173.43889 365.2739 172.09575 366.61703 170.43889 366.61703C168.78203 366.61703 167.43889 365.2739 167.43889 363.61703C167.43889 361.96017 168.78203 360.61703 170.43889 360.61703C172.09575 360.61703 173.43889 361.96017 173.43889 363.61703Z" fill-rule="nonzero"/><path fill="#000000" fill-opacity="0.0" clip-path="url(#id_0)" d="M252.2262 326.2554C252.2262 327.91226 250.88304 329.2554 249.2262 329.2554C247.56934 329.2554 246.2262 327.91226 246.2262 326.2554C246.2262 324.59854 247.56934 323.2554 249.2262 323.2554C250.88304 323.2554 252.2262 324.59854 252.2262 326.2554Z" fill-rule="nonzero"/><path fill="#000000" fill-opacity="0.0" clip-path="url(#id_0)" d="M409.80078 258.08597C409.80078 259.7428 408.45764 261.08597 406.80078 261.08597C405.14395 261.08597 403.80078 259.7428 403.80078 258.08597C403.80078 256.4291 405.14395 255.08595 406.80078 255.08595C408.45764 255.08595 409.80078 256.4291 409.80078 258.08597Z" fill-rule="nonzero"/><path fill="#000000" fill-opacity="0.0" clip-path="url(#id_0)" d="M724.95 133.14789C724.95 134.80475 723.6069 136.14789 721.95 136.14789C720.29315 136.14789 718.95 134.80475 718.95 133.14789C718.95 131.49103 720.29315 130.14789 721.95 130.14789C723.6069 130.14789 724.95 131.49103 724.95 133.14789Z" fill-rule="nonzero"/><path fill="#000000" d="M33.06105 267.7861L25.482927 267.7861L25.482927 270.61423L24.467302 270.61423L24.467302 263.80173L25.482927 263.80173L25.482927 266.64548L33.06105 266.64548L33.06105 267.7861ZM25.686052 263.0986L24.467302 263.0986L24.467302 262.0361L25.686052 262.0361L25.686052 263.0986ZM33.06105 263.0986L26.842302 263.0986L26.842302 262.0361L33.06105 262.0361L33.06105 263.0986ZM33.06105 260.0986L26.842302 260.0986L26.842302 259.1611L27.717302 259.1611Q27.248552 258.86423 26.982927 258.37985Q26.701677 257.89548 26.701677 257.27048Q26.701677 256.58298 26.982927 256.14548Q27.264177 255.69235 27.779802 255.52048Q26.701677 254.77048 26.701677 253.5986Q26.701677 252.6611 27.217302 252.17673Q27.717302 251.67673 28.795427 251.67673L33.06105 251.67673L33.06105 252.7236L29.139177 252.7236Q28.514177 252.7236 28.232927 252.83298Q27.951677 252.92673 27.779802 253.19235Q27.607927 253.45798 27.607927 253.83298Q27.607927 254.48923 28.045427 254.92673Q28.482927 255.3486 29.451677 255.3486L33.06105 255.3486L33.06105 256.4111L29.014177 256.4111Q28.311052 256.4111 27.967302 256.67673Q27.607927 256.92673 27.607927 257.50485Q27.607927 257.95798 27.842302 258.33298Q28.076677 258.70798 28.529802 258.87985Q28.982927 259.05173 29.826677 259.05173L33.06105 259.05173L33.06105 260.0986ZM31.061052 244.8486L31.186052 243.75485Q32.139175 244.00485 32.670425 244.70798Q33.201675 245.4111 33.201675 246.48923Q33.201675 247.8486 32.357925 248.6611Q31.514177 249.45798 29.998552 249.45798Q28.436052 249.45798 27.576677 248.64548Q26.701677 247.83298 26.701677 246.55173Q26.701677 245.30173 27.545427 244.52048Q28.389177 243.7236 29.936052 243.7236Q30.029802 243.7236 30.217302 243.7236L30.217302 248.36423Q31.248552 248.30173 31.795427 247.7861Q32.326675 247.27048 32.326675 246.48923Q32.326675 245.9111 32.0298 245.50485Q31.717302 245.08298 31.061052 244.8486ZM29.357927 248.30173L29.357927 244.83298Q28.561052 244.89548 28.170427 245.2236Q27.561052 245.73923 27.561052 246.5361Q27.561052 247.27048 28.045427 247.77048Q28.529802 248.25485 29.357927 248.30173ZM35.5923 237.08298Q34.482925 237.95798 33.014175 238.56735Q31.529802 239.1611 29.951677 239.1611Q28.561052 239.1611 27.279802 238.7236Q25.795427 238.19235 24.326677 237.08298L24.326677 236.33298Q25.545427 237.0361 26.061052 237.27048Q26.873552 237.62985 27.748552 237.83298Q28.842302 238.08298 29.951677 238.08298Q32.7798 238.08298 35.5923 236.33298L35.5923 237.08298ZM33.06105 235.0986L26.842302 235.0986L26.842302 234.1611L27.717302 234.1611Q26.701677 233.4736 26.701677 232.17673Q26.701677 231.61423 26.904802 231.14548Q27.107927 230.6611 27.436052 230.42673Q27.764177 230.19235 28.201677 230.0986Q28.498552 230.05173 29.232927 230.05173L33.06105 230.05173L33.06105 231.0986L29.279802 231.0986Q28.623552 231.0986 28.311052 231.2236Q27.998552 231.3486 27.811052 231.6611Q27.607927 231.9736 27.607927 232.39548Q27.607927 233.06735 28.045427 233.56735Q28.467302 234.05173 29.654802 234.05173L33.06105 234.05173L33.06105 235.0986ZM31.201677 228.52048L31.045427 227.48923Q31.670427 227.39548 31.998552 227.00485Q32.326675 226.5986 32.326675 225.86423Q32.326675 225.14548 32.045425 224.80173Q31.748552 224.44235 31.342302 224.44235Q30.982927 224.44235 30.779802 224.75485Q30.639177 224.9736 30.420427 225.83298Q30.123552 226.98923 29.920427 227.44235Q29.701677 227.87985 29.326677 228.11423Q28.951677 228.3486 28.482927 228.3486Q28.076677 228.3486 27.717302 228.1611Q27.357927 227.9736 27.123552 227.64548Q26.951677 227.39548 26.826677 226.9736Q26.701677 226.55173 26.701677 226.05173Q26.701677 225.33298 26.920427 224.7861Q27.123552 224.2236 27.482927 223.95798Q27.842302 223.69235 28.436052 223.5986L28.576677 224.62985Q28.107927 224.69235 27.842302 225.0361Q27.561052 225.36423 27.561052 225.98923Q27.561052 226.70798 27.811052 227.02048Q28.045427 227.33298 28.373552 227.33298Q28.576677 227.33298 28.732927 227.20798Q28.904802 227.06735 29.014177 226.80173Q29.076677 226.64548 29.279802 225.86423Q29.592302 224.73923 29.779802 224.30173Q29.967302 223.86423 30.326677 223.61423Q30.686052 223.36423 31.232927 223.36423Q31.764177 223.36423 32.232925 223.67673Q32.68605 223.9736 32.951675 224.55173Q33.201675 225.12985 33.201675 225.86423Q33.201675 227.08298 32.701675 227.7236Q32.18605 228.3486 31.201677 228.52048ZM35.5923 220.4111L35.5923 221.1611Q32.7798 219.4111 29.951677 219.4111Q28.857927 219.4111 27.764177 219.6611Q26.889177 219.86423 26.076677 220.2236Q25.561052 220.45798 24.326677 221.1611L24.326677 220.4111Q25.795427 219.31735 27.279802 218.7861Q28.561052 218.33298 29.951677 218.33298Q31.529802 218.33298 33.014175 218.94235Q34.482925 219.55173 35.5923 220.4111Z" fill-rule="nonzero"/><path fill="#000000" d="M89.0 419.71564Q89.0 418.1844 89.3125 417.2625Q89.625 416.325 90.234375 415.825Q90.859375 415.325 91.796875 415.325Q92.484375 415.325 93.0 415.60626Q93.53125 415.8875 93.875 416.41876Q94.21875 416.9344 94.40625 417.6844Q94.59375 418.4344 94.59375 419.71564Q94.59375 421.23126 94.28125 422.15314Q93.984375 423.075 93.359375 423.59064Q92.75 424.09064 91.796875 424.09064Q90.5625 424.09064 89.84375 423.2Q89.0 422.1375 89.0 419.71564ZM90.078125 419.71564Q90.078125 421.825 90.578125 422.52814Q91.078125 423.23126 91.796875 423.23126Q92.53125 423.23126 93.015625 422.52814Q93.515625 421.825 93.515625 419.71564Q93.515625 417.59064 93.015625 416.90314Q92.53125 416.2 91.78125 416.2Q91.0625 416.2 90.625 416.8094Q90.078125 417.59064 90.078125 419.71564Z" fill-rule="nonzero"/><path fill="#000000" d="M58.0 330.81668L59.109375 330.72293Q59.234375 331.53543 59.671875 331.94168Q60.125 332.34793 60.765625 332.34793Q61.515625 332.34793 62.046875 331.7698Q62.578125 331.19168 62.578125 330.25418Q62.578125 329.34793 62.0625 328.8323Q61.5625 328.30106 60.734375 328.30106Q60.234375 328.30106 59.8125 328.53543Q59.40625 328.7698 59.171875 329.12918L58.1875 329.00418L59.015625 324.59793L63.296875 324.59793L63.296875 325.59793L59.859375 325.59793L59.40625 327.91043Q60.171875 327.36356 61.015625 327.36356Q62.140625 327.36356 62.90625 328.1448Q63.6875 328.92606 63.6875 330.16043Q63.6875 331.31668 63.015625 332.17606Q62.1875 333.2073 60.765625 333.2073Q59.59375 333.2073 58.84375 332.55106Q58.109375 331.8948 58.0 330.81668ZM65.0 328.8323Q65.0 327.30106 65.3125 326.37918Q65.625 325.44168 66.234375 324.94168Q66.859375 324.44168 67.796875 324.44168Q68.484375 324.44168 69.0 324.72293Q69.53125 325.00418 69.875 325.53543Q70.21875 326.05106 70.40625 326.80106Q70.59375 327.55106 70.59375 328.8323Q70.59375 330.34793 70.28125 331.2698Q69.984375 332.19168 69.359375 332.7073Q68.75 333.2073 67.796875 333.2073Q66.5625 333.2073 65.84375 332.31668Q65.0 331.25418 65.0 328.8323ZM66.078125 328.8323Q66.078125 330.94168 66.578125 331.6448Q67.078125 332.34793 67.796875 332.34793Q68.53125 332.34793 69.015625 331.6448Q69.515625 330.94168 69.515625 328.8323Q69.515625 326.7073 69.015625 326.0198Q68.53125 325.31668 67.78125 325.31668Q67.0625 325.31668 66.625 325.92606Q66.078125 326.7073 66.078125 328.8323ZM72.5625 333.06668L72.5625 331.86356L73.765625 331.86356L73.765625 333.06668Q73.765625 333.72293 73.53125 334.12918Q73.296875 334.55106 72.796875 334.7698L72.5 334.31668Q72.828125 334.17606 72.984375 333.87918Q73.140625 333.59793 73.171875 333.06668L72.5625 333.06668ZM75.0 328.8323Q75.0 327.30106 75.3125 326.37918Q75.625 325.44168 76.234375 324.94168Q76.859375 324.44168 77.796875 324.44168Q78.484375 324.44168 79.0 324.72293Q79.53125 325.00418 79.875 325.53543Q80.21875 326.05106 80.40625 326.80106Q80.59375 327.55106 80.59375 328.8323Q80.59375 330.34793 80.28125 331.2698Q79.984375 332.19168 79.359375 332.7073Q78.75 333.2073 77.796875 333.2073Q76.5625 333.2073 75.84375 332.31668Q75.0 331.25418 75.0 328.8323ZM76.078125 328.8323Q76.078125 330.94168 76.578125 331.6448Q77.078125 332.34793 77.796875 332.34793Q78.53125 332.34793 79.015625 331.6448Q79.515625 330.94168 79.515625 328.8323Q79.515625 326.7073 79.015625 326.0198Q78.53125 325.31668 77.78125 325.31668Q77.0625 325.31668 76.625 325.92606Q76.078125 326.7073 76.078125 328.8323ZM82.0 328.8323Q82.0 327.30106 82.3125 326.37918Q82.625 325.44168 83.234375 324.94168Q83.859375 324.44168 84.796875 324.44168Q85.484375 324.44168 86.0 324.72293Q86.53125 325.00418 86.875 325.53543Q87.21875 326.05106 87.40625 326.80106Q87.59375 327.55106 87.59375 328.8323Q87.59375 330.34793 87.28125 331.2698Q86.984375 332.19168 86.359375 332.7073Q85.75 333.2073 84.796875 333.2073Q83.5625 333.2073 82.84375 332.31668Q82.0 331.25418 82.0 328.8323ZM83.078125 328.8323Q83.078125 330.94168 83.578125 331.6448Q84.078125 332.34793 84.796875 332.34793Q85.53125 332.34793 86.015625 331.6448Q86.515625 330.94168 86.515625 328.8323Q86.515625 326.7073 86.015625 326.0198Q85.53125 325.31668 84.78125 325.31668Q84.0625 325.31668 83.625 325.92606Q83.078125 326.7073 83.078125 328.8323ZM89.0 328.8323Q89.0 327.30106 89.3125 326.37918Q89.625 325.44168 90.234375 324.94168Q90.859375 324.44168 91.796875 324.44168Q92.484375 324.44168 93.0 324.72293Q93.53125 325.00418 93.875 325.53543Q94.21875 326.05106 94.40625 326.80106Q94.59375 327.55106 94.59375 328.8323Q94.59375 330.34793 94.28125 331.2698Q93.984375 332.19168 93.359375 332.7073Q92.75 333.2073 91.796875 333.2073Q90.5625 333.2073 89.84375 332.31668Q89.0 331.25418 89.0 328.8323ZM90.078125 328.8323Q90.078125 330.94168 90.578125 331.6448Q91.078125 332.34793 91.796875 332.34793Q92.53125 332.34793 93.015625 331.6448Q93.515625 330.94168 93.515625 328.8323Q93.515625 326.7073 93.015625 326.0198Q92.53125 325.31668 91.78125 325.31668Q91.0625 325.31668 90.625 325.92606Q90.078125 326.7073 90.078125 328.8323Z" fill-rule="nonzero"/><path fill="#000000" d="M54.96875 242.18333L53.921875 242.18333L53.921875 235.46458Q53.53125 235.82396 52.90625 236.19896Q52.296875 236.55833 51.8125 236.73021L51.8125 235.71458Q52.6875 235.29271 53.34375 234.71458Q54.015625 234.12083 54.296875 233.55833L54.96875 233.55833L54.96875 242.18333ZM58.0 237.94896Q58.0 236.41771 58.3125 235.49583Q58.625 234.55833 59.234375 234.05833Q59.859375 233.55833 60.796875 233.55833Q61.484375 233.55833 62.0 233.83958Q62.53125 234.12083 62.875 234.65208Q63.21875 235.16771 63.40625 235.91771Q63.59375 236.66771 63.59375 237.94896Q63.59375 239.46458 63.28125 240.38646Q62.984375 241.30833 62.359375 241.82396Q61.75 242.32396 60.796875 242.32396Q59.5625 242.32396 58.84375 241.43333Q58.0 240.37083 58.0 237.94896ZM59.078125 237.94896Q59.078125 240.05833 59.578125 240.76146Q60.078125 241.46458 60.796875 241.46458Q61.53125 241.46458 62.015625 240.76146Q62.515625 240.05833 62.515625 237.94896Q62.515625 235.82396 62.015625 235.13646Q61.53125 234.43333 60.78125 234.43333Q60.0625 234.43333 59.625 235.04271Q59.078125 235.82396 59.078125 237.94896ZM65.0 237.94896Q65.0 236.41771 65.3125 235.49583Q65.625 234.55833 66.234375 234.05833Q66.859375 233.55833 67.796875 233.55833Q68.484375 233.55833 69.0 233.83958Q69.53125 234.12083 69.875 234.65208Q70.21875 235.16771 70.40625 235.91771Q70.59375 236.66771 70.59375 237.94896Q70.59375 239.46458 70.28125 240.38646Q69.984375 241.30833 69.359375 241.82396Q68.75 242.32396 67.796875 242.32396Q66.5625 242.32396 65.84375 241.43333Q65.0 240.37083 65.0 237.94896ZM66.078125 237.94896Q66.078125 240.05833 66.578125 240.76146Q67.078125 241.46458 67.796875 241.46458Q68.53125 241.46458 69.015625 240.76146Q69.515625 240.05833 69.515625 237.94896Q69.515625 235.82396 69.015625 235.13646Q68.53125 234.43333 67.78125 234.43333Q67.0625 234.43333 66.625 235.04271Q66.078125 235.82396 66.078125 237.94896ZM72.5625 242.18333L72.5625 240.98021L73.765625 240.98021L73.765625 242.18333Q73.765625 242.83958 73.53125 243.24583Q73.296875 243.66771 72.796875 243.88646L72.5 243.43333Q72.828125 243.29271 72.984375 242.99583Q73.140625 242.71458 73.171875 242.18333L72.5625 242.18333ZM75.0 237.94896Q75.0 236.41771 75.3125 235.49583Q75.625 234.55833 76.234375 234.05833Q76.859375 233.55833 77.796875 233.55833Q78.484375 233.55833 79.0 233.83958Q79.53125 234.12083 79.875 234.65208Q80.21875 235.16771 80.40625 235.91771Q80.59375 236.66771 80.59375 237.94896Q80.59375 239.46458 80.28125 240.38646Q79.984375 241.30833 79.359375 241.82396Q78.75 242.32396 77.796875 242.32396Q76.5625 242.32396 75.84375 241.43333Q75.0 240.37083 75.0 237.94896ZM76.078125 237.94896Q76.078125 240.05833 76.578125 240.76146Q77.078125 241.46458 77.796875 241.46458Q78.53125 241.46458 79.015625 240.76146Q79.515625 240.05833 79.515625 237.94896Q79.515625 235.82396 79.015625 235.13646Q78.53125 234.43333 77.78125 234.43333Q77.0625 234.43333 76.625 235.04271Q76.078125 235.82396 76.078125 237.94896ZM82.0 237.94896Q82.0 236.41771 82.3125 235.49583Q82.625 234.55833 83.234375 234.05833Q83.859375 233.55833 84.796875 233.55833Q85.484375 233.55833 86.0 233.83958Q86.53125 234.12083 86.875 234.65208Q87.21875 235.16771 87.40625 235.91771Q87.59375 236.66771 87.59375 237.94896Q87.59375 239.46458 87.28125 240.38646Q86.984375 241.30833 86.359375 241.82396Q85.75 242.32396 84.796875 242.32396Q83.5625 242.32396 82.84375 241.43333Q82.0 240.37083 82.0 237.94896ZM83.078125 237.94896Q83.078125 240.05833 83.578125 240.76146Q84.078125 241.46458 84.796875 241.46458Q85.53125 241.46458 86.015625 240.76146Q86.515625 240.05833 86.515625 237.94896Q86.515625 235.82396 86.015625 235.13646Q85.53125 234.43333 84.78125 234.43333Q84.0625 234.43333 83.625 235.04271Q83.078125 235.82396 83.078125 237.94896ZM89.0 237.94896Q89.0 236.41771 89.3125 235.49583Q89.625 234.55833 90.234375 234.05833Q90.859375 233.55833 91.796875 233.55833Q92.484375 233.55833 93.0 233.83958Q93.53125 234.12083 93.875 234.65208Q94.21875 235.16771 94.40625 235.91771Q94.59375 236.66771 94.59375 237.94896Q94.59375 239.46458 94.28125 240.38646Q93.984375 241.30833 93.359375 241.82396Q92.75 242.32396 91.796875 242.32396Q90.5625 242.32396 89.84375 241.43333Q89.0 240.37083 89.0 237.94896ZM90.078125 237.94896Q90.078125 240.05833 90.578125 240.76146Q91.078125 241.46458 91.796875 241.46458Q92.53125 241.46458 93.015625 240.76146Q93.515625 240.05833 93.515625 237.94896Q93.515625 235.82396 93.015625 235.13646Q92.53125 234.43333 91.78125 234.43333Q91.0625 234.43333 90.625 235.04271Q90.078125 235.82396 90.078125 237.94896Z" fill-rule="nonzero"/><path fill="#000000" d="M54.96875 151.3L53.921875 151.3L53.921875 144.58125Q53.53125 144.94063 52.90625 145.31563Q52.296875 145.675 51.8125 145.84688L51.8125 144.83125Q52.6875 144.40938 53.34375 143.83125Q54.015625 143.2375 54.296875 142.675L54.96875 142.675L54.96875 151.3ZM58.0 149.05L59.109375 148.95625Q59.234375 149.76875 59.671875 150.175Q60.125 150.58125 60.765625 150.58125Q61.515625 150.58125 62.046875 150.00313Q62.578125 149.425 62.578125 148.4875Q62.578125 147.58125 62.0625 147.06563Q61.5625 146.53438 60.734375 146.53438Q60.234375 146.53438 59.8125 146.76875Q59.40625 147.00313 59.171875 147.3625L58.1875 147.2375L59.015625 142.83125L63.296875 142.83125L63.296875 143.83125L59.859375 143.83125L59.40625 146.14375Q60.171875 145.59688 61.015625 145.59688Q62.140625 145.59688 62.90625 146.37813Q63.6875 147.15938 63.6875 148.39375Q63.6875 149.55 63.015625 150.40938Q62.1875 151.44063 60.765625 151.44063Q59.59375 151.44063 58.84375 150.78438Q58.109375 150.12813 58.0 149.05ZM65.0 147.06563Q65.0 145.53438 65.3125 144.6125Q65.625 143.675 66.234375 143.175Q66.859375 142.675 67.796875 142.675Q68.484375 142.675 69.0 142.95625Q69.53125 143.2375 69.875 143.76875Q70.21875 144.28438 70.40625 145.03438Q70.59375 145.78438 70.59375 147.06563Q70.59375 148.58125 70.28125 149.50313Q69.984375 150.425 69.359375 150.94063Q68.75 151.44063 67.796875 151.44063Q66.5625 151.44063 65.84375 150.55Q65.0 149.4875 65.0 147.06563ZM66.078125 147.06563Q66.078125 149.175 66.578125 149.87813Q67.078125 150.58125 67.796875 150.58125Q68.53125 150.58125 69.015625 149.87813Q69.515625 149.175 69.515625 147.06563Q69.515625 144.94063 69.015625 144.25313Q68.53125 143.55 67.78125 143.55Q67.0625 143.55 66.625 144.15938Q66.078125 144.94063 66.078125 147.06563ZM72.5625 151.3L72.5625 150.09688L73.765625 150.09688L73.765625 151.3Q73.765625 151.95625 73.53125 152.3625Q73.296875 152.78438 72.796875 153.00313L72.5 152.55Q72.828125 152.40938 72.984375 152.1125Q73.140625 151.83125 73.171875 151.3L72.5625 151.3ZM75.0 147.06563Q75.0 145.53438 75.3125 144.6125Q75.625 143.675 76.234375 143.175Q76.859375 142.675 77.796875 142.675Q78.484375 142.675 79.0 142.95625Q79.53125 143.2375 79.875 143.76875Q80.21875 144.28438 80.40625 145.03438Q80.59375 145.78438 80.59375 147.06563Q80.59375 148.58125 80.28125 149.50313Q79.984375 150.425 79.359375 150.94063Q78.75 151.44063 77.796875 151.44063Q76.5625 151.44063 75.84375 150.55Q75.0 149.4875 75.0 147.06563ZM76.078125 147.06563Q76.078125 149.175 76.578125 149.87813Q77.078125 150.58125 77.796875 150.58125Q78.53125 150.58125 79.015625 149.87813Q79.515625 149.175 79.515625 147.06563Q79.515625 144.94063 79.015625 144.25313Q78.53125 143.55 77.78125 143.55Q77.0625 143.55 76.625 144.15938Q76.078125 144.94063 76.078125 147.06563ZM82.0 147.06563Q82.0 145.53438 82.3125 144.6125Q82.625 143.675 83.234375 143.175Q83.859375 142.675 84.796875 142.675Q85.484375 142.675 86.0 142.95625Q86.53125 143.2375 86.875 143.76875Q87.21875 144.28438 87.40625 145.03438Q87.59375 145.78438 87.59375 147.06563Q87.59375 148.58125 87.28125 149.50313Q86.984375 150.425 86.359375 150.94063Q85.75 151.44063 84.796875 151.44063Q83.5625 151.44063 82.84375 150.55Q82.0 149.4875 82.0 147.06563ZM83.078125 147.06563Q83.078125 149.175 83.578125 149.87813Q84.078125 150.58125 84.796875 150.58125Q85.53125 150.58125 86.015625 149.87813Q86.515625 149.175 86.515625 147.06563Q86.515625 144.94063 86.015625 144.25313Q85.53125 143.55 84.78125 143.55Q84.0625 143.55 83.625 144.15938Q83.078125 144.94063 83.078125 147.06563ZM89.0 147.06563Q89.0 145.53438 89.3125 144.6125Q89.625 143.675 90.234375 143.175Q90.859375 142.675 91.796875 142.675Q92.484375 142.675 93.0 142.95625Q93.53125 143.2375 93.875 143.76875Q94.21875 144.28438 94.40625 145.03438Q94.59375 145.78438 94.59375 147.06563Q94.59375 148.58125 94.28125 149.50313Q93.984375 150.425 93.359375 150.94063Q92.75 151.44063 91.796875 151.44063Q90.5625 151.44063 89.84375 150.55Q89.0 149.4875 89.0 147.06563ZM90.078125 147.06563Q90.078125 149.175 90.578125 149.87813Q91.078125 150.58125 91.796875 150.58125Q92.53125 150.58125 93.015625 149.87813Q93.515625 149.175 93.515625 147.06563Q93.515625 144.94063 93.015625 144.25313Q92.53125 143.55 91.78125 143.55Q91.0625 143.55 90.625 144.15938Q90.078125 144.94063 90.078125 147.06563Z" fill-rule="nonzero"/><path fill="#000000" d="M56.546875 59.401043L56.546875 60.416668L50.859375 60.416668Q50.859375 60.041668 50.984375 59.682293Q51.203125 59.104168 51.671875 58.541668Q52.15625 57.979168 53.0625 57.244793Q54.46875 56.088543 54.953125 55.416668Q55.453125 54.744793 55.453125 54.151043Q55.453125 53.526043 55.0 53.104168Q54.546875 52.666668 53.828125 52.666668Q53.0625 52.666668 52.609375 53.119793Q52.15625 53.572918 52.140625 54.385418L51.0625 54.276043Q51.171875 53.057293 51.890625 52.432293Q52.625 51.791668 53.859375 51.791668Q55.09375 51.791668 55.8125 52.479168Q56.53125 53.166668 56.53125 54.182293Q56.53125 54.697918 56.3125 55.197918Q56.109375 55.682293 55.609375 56.244793Q55.125 56.791668 54.0 57.744793Q53.046875 58.541668 52.765625 58.838543Q52.5 59.119793 52.328125 59.401043L56.546875 59.401043ZM58.0 56.182293Q58.0 54.651043 58.3125 53.729168Q58.625 52.791668 59.234375 52.291668Q59.859375 51.791668 60.796875 51.791668Q61.484375 51.791668 62.0 52.072918Q62.53125 52.354168 62.875 52.885418Q63.21875 53.401043 63.40625 54.151043Q63.59375 54.901043 63.59375 56.182293Q63.59375 57.697918 63.28125 58.619793Q62.984375 59.541668 62.359375 60.057293Q61.75 60.557293 60.796875 60.557293Q59.5625 60.557293 58.84375 59.666668Q58.0 58.604168 58.0 56.182293ZM59.078125 56.182293Q59.078125 58.291668 59.578125 58.994793Q60.078125 59.697918 60.796875 59.697918Q61.53125 59.697918 62.015625 58.994793Q62.515625 58.291668 62.515625 56.182293Q62.515625 54.057293 62.015625 53.369793Q61.53125 52.666668 60.78125 52.666668Q60.0625 52.666668 59.625 53.276043Q59.078125 54.057293 59.078125 56.182293ZM65.0 56.182293Q65.0 54.651043 65.3125 53.729168Q65.625 52.791668 66.234375 52.291668Q66.859375 51.791668 67.796875 51.791668Q68.484375 51.791668 69.0 52.072918Q69.53125 52.354168 69.875 52.885418Q70.21875 53.401043 70.40625 54.151043Q70.59375 54.901043 70.59375 56.182293Q70.59375 57.697918 70.28125 58.619793Q69.984375 59.541668 69.359375 60.057293Q68.75 60.557293 67.796875 60.557293Q66.5625 60.557293 65.84375 59.666668Q65.0 58.604168 65.0 56.182293ZM66.078125 56.182293Q66.078125 58.291668 66.578125 58.994793Q67.078125 59.697918 67.796875 59.697918Q68.53125 59.697918 69.015625 58.994793Q69.515625 58.291668 69.515625 56.182293Q69.515625 54.057293 69.015625 53.369793Q68.53125 52.666668 67.78125 52.666668Q67.0625 52.666668 66.625 53.276043Q66.078125 54.057293 66.078125 56.182293ZM72.5625 60.416668L72.5625 59.213543L73.765625 59.213543L73.765625 60.416668Q73.765625 61.072918 73.53125 61.479168Q73.296875 61.901043 72.796875 62.119793L72.5 61.666668Q72.828125 61.526043 72.984375 61.229168Q73.140625 60.947918 73.171875 60.416668L72.5625 60.416668ZM75.0 56.182293Q75.0 54.651043 75.3125 53.729168Q75.625 52.791668 76.234375 52.291668Q76.859375 51.791668 77.796875 51.791668Q78.484375 51.791668 79.0 52.072918Q79.53125 52.354168 79.875 52.885418Q80.21875 53.401043 80.40625 54.151043Q80.59375 54.901043 80.59375 56.182293Q80.59375 57.697918 80.28125 58.619793Q79.984375 59.541668 79.359375 60.057293Q78.75 60.557293 77.796875 60.557293Q76.5625 60.557293 75.84375 59.666668Q75.0 58.604168 75.0 56.182293ZM76.078125 56.182293Q76.078125 58.291668 76.578125 58.994793Q77.078125 59.697918 77.796875 59.697918Q78.53125 59.697918 79.015625 58.994793Q79.515625 58.291668 79.515625 56.182293Q79.515625 54.057293 79.015625 53.369793Q78.53125 52.666668 77.78125 52.666668Q77.0625 52.666668 76.625 53.276043Q76.078125 54.057293 76.078125 56.182293ZM82.0 56.182293Q82.0 54.651043 82.3125 53.729168Q82.625 52.791668 83.234375 52.291668Q83.859375 51.791668 84.796875 51.791668Q85.484375 51.791668 86.0 52.072918Q86.53125 52.354168 86.875 52.885418Q87.21875 53.401043 87.40625 54.151043Q87.59375 54.901043 87.59375 56.182293Q87.59375 57.697918 87.28125 58.619793Q86.984375 59.541668 86.359375 60.057293Q85.75 60.557293 84.796875 60.557293Q83.5625 60.557293 82.84375 59.666668Q82.0 58.604168 82.0 56.182293ZM83.078125 56.182293Q83.078125 58.291668 83.578125 58.994793Q84.078125 59.697918 84.796875 59.697918Q85.53125 59.697918 86.015625 58.994793Q86.515625 58.291668 86.515625 56.182293Q86.515625 54.057293 86.015625 53.369793Q85.53125 52.666668 84.78125 52.666668Q84.0625 52.666668 83.625 53.276043Q83.078125 54.057293 83.078125 56.182293ZM89.0 56.182293Q89.0 54.651043 89.3125 53.729168Q89.625 52.791668 90.234375 52.291668Q90.859375 51.791668 91.796875 51.791668Q92.484375 51.791668 93.0 52.072918Q93.53125 52.354168 93.875 52.885418Q94.21875 53.401043 94.40625 54.151043Q94.59375 54.901043 94.59375 56.182293Q94.59375 57.697918 94.28125 58.619793Q93.984375 59.541668 93.359375 60.057293Q92.75 60.557293 91.796875 60.557293Q90.5625 60.557293 89.84375 59.666668Q89.0 58.604168 89.0 56.182293ZM90.078125 56.182293Q90.078125 58.291668 90.578125 58.994793Q91.078125 59.697918 91.796875 59.697918Q92.53125 59.697918 93.015625 58.994793Q93.515625 58.291668 93.515625 56.182293Q93.515625 54.057293 93.015625 53.369793Q92.53125 52.666668 91.78125 52.666668Q91.0625 52.666668 90.625 53.276043Q90.078125 54.057293 90.078125 56.182293Z" fill-rule="nonzero"/><path fill="#000000" d="M166.05759 436.95L166.05759 428.35626L169.02634 428.35626Q170.02634 428.35626 170.55759 428.48126Q171.29196 428.65314 171.80759 429.09064Q172.49509 429.66876 172.82321 430.575Q173.16696 431.46564 173.16696 432.60626Q173.16696 433.59064 172.93259 434.34064Q172.71384 435.09064 172.35446 435.59064Q171.99509 436.09064 171.55759 436.3719Q171.13571 436.65314 170.54196 436.8094Q169.94821 436.95 169.16696 436.95L166.05759 436.95ZM167.19821 435.9344L169.02634 435.9344Q169.88571 435.9344 170.37009 435.77814Q170.85446 435.6219 171.13571 435.325Q171.54196 434.9344 171.76071 434.2469Q171.99509 433.5594 171.99509 432.59064Q171.99509 431.2469 171.54196 430.52814Q171.10446 429.79376 170.47946 429.54376Q170.01071 429.3719 169.01071 429.3719L167.19821 429.3719L167.19821 435.9344ZM179.18259 434.95L180.27634 435.075Q180.02634 436.02814 179.32321 436.5594Q178.62009 437.09064 177.54196 437.09064Q176.18259 437.09064 175.37009 436.2469Q174.57321 435.40314 174.57321 433.8875Q174.57321 432.325 175.38571 431.46564Q176.19821 430.59064 177.47946 430.59064Q178.72946 430.59064 179.51071 431.4344Q180.30759 432.27814 180.30759 433.825Q180.30759 433.91876 180.30759 434.10626L175.66696 434.10626Q175.72946 435.1375 176.24509 435.6844Q176.76071 436.21564 177.54196 436.21564Q178.12009 436.21564 178.52634 435.91876Q178.94821 435.60626 179.18259 434.95ZM175.72946 433.2469L179.19821 433.2469Q179.13571 432.45 178.80759 432.0594Q178.29196 431.45 177.49509 431.45Q176.76071 431.45 176.26071 431.9344Q175.77634 432.41876 175.72946 433.2469ZM181.93259 439.34064L181.93259 430.73126L182.88571 430.73126L182.88571 431.52814Q183.22946 431.0594 183.65134 430.825Q184.08884 430.59064 184.69821 430.59064Q185.49509 430.59064 186.10446 430.9969Q186.71384 431.40314 187.01071 432.15314Q187.32321 432.90314 187.32321 433.79376Q187.32321 434.7469 186.97946 435.5125Q186.65134 436.27814 185.99509 436.6844Q185.33884 437.09064 184.62009 437.09064Q184.08884 437.09064 183.66696 436.8719Q183.24509 436.6375 182.97946 436.3094L182.97946 439.34064L181.93259 439.34064ZM182.88571 433.8719Q182.88571 435.075 183.37009 435.65314Q183.85446 436.21564 184.54196 436.21564Q185.24509 436.21564 185.74509 435.6219Q186.24509 435.02814 186.24509 433.77814Q186.24509 432.59064 185.76071 432.0125Q185.27634 431.41876 184.58884 431.41876Q183.91696 431.41876 183.40134 432.04376Q182.88571 432.66876 182.88571 433.8719ZM191.22946 436.0125L191.38571 436.9344Q190.93259 437.02814 190.58884 437.02814Q190.01071 437.02814 189.69821 436.85626Q189.38571 436.66876 189.24509 436.3719Q189.12009 436.075 189.12009 435.1219L189.12009 431.54376L188.35446 431.54376L188.35446 430.73126L189.12009 430.73126L189.12009 429.1844L190.16696 428.5594L190.16696 430.73126L191.22946 430.73126L191.22946 431.54376L190.16696 431.54376L190.16696 435.1844Q190.16696 435.6375 190.21384 435.7625Q190.27634 435.8875 190.40134 435.96564Q190.52634 436.04376 190.76071 436.04376Q190.94821 436.04376 191.22946 436.0125ZM191.93259 436.95L191.93259 428.35626L192.97946 428.35626L192.97946 431.4344Q193.71384 430.59064 194.83884 430.59064Q195.54196 430.59064 196.04196 430.8719Q196.55759 431.1375 196.77634 431.6219Q196.99509 432.09064 196.99509 433.0125L196.99509 436.95L195.94821 436.95L195.94821 433.0125Q195.94821 432.21564 195.60446 431.85626Q195.26071 431.4969 194.63571 431.4969Q194.16696 431.4969 193.74509 431.7469Q193.33884 431.98126 193.15134 432.40314Q192.97946 432.8094 192.97946 433.54376L192.97946 436.95L191.93259 436.95ZM205.60446 436.95L204.55759 436.95L204.55759 430.23126Q204.16696 430.59064 203.54196 430.96564Q202.93259 431.325 202.44821 431.4969L202.44821 430.48126Q203.32321 430.0594 203.97946 429.48126Q204.65134 428.8875 204.93259 428.325L205.60446 428.325L205.60446 436.95ZM208.63571 432.71564Q208.63571 431.1844 208.94821 430.2625Q209.26071 429.325 209.87009 428.825Q210.49509 428.325 211.43259 428.325Q212.12009 428.325 212.63571 428.60626Q213.16696 428.8875 213.51071 429.41876Q213.85446 429.9344 214.04196 430.6844Q214.22946 431.4344 214.22946 432.71564Q214.22946 434.23126 213.91696 435.15314Q213.62009 436.075 212.99509 436.59064Q212.38571 437.09064 211.43259 437.09064Q210.19821 437.09064 209.47946 436.2Q208.63571 435.1375 208.63571 432.71564ZM209.71384 432.71564Q209.71384 434.825 210.21384 435.52814Q210.71384 436.23126 211.43259 436.23126Q212.16696 436.23126 212.65134 435.52814Q213.15134 434.825 213.15134 432.71564Q213.15134 430.59064 212.65134 429.90314Q212.16696 429.2 211.41696 429.2Q210.69821 429.2 210.26071 429.8094Q209.71384 430.59064 209.71384 432.71564Z" fill-rule="nonzero"/><path fill="#000000" d="M264.54172 436.95L264.54172 428.35626L267.51047 428.35626Q268.51047 428.35626 269.04172 428.48126Q269.7761 428.65314 270.29172 429.09064Q270.97922 429.66876 271.30734 430.575Q271.6511 431.46564 271.6511 432.60626Q271.6511 433.59064 271.41672 434.34064Q271.19797 435.09064 270.8386 435.59064Q270.47922 436.09064 270.04172 436.3719Q269.61984 436.65314 269.0261 436.8094Q268.43234 436.95 267.6511 436.95L264.54172 436.95ZM265.68234 435.9344L267.51047 435.9344Q268.36984 435.9344 268.85422 435.77814Q269.3386 435.6219 269.61984 435.325Q270.0261 434.9344 270.24484 434.2469Q270.47922 433.5594 270.47922 432.59064Q270.47922 431.2469 270.0261 430.52814Q269.5886 429.79376 268.9636 429.54376Q268.49484 429.3719 267.49484 429.3719L265.68234 429.3719L265.68234 435.9344ZM277.66672 434.95L278.76047 435.075Q278.51047 436.02814 277.80734 436.5594Q277.10422 437.09064 276.0261 437.09064Q274.66672 437.09064 273.85422 436.2469Q273.05734 435.40314 273.05734 433.8875Q273.05734 432.325 273.86984 431.46564Q274.68234 430.59064 275.9636 430.59064Q277.2136 430.59064 277.99484 431.4344Q278.79172 432.27814 278.79172 433.825Q278.79172 433.91876 278.79172 434.10626L274.1511 434.10626Q274.2136 435.1375 274.72922 435.6844Q275.24484 436.21564 276.0261 436.21564Q276.60422 436.21564 277.01047 435.91876Q277.43234 435.60626 277.66672 434.95ZM274.2136 433.2469L277.68234 433.2469Q277.61984 432.45 277.29172 432.0594Q276.7761 431.45 275.97922 431.45Q275.24484 431.45 274.74484 431.9344Q274.26047 432.41876 274.2136 433.2469ZM280.41672 439.34064L280.41672 430.73126L281.36984 430.73126L281.36984 431.52814Q281.7136 431.0594 282.13547 430.825Q282.57297 430.59064 283.18234 430.59064Q283.97922 430.59064 284.5886 430.9969Q285.19797 431.40314 285.49484 432.15314Q285.80734 432.90314 285.80734 433.79376Q285.80734 434.7469 285.4636 435.5125Q285.13547 436.27814 284.47922 436.6844Q283.82297 437.09064 283.10422 437.09064Q282.57297 437.09064 282.1511 436.8719Q281.72922 436.6375 281.4636 436.3094L281.4636 439.34064L280.41672 439.34064ZM281.36984 433.8719Q281.36984 435.075 281.85422 435.65314Q282.3386 436.21564 283.0261 436.21564Q283.72922 436.21564 284.22922 435.6219Q284.72922 435.02814 284.72922 433.77814Q284.72922 432.59064 284.24484 432.0125Q283.76047 431.41876 283.07297 431.41876Q282.4011 431.41876 281.88547 432.04376Q281.36984 432.66876 281.36984 433.8719ZM289.7136 436.0125L289.86984 436.9344Q289.41672 437.02814 289.07297 437.02814Q288.49484 437.02814 288.18234 436.85626Q287.86984 436.66876 287.72922 436.3719Q287.60422 436.075 287.60422 435.1219L287.60422 431.54376L286.8386 431.54376L286.8386 430.73126L287.60422 430.73126L287.60422 429.1844L288.6511 428.5594L288.6511 430.73126L289.7136 430.73126L289.7136 431.54376L288.6511 431.54376L288.6511 435.1844Q288.6511 435.6375 288.69797 435.7625Q288.76047 435.8875 288.88547 435.96564Q289.01047 436.04376 289.24484 436.04376Q289.43234 436.04376 289.7136 436.0125ZM290.41672 436.95L290.41672 428.35626L291.4636 428.35626L291.4636 431.4344Q292.19797 430.59064 293.32297 430.59064Q294.0261 430.59064 294.5261 430.8719Q295.04172 431.1375 295.26047 431.6219Q295.47922 432.09064 295.47922 433.0125L295.47922 436.95L294.43234 436.95L294.43234 433.0125Q294.43234 432.21564 294.0886 431.85626Q293.74484 431.4969 293.11984 431.4969Q292.6511 431.4969 292.22922 431.7469Q291.82297 431.98126 291.63547 432.40314Q291.4636 432.8094 291.4636 433.54376L291.4636 436.95L290.41672 436.95ZM305.66672 435.9344L305.66672 436.95L299.97922 436.95Q299.97922 436.575 300.10422 436.21564Q300.32297 435.6375 300.79172 435.075Q301.2761 434.5125 302.18234 433.77814Q303.5886 432.6219 304.07297 431.95Q304.57297 431.27814 304.57297 430.6844Q304.57297 430.0594 304.11984 429.6375Q303.66672 429.2 302.94797 429.2Q302.18234 429.2 301.72922 429.65314Q301.2761 430.10626 301.26047 430.91876L300.18234 430.8094Q300.29172 429.59064 301.01047 428.96564Q301.74484 428.325 302.97922 428.325Q304.2136 428.325 304.93234 429.0125Q305.6511 429.7 305.6511 430.71564Q305.6511 431.23126 305.43234 431.73126Q305.22922 432.21564 304.72922 432.77814Q304.24484 433.325 303.11984 434.27814Q302.16672 435.075 301.88547 435.3719Q301.61984 435.65314 301.44797 435.9344L305.66672 435.9344ZM307.11984 432.71564Q307.11984 431.1844 307.43234 430.2625Q307.74484 429.325 308.35422 428.825Q308.97922 428.325 309.91672 428.325Q310.60422 428.325 311.11984 428.60626Q311.6511 428.8875 311.99484 429.41876Q312.3386 429.9344 312.5261 430.6844Q312.7136 431.4344 312.7136 432.71564Q312.7136 434.23126 312.4011 435.15314Q312.10422 436.075 311.47922 436.59064Q310.86984 437.09064 309.91672 437.09064Q308.68234 437.09064 307.9636 436.2Q307.11984 435.1375 307.11984 432.71564ZM308.19797 432.71564Q308.19797 434.825 308.69797 435.52814Q309.19797 436.23126 309.91672 436.23126Q310.6511 436.23126 311.13547 435.52814Q311.63547 434.825 311.63547 432.71564Q311.63547 430.59064 311.13547 429.90314Q310.6511 429.2 309.9011 429.2Q309.18234 429.2 308.74484 429.8094Q308.19797 430.59064 308.19797 432.71564Z" fill-rule="nonzero"/><path fill="#000000" d="M363.02585 436.95L363.02585 428.35626L365.9946 428.35626Q366.9946 428.35626 367.52585 428.48126Q368.26022 428.65314 368.77585 429.09064Q369.46335 429.66876 369.79147 430.575Q370.13522 431.46564 370.13522 432.60626Q370.13522 433.59064 369.90085 434.34064Q369.6821 435.09064 369.32272 435.59064Q368.96335 436.09064 368.52585 436.3719Q368.10397 436.65314 367.51022 436.8094Q366.91647 436.95 366.13522 436.95L363.02585 436.95ZM364.16647 435.9344L365.9946 435.9344Q366.85397 435.9344 367.33835 435.77814Q367.82272 435.6219 368.10397 435.325Q368.51022 434.9344 368.72897 434.2469Q368.96335 433.5594 368.96335 432.59064Q368.96335 431.2469 368.51022 430.52814Q368.07272 429.79376 367.44772 429.54376Q366.97897 429.3719 365.97897 429.3719L364.16647 429.3719L364.16647 435.9344ZM376.15085 434.95L377.2446 435.075Q376.9946 436.02814 376.29147 436.5594Q375.58835 437.09064 374.51022 437.09064Q373.15085 437.09064 372.33835 436.2469Q371.54147 435.40314 371.54147 433.8875Q371.54147 432.325 372.35397 431.46564Q373.16647 430.59064 374.44772 430.59064Q375.69772 430.59064 376.47897 431.4344Q377.27585 432.27814 377.27585 433.825Q377.27585 433.91876 377.27585 434.10626L372.63522 434.10626Q372.69772 435.1375 373.21335 435.6844Q373.72897 436.21564 374.51022 436.21564Q375.08835 436.21564 375.4946 435.91876Q375.91647 435.60626 376.15085 434.95ZM372.69772 433.2469L376.16647 433.2469Q376.10397 432.45 375.77585 432.0594Q375.26022 431.45 374.46335 431.45Q373.72897 431.45 373.22897 431.9344Q372.7446 432.41876 372.69772 433.2469ZM378.90085 439.34064L378.90085 430.73126L379.85397 430.73126L379.85397 431.52814Q380.19772 431.0594 380.6196 430.825Q381.0571 430.59064 381.66647 430.59064Q382.46335 430.59064 383.07272 430.9969Q383.6821 431.40314 383.97897 432.15314Q384.29147 432.90314 384.29147 433.79376Q384.29147 434.7469 383.94772 435.5125Q383.6196 436.27814 382.96335 436.6844Q382.3071 437.09064 381.58835 437.09064Q381.0571 437.09064 380.63522 436.8719Q380.21335 436.6375 379.94772 436.3094L379.94772 439.34064L378.90085 439.34064ZM379.85397 433.8719Q379.85397 435.075 380.33835 435.65314Q380.82272 436.21564 381.51022 436.21564Q382.21335 436.21564 382.71335 435.6219Q383.21335 435.02814 383.21335 433.77814Q383.21335 432.59064 382.72897 432.0125Q382.2446 431.41876 381.5571 431.41876Q380.88522 431.41876 380.3696 432.04376Q379.85397 432.66876 379.85397 433.8719ZM388.19772 436.0125L388.35397 436.9344Q387.90085 437.02814 387.5571 437.02814Q386.97897 437.02814 386.66647 436.85626Q386.35397 436.66876 386.21335 436.3719Q386.08835 436.075 386.08835 435.1219L386.08835 431.54376L385.32272 431.54376L385.32272 430.73126L386.08835 430.73126L386.08835 429.1844L387.13522 428.5594L387.13522 430.73126L388.19772 430.73126L388.19772 431.54376L387.13522 431.54376L387.13522 435.1844Q387.13522 435.6375 387.1821 435.7625Q387.2446 435.8875 387.3696 435.96564Q387.4946 436.04376 387.72897 436.04376Q387.91647 436.04376 388.19772 436.0125ZM388.90085 436.95L388.90085 428.35626L389.94772 428.35626L389.94772 431.4344Q390.6821 430.59064 391.8071 430.59064Q392.51022 430.59064 393.01022 430.8719Q393.52585 431.1375 393.7446 431.6219Q393.96335 432.09064 393.96335 433.0125L393.96335 436.95L392.91647 436.95L392.91647 433.0125Q392.91647 432.21564 392.57272 431.85626Q392.22897 431.4969 391.60397 431.4969Q391.13522 431.4969 390.71335 431.7469Q390.3071 431.98126 390.1196 432.40314Q389.94772 432.8094 389.94772 433.54376L389.94772 436.95L388.90085 436.95ZM398.60397 434.6844L399.66647 434.54376Q399.83835 435.4344 400.27585 435.84064Q400.71335 436.23126 401.33835 436.23126Q402.08835 436.23126 402.60397 435.71564Q403.1196 435.2 403.1196 434.4344Q403.1196 433.71564 402.63522 433.2469Q402.16647 432.7625 401.4321 432.7625Q401.13522 432.7625 400.6821 432.8875L400.8071 431.95Q400.91647 431.96564 400.97897 431.96564Q401.65085 431.96564 402.1821 431.6219Q402.72897 431.2625 402.72897 430.52814Q402.72897 429.95 402.33835 429.575Q401.94772 429.1844 401.32272 429.1844Q400.71335 429.1844 400.29147 429.575Q399.88522 429.96564 399.77585 430.73126L398.71335 430.54376Q398.90085 429.4969 399.58835 428.91876Q400.27585 428.325 401.29147 428.325Q401.9946 428.325 402.58835 428.6375Q403.1821 428.9344 403.4946 429.45Q403.8071 429.96564 403.8071 430.5594Q403.8071 431.10626 403.51022 431.575Q403.21335 432.02814 402.63522 432.29376Q403.38522 432.46564 403.8071 433.02814Q404.22897 433.575 404.22897 434.41876Q404.22897 435.54376 403.40085 436.325Q402.58835 437.10626 401.33835 437.10626Q400.21335 437.10626 399.46335 436.4344Q398.71335 435.7469 398.60397 434.6844ZM405.60397 432.71564Q405.60397 431.1844 405.91647 430.2625Q406.22897 429.325 406.83835 428.825Q407.46335 428.325 408.40085 428.325Q409.08835 428.325 409.60397 428.60626Q410.13522 428.8875 410.47897 429.41876Q410.82272 429.9344 411.01022 430.6844Q411.19772 431.4344 411.19772 432.71564Q411.19772 434.23126 410.88522 435.15314Q410.58835 436.075 409.96335 436.59064Q409.35397 437.09064 408.40085 437.09064Q407.16647 437.09064 406.44772 436.2Q405.60397 435.1375 405.60397 432.71564ZM406.6821 432.71564Q406.6821 434.825 407.1821 435.52814Q407.6821 436.23126 408.40085 436.23126Q409.13522 436.23126 409.6196 435.52814Q410.1196 434.825 410.1196 432.71564Q410.1196 430.59064 409.6196 429.90314Q409.13522 429.2 408.38522 429.2Q407.66647 429.2 407.22897 429.8094Q406.6821 430.59064 406.6821 432.71564Z" fill-rule="nonzero"/><path fill="#000000" d="M461.50998 436.95L461.50998 428.35626L464.47873 428.35626Q465.47873 428.35626 466.00998 428.48126Q466.74435 428.65314 467.25998 429.09064Q467.94748 429.66876 468.2756 430.575Q468.61935 431.46564 468.61935 432.60626Q468.61935 433.59064 468.38498 434.34064Q468.16623 435.09064 467.80685 435.59064Q467.44748 436.09064 467.00998 436.3719Q466.5881 436.65314 465.99435 436.8094Q465.4006 436.95 464.61935 436.95L461.50998 436.95ZM462.6506 435.9344L464.47873 435.9344Q465.3381 435.9344 465.82248 435.77814Q466.30685 435.6219 466.5881 435.325Q466.99435 434.9344 467.2131 434.2469Q467.44748 433.5594 467.44748 432.59064Q467.44748 431.2469 466.99435 430.52814Q466.55685 429.79376 465.93185 429.54376Q465.4631 429.3719 464.4631 429.3719L462.6506 429.3719L462.6506 435.9344ZM474.63498 434.95L475.72873 435.075Q475.47873 436.02814 474.7756 436.5594Q474.07248 437.09064 472.99435 437.09064Q471.63498 437.09064 470.82248 436.2469Q470.0256 435.40314 470.0256 433.8875Q470.0256 432.325 470.8381 431.46564Q471.6506 430.59064 472.93185 430.59064Q474.18185 430.59064 474.9631 431.4344Q475.75998 432.27814 475.75998 433.825Q475.75998 433.91876 475.75998 434.10626L471.11935 434.10626Q471.18185 435.1375 471.69748 435.6844Q472.2131 436.21564 472.99435 436.21564Q473.57248 436.21564 473.97873 435.91876Q474.4006 435.60626 474.63498 434.95ZM471.18185 433.2469L474.6506 433.2469Q474.5881 432.45 474.25998 432.0594Q473.74435 431.45 472.94748 431.45Q472.2131 431.45 471.7131 431.9344Q471.22873 432.41876 471.18185 433.2469ZM477.38498 439.34064L477.38498 430.73126L478.3381 430.73126L478.3381 431.52814Q478.68185 431.0594 479.10373 430.825Q479.54123 430.59064 480.1506 430.59064Q480.94748 430.59064 481.55685 430.9969Q482.16623 431.40314 482.4631 432.15314Q482.7756 432.90314 482.7756 433.79376Q482.7756 434.7469 482.43185 435.5125Q482.10373 436.27814 481.44748 436.6844Q480.79123 437.09064 480.07248 437.09064Q479.54123 437.09064 479.11935 436.8719Q478.69748 436.6375 478.43185 436.3094L478.43185 439.34064L477.38498 439.34064ZM478.3381 433.8719Q478.3381 435.075 478.82248 435.65314Q479.30685 436.21564 479.99435 436.21564Q480.69748 436.21564 481.19748 435.6219Q481.69748 435.02814 481.69748 433.77814Q481.69748 432.59064 481.2131 432.0125Q480.72873 431.41876 480.04123 431.41876Q479.36935 431.41876 478.85373 432.04376Q478.3381 432.66876 478.3381 433.8719ZM486.68185 436.0125L486.8381 436.9344Q486.38498 437.02814 486.04123 437.02814Q485.4631 437.02814 485.1506 436.85626Q484.8381 436.66876 484.69748 436.3719Q484.57248 436.075 484.57248 435.1219L484.57248 431.54376L483.80685 431.54376L483.80685 430.73126L484.57248 430.73126L484.57248 429.1844L485.61935 428.5594L485.61935 430.73126L486.68185 430.73126L486.68185 431.54376L485.61935 431.54376L485.61935 435.1844Q485.61935 435.6375 485.66623 435.7625Q485.72873 435.8875 485.85373 435.96564Q485.97873 436.04376 486.2131 436.04376Q486.4006 436.04376 486.68185 436.0125ZM487.38498 436.95L487.38498 428.35626L488.43185 428.35626L488.43185 431.4344Q489.16623 430.59064 490.29123 430.59064Q490.99435 430.59064 491.49435 430.8719Q492.00998 431.1375 492.22873 431.6219Q492.44748 432.09064 492.44748 433.0125L492.44748 436.95L491.4006 436.95L491.4006 433.0125Q491.4006 432.21564 491.05685 431.85626Q490.7131 431.4969 490.0881 431.4969Q489.61935 431.4969 489.19748 431.7469Q488.79123 431.98126 488.60373 432.40314Q488.43185 432.8094 488.43185 433.54376L488.43185 436.95L487.38498 436.95ZM500.4631 436.95L500.4631 434.8875L496.74435 434.8875L496.74435 433.91876L500.66623 428.35626L501.5256 428.35626L501.5256 433.91876L502.68185 433.91876L502.68185 434.8875L501.5256 434.8875L501.5256 436.95L500.4631 436.95ZM500.4631 433.91876L500.4631 430.0594L497.7756 433.91876L500.4631 433.91876ZM504.0881 432.71564Q504.0881 431.1844 504.4006 430.2625Q504.7131 429.325 505.32248 428.825Q505.94748 428.325 506.88498 428.325Q507.57248 428.325 508.0881 428.60626Q508.61935 428.8875 508.9631 429.41876Q509.30685 429.9344 509.49435 430.6844Q509.68185 431.4344 509.68185 432.71564Q509.68185 434.23126 509.36935 435.15314Q509.07248 436.075 508.44748 436.59064Q507.8381 437.09064 506.88498 437.09064Q505.6506 437.09064 504.93185 436.2Q504.0881 435.1375 504.0881 432.71564ZM505.16623 432.71564Q505.16623 434.825 505.66623 435.52814Q506.16623 436.23126 506.88498 436.23126Q507.61935 436.23126 508.10373 435.52814Q508.60373 434.825 508.60373 432.71564Q508.60373 430.59064 508.10373 429.90314Q507.61935 429.2 506.86935 429.2Q506.1506 429.2 505.7131 429.8094Q505.16623 430.59064 505.16623 432.71564Z" fill-rule="nonzero"/><path fill="#000000" d="M559.9941 436.95L559.9941 428.35626L562.9628 428.35626Q563.9628 428.35626 564.4941 428.48126Q565.22845 428.65314 565.7441 429.09064Q566.4316 429.66876 566.7597 430.575Q567.10345 431.46564 567.10345 432.60626Q567.10345 433.59064 566.8691 434.34064Q566.6503 435.09064 566.29095 435.59064Q565.9316 436.09064 565.4941 436.3719Q565.0722 436.65314 564.47845 436.8094Q563.8847 436.95 563.10345 436.95L559.9941 436.95ZM561.1347 435.9344L562.9628 435.9344Q563.8222 435.9344 564.3066 435.77814Q564.79095 435.6219 565.0722 435.325Q565.47845 434.9344 565.6972 434.2469Q565.9316 433.5594 565.9316 432.59064Q565.9316 431.2469 565.47845 430.52814Q565.04095 429.79376 564.41595 429.54376Q563.9472 429.3719 562.9472 429.3719L561.1347 429.3719L561.1347 435.9344ZM573.1191 434.95L574.2128 435.075Q573.9628 436.02814 573.2597 436.5594Q572.5566 437.09064 571.47845 437.09064Q570.1191 437.09064 569.3066 436.2469Q568.5097 435.40314 568.5097 433.8875Q568.5097 432.325 569.3222 431.46564Q570.1347 430.59064 571.41595 430.59064Q572.66595 430.59064 573.4472 431.4344Q574.2441 432.27814 574.2441 433.825Q574.2441 433.91876 574.2441 434.10626L569.60345 434.10626Q569.66595 435.1375 570.1816 435.6844Q570.6972 436.21564 571.47845 436.21564Q572.0566 436.21564 572.4628 435.91876Q572.8847 435.60626 573.1191 434.95ZM569.66595 433.2469L573.1347 433.2469Q573.0722 432.45 572.7441 432.0594Q572.22845 431.45 571.4316 431.45Q570.6972 431.45 570.1972 431.9344Q569.7128 432.41876 569.66595 433.2469ZM575.8691 439.34064L575.8691 430.73126L576.8222 430.73126L576.8222 431.52814Q577.16595 431.0594 577.5878 430.825Q578.0253 430.59064 578.6347 430.59064Q579.4316 430.59064 580.04095 430.9969Q580.6503 431.40314 580.9472 432.15314Q581.2597 432.90314 581.2597 433.79376Q581.2597 434.7469 580.91595 435.5125Q580.5878 436.27814 579.9316 436.6844Q579.2753 437.09064 578.5566 437.09064Q578.0253 437.09064 577.60345 436.8719Q577.1816 436.6375 576.91595 436.3094L576.91595 439.34064L575.8691 439.34064ZM576.8222 433.8719Q576.8222 435.075 577.3066 435.65314Q577.79095 436.21564 578.47845 436.21564Q579.1816 436.21564 579.6816 435.6219Q580.1816 435.02814 580.1816 433.77814Q580.1816 432.59064 579.6972 432.0125Q579.2128 431.41876 578.5253 431.41876Q577.85345 431.41876 577.3378 432.04376Q576.8222 432.66876 576.8222 433.8719ZM585.16595 436.0125L585.3222 436.9344Q584.8691 437.02814 584.5253 437.02814Q583.9472 437.02814 583.6347 436.85626Q583.3222 436.66876 583.1816 436.3719Q583.0566 436.075 583.0566 435.1219L583.0566 431.54376L582.29095 431.54376L582.29095 430.73126L583.0566 430.73126L583.0566 429.1844L584.10345 428.5594L584.10345 430.73126L585.16595 430.73126L585.16595 431.54376L584.10345 431.54376L584.10345 435.1844Q584.10345 435.6375 584.1503 435.7625Q584.2128 435.8875 584.3378 435.96564Q584.4628 436.04376 584.6972 436.04376Q584.8847 436.04376 585.16595 436.0125ZM585.8691 436.95L585.8691 428.35626L586.91595 428.35626L586.91595 431.4344Q587.6503 430.59064 588.7753 430.59064Q589.47845 430.59064 589.97845 430.8719Q590.4941 431.1375 590.7128 431.6219Q590.9316 432.09064 590.9316 433.0125L590.9316 436.95L589.8847 436.95L589.8847 433.0125Q589.8847 432.21564 589.54095 431.85626Q589.1972 431.4969 588.5722 431.4969Q588.10345 431.4969 587.6816 431.7469Q587.2753 431.98126 587.0878 432.40314Q586.91595 432.8094 586.91595 433.54376L586.91595 436.95L585.8691 436.95ZM595.5722 434.7L596.6816 434.60626Q596.8066 435.41876 597.2441 435.825Q597.6972 436.23126 598.3378 436.23126Q599.0878 436.23126 599.6191 435.65314Q600.1503 435.075 600.1503 434.1375Q600.1503 433.23126 599.6347 432.71564Q599.1347 432.1844 598.3066 432.1844Q597.8066 432.1844 597.3847 432.41876Q596.97845 432.65314 596.7441 433.0125L595.7597 432.8875L596.5878 428.48126L600.8691 428.48126L600.8691 429.48126L597.4316 429.48126L596.97845 431.79376Q597.7441 431.2469 598.5878 431.2469Q599.7128 431.2469 600.47845 432.02814Q601.2597 432.8094 601.2597 434.04376Q601.2597 435.2 600.5878 436.0594Q599.7597 437.09064 598.3378 437.09064Q597.16595 437.09064 596.41595 436.4344Q595.6816 435.77814 595.5722 434.7ZM602.5722 432.71564Q602.5722 431.1844 602.8847 430.2625Q603.1972 429.325 603.8066 428.825Q604.4316 428.325 605.3691 428.325Q606.0566 428.325 606.5722 428.60626Q607.10345 428.8875 607.4472 429.41876Q607.79095 429.9344 607.97845 430.6844Q608.16595 431.4344 608.16595 432.71564Q608.16595 434.23126 607.85345 435.15314Q607.5566 436.075 606.9316 436.59064Q606.3222 437.09064 605.3691 437.09064Q604.1347 437.09064 603.41595 436.2Q602.5722 435.1375 602.5722 432.71564ZM603.6503 432.71564Q603.6503 434.825 604.1503 435.52814Q604.6503 436.23126 605.3691 436.23126Q606.10345 436.23126 606.5878 435.52814Q607.0878 434.825 607.0878 432.71564Q607.0878 430.59064 606.5878 429.90314Q606.10345 429.2 605.35345 429.2Q604.6347 429.2 604.1972 429.8094Q603.6503 430.59064 603.6503 432.71564Z" fill-rule="nonzero"/><path fill="#000000" d="M658.4782 436.95L658.4782 428.35626L661.44696 428.35626Q662.44696 428.35626 662.9782 428.48126Q663.7126 428.65314 664.2282 429.09064Q664.9157 429.66876 665.24384 430.575Q665.5876 431.46564 665.5876 432.60626Q665.5876 433.59064 665.3532 434.34064Q665.13446 435.09064 664.7751 435.59064Q664.4157 436.09064 663.9782 436.3719Q663.55634 436.65314 662.9626 436.8094Q662.36884 436.95 661.5876 436.95L658.4782 436.95ZM659.61884 435.9344L661.44696 435.9344Q662.30634 435.9344 662.7907 435.77814Q663.2751 435.6219 663.55634 435.325Q663.9626 434.9344 664.18134 434.2469Q664.4157 433.5594 664.4157 432.59064Q664.4157 431.2469 663.9626 430.52814Q663.5251 429.79376 662.9001 429.54376Q662.43134 429.3719 661.43134 429.3719L659.61884 429.3719L659.61884 435.9344ZM671.6032 434.95L672.69696 435.075Q672.44696 436.02814 671.74384 436.5594Q671.0407 437.09064 669.9626 437.09064Q668.6032 437.09064 667.7907 436.2469Q666.99384 435.40314 666.99384 433.8875Q666.99384 432.325 667.80634 431.46564Q668.61884 430.59064 669.9001 430.59064Q671.1501 430.59064 671.93134 431.4344Q672.7282 432.27814 672.7282 433.825Q672.7282 433.91876 672.7282 434.10626L668.0876 434.10626Q668.1501 435.1375 668.6657 435.6844Q669.18134 436.21564 669.9626 436.21564Q670.5407 436.21564 670.94696 435.91876Q671.36884 435.60626 671.6032 434.95ZM668.1501 433.2469L671.61884 433.2469Q671.55634 432.45 671.2282 432.0594Q670.7126 431.45 669.9157 431.45Q669.18134 431.45 668.68134 431.9344Q668.19696 432.41876 668.1501 433.2469ZM674.3532 439.34064L674.3532 430.73126L675.30634 430.73126L675.30634 431.52814Q675.6501 431.0594 676.07196 430.825Q676.50946 430.59064 677.11884 430.59064Q677.9157 430.59064 678.5251 430.9969Q679.13446 431.40314 679.43134 432.15314Q679.74384 432.90314 679.74384 433.79376Q679.74384 434.7469 679.4001 435.5125Q679.07196 436.27814 678.4157 436.6844Q677.75946 437.09064 677.0407 437.09064Q676.50946 437.09064 676.0876 436.8719Q675.6657 436.6375 675.4001 436.3094L675.4001 439.34064L674.3532 439.34064ZM675.30634 433.8719Q675.30634 435.075 675.7907 435.65314Q676.2751 436.21564 676.9626 436.21564Q677.6657 436.21564 678.1657 435.6219Q678.6657 435.02814 678.6657 433.77814Q678.6657 432.59064 678.18134 432.0125Q677.69696 431.41876 677.00946 431.41876Q676.3376 431.41876 675.82196 432.04376Q675.30634 432.66876 675.30634 433.8719ZM683.6501 436.0125L683.80634 436.9344Q683.3532 437.02814 683.00946 437.02814Q682.43134 437.02814 682.11884 436.85626Q681.80634 436.66876 681.6657 436.3719Q681.5407 436.075 681.5407 435.1219L681.5407 431.54376L680.7751 431.54376L680.7751 430.73126L681.5407 430.73126L681.5407 429.1844L682.5876 428.5594L682.5876 430.73126L683.6501 430.73126L683.6501 431.54376L682.5876 431.54376L682.5876 435.1844Q682.5876 435.6375 682.63446 435.7625Q682.69696 435.8875 682.82196 435.96564Q682.94696 436.04376 683.18134 436.04376Q683.36884 436.04376 683.6501 436.0125ZM684.3532 436.95L684.3532 428.35626L685.4001 428.35626L685.4001 431.4344Q686.13446 430.59064 687.25946 430.59064Q687.9626 430.59064 688.4626 430.8719Q688.9782 431.1375 689.19696 431.6219Q689.4157 432.09064 689.4157 433.0125L689.4157 436.95L688.36884 436.95L688.36884 433.0125Q688.36884 432.21564 688.0251 431.85626Q687.68134 431.4969 687.05634 431.4969Q686.5876 431.4969 686.1657 431.7469Q685.75946 431.98126 685.57196 432.40314Q685.4001 432.8094 685.4001 433.54376L685.4001 436.95L684.3532 436.95ZM699.5251 430.46564L698.4782 430.54376Q698.3376 429.91876 698.0876 429.6375Q697.6501 429.1844 697.0251 429.1844Q696.5251 429.1844 696.13446 429.46564Q695.6501 429.84064 695.3532 430.54376Q695.07196 431.23126 695.05634 432.5125Q695.43134 431.9344 695.9782 431.65314Q696.5407 431.3719 697.1501 431.3719Q698.19696 431.3719 698.93134 432.15314Q699.68134 432.9344 699.68134 434.15314Q699.68134 434.96564 699.32196 435.66876Q698.9782 436.35626 698.36884 436.73126Q697.75946 437.09064 696.99384 437.09064Q695.6657 437.09064 694.8376 436.1219Q694.00946 435.15314 694.00946 432.9344Q694.00946 430.4344 694.93134 429.3094Q695.7282 428.325 697.0876 428.325Q698.1032 428.325 698.74384 428.90314Q699.4001 429.46564 699.5251 430.46564ZM695.2282 434.16876Q695.2282 434.71564 695.44696 435.21564Q695.68134 435.7 696.0876 435.96564Q696.50946 436.23126 696.9782 436.23126Q697.63446 436.23126 698.11884 435.7Q698.6032 435.15314 698.6032 434.23126Q698.6032 433.34064 698.11884 432.825Q697.6501 432.3094 696.93134 432.3094Q696.2126 432.3094 695.7126 432.825Q695.2282 433.34064 695.2282 434.16876ZM701.05634 432.71564Q701.05634 431.1844 701.36884 430.2625Q701.68134 429.325 702.2907 428.825Q702.9157 428.325 703.8532 428.325Q704.5407 428.325 705.05634 428.60626Q705.5876 428.8875 705.93134 429.41876Q706.2751 429.9344 706.4626 430.6844Q706.6501 431.4344 706.6501 432.71564Q706.6501 434.23126 706.3376 435.15314Q706.0407 436.075 705.4157 436.59064Q704.80634 437.09064 703.8532 437.09064Q702.61884 437.09064 701.9001 436.2Q701.05634 435.1375 701.05634 432.71564ZM702.13446 432.71564Q702.13446 434.825 702.63446 435.52814Q703.13446 436.23126 703.8532 436.23126Q704.5876 436.23126 705.07196 435.52814Q705.57196 434.825 705.57196 432.71564Q705.57196 430.59064 705.07196 429.90314Q704.5876 429.2 703.8376 429.2Q703.11884 429.2 702.68134 429.8094Q702.13446 430.59064 702.13446 432.71564Z" fill-rule="nonzero"/><path stroke="#4285f4" stroke-width="4.0" stroke-linecap="butt" d="M210.50552 28.886185L222.50552 28.886185" fill-rule="nonzero"/><path fill="#1a1a1a" d="M233.88052 32.886185L230.5524 24.292435L231.78677 24.292435L234.02115 30.542435Q234.28677 31.292435 234.47427 31.948685Q234.6774 31.24556 234.94302 30.542435L237.25552 24.292435L238.41177 24.292435L235.0524 32.886185L233.88052 32.886185ZM237.91177 29.77681Q237.91177 28.042435 238.8649 27.21431Q239.66177 26.52681 240.81802 26.52681Q242.09927 26.52681 242.91177 27.37056Q243.7399 28.198685 243.7399 29.68306Q243.7399 30.886185 243.38052 31.573685Q243.02115 32.261185 242.31802 32.65181Q241.63052 33.02681 240.81802 33.02681Q239.52115 33.02681 238.70865 32.198685Q237.91177 31.354935 237.91177 29.77681ZM238.9899 29.77681Q238.9899 30.96431 239.50552 31.55806Q240.03677 32.15181 240.81802 32.15181Q241.6149 32.15181 242.13052 31.55806Q242.64615 30.96431 242.64615 29.74556Q242.64615 28.58931 242.1149 27.99556Q241.59927 27.40181 240.81802 27.40181Q240.03677 27.40181 239.50552 27.99556Q238.9899 28.573685 238.9899 29.77681ZM245.3024 25.511185L245.3024 24.292435L246.3649 24.292435L246.3649 25.511185L245.3024 25.511185ZM245.3024 32.886185L245.3024 26.667435L246.3649 26.667435L246.3649 32.886185L245.3024 32.886185ZM252.33365 32.886185L252.33365 32.104935Q251.7399 33.02681 250.59927 33.02681Q249.84927 33.02681 249.22427 32.62056Q248.59927 32.198685 248.25552 31.46431Q247.91177 30.729935 247.91177 29.77681Q247.91177 28.854935 248.22427 28.08931Q248.53677 27.323685 249.16177 26.93306Q249.78677 26.52681 250.5524 26.52681Q251.1149 26.52681 251.5524 26.761185Q251.9899 26.99556 252.27115 27.37056L252.27115 24.292435L253.31802 24.292435L253.31802 32.886185L252.33365 32.886185ZM249.00552 29.77681Q249.00552 30.979935 249.50552 31.573685Q250.00552 32.15181 250.69302 32.15181Q251.38052 32.15181 251.8649 31.58931Q252.34927 31.02681 252.34927 29.87056Q252.34927 28.58931 251.84927 27.99556Q251.3649 27.40181 250.64615 27.40181Q249.94302 27.40181 249.47427 27.979935Q249.00552 28.542435 249.00552 29.77681ZM254.31802 35.27681L254.31802 34.511185L261.31802 34.511185L261.31802 35.27681L254.31802 35.27681ZM262.44302 32.886185L262.44302 24.292435L266.25552 24.292435Q267.41177 24.292435 268.00552 24.52681Q268.59927 24.761185 268.95865 25.354935Q269.31802 25.93306 269.31802 26.636185Q269.31802 27.55806 268.72427 28.18306Q268.13052 28.80806 266.89615 28.979935Q267.34927 29.198685 267.58365 29.40181Q268.08365 29.854935 268.52115 30.542435L270.02115 32.886185L268.58365 32.886185L267.45865 31.104935Q266.95865 30.323685 266.63052 29.917435Q266.31802 29.511185 266.0524 29.354935Q265.8024 29.18306 265.53677 29.104935Q265.34927 29.073685 264.91177 29.073685L263.58365 29.073685L263.58365 32.886185L262.44302 32.886185ZM263.58365 28.08931L266.03677 28.08931Q266.8024 28.08931 267.2399 27.93306Q267.69302 27.761185 267.91177 27.417435Q268.14615 27.05806 268.14615 26.636185Q268.14615 26.02681 267.69302 25.636185Q267.25552 25.24556 266.3024 25.24556L263.58365 25.24556L263.58365 28.08931ZM275.5524 30.886185L276.64615 31.011185Q276.39615 31.96431 275.69302 32.49556Q274.9899 33.02681 273.91177 33.02681Q272.5524 33.02681 271.7399 32.18306Q270.94302 31.33931 270.94302 29.823685Q270.94302 28.261185 271.75552 27.40181Q272.56802 26.52681 273.84927 26.52681Q275.09927 26.52681 275.88052 27.37056Q276.6774 28.21431 276.6774 29.761185Q276.6774 29.854935 276.6774 30.042435L272.03677 30.042435Q272.09927 31.073685 272.6149 31.62056Q273.13052 32.15181 273.91177 32.15181Q274.4899 32.15181 274.89615 31.854935Q275.31802 31.542435 275.5524 30.886185ZM272.09927 29.18306L275.56802 29.18306Q275.50552 28.386185 275.1774 27.99556Q274.66177 27.386185 273.8649 27.386185Q273.13052 27.386185 272.63052 27.87056Q272.14615 28.354935 272.09927 29.18306ZM282.3649 32.12056Q281.77115 32.62056 281.22427 32.823685Q280.69302 33.02681 280.06802 33.02681Q279.03677 33.02681 278.4899 32.52681Q277.94302 32.02681 277.94302 31.24556Q277.94302 30.792435 278.14615 30.417435Q278.34927 30.02681 278.69302 29.80806Q279.03677 29.573685 279.45865 29.46431Q279.75552 29.37056 280.39615 29.292435Q281.66177 29.15181 282.27115 28.93306Q282.27115 28.71431 282.27115 28.667435Q282.27115 28.011185 281.97427 27.74556Q281.56802 27.40181 280.77115 27.40181Q280.03677 27.40181 279.6774 27.667435Q279.31802 27.917435 279.14615 28.573685L278.1149 28.43306Q278.25552 27.77681 278.58365 27.37056Q278.91177 26.96431 279.52115 26.74556Q280.13052 26.52681 280.9274 26.52681Q281.72427 26.52681 282.22427 26.71431Q282.72427 26.90181 282.95865 27.18306Q283.19302 27.46431 283.28677 27.90181Q283.33365 28.167435 283.33365 28.87056L283.33365 30.27681Q283.33365 31.74556 283.39615 32.136185Q283.47427 32.52681 283.6774 32.886185L282.56802 32.886185Q282.41177 32.55806 282.3649 32.12056ZM282.27115 29.761185Q281.69302 29.99556 280.5524 30.167435Q279.89615 30.261185 279.63052 30.386185Q279.3649 30.49556 279.20865 30.71431Q279.06802 30.93306 279.06802 31.21431Q279.06802 31.636185 279.38052 31.917435Q279.70865 32.198685 280.31802 32.198685Q280.9274 32.198685 281.39615 31.93306Q281.88052 31.667435 282.09927 31.198685Q282.27115 30.83931 282.27115 30.15181L282.27115 29.761185ZM289.33365 32.886185L289.33365 32.104935Q288.7399 33.02681 287.59927 33.02681Q286.84927 33.02681 286.22427 32.62056Q285.59927 32.198685 285.25552 31.46431Q284.91177 30.729935 284.91177 29.77681Q284.91177 28.854935 285.22427 28.08931Q285.53677 27.323685 286.16177 26.93306Q286.78677 26.52681 287.5524 26.52681Q288.1149 26.52681 288.5524 26.761185Q288.9899 26.99556 289.27115 27.37056L289.27115 24.292435L290.31802 24.292435L290.31802 32.886185L289.33365 32.886185ZM286.00552 29.77681Q286.00552 30.979935 286.50552 31.573685Q287.00552 32.15181 287.69302 32.15181Q288.38052 32.15181 288.8649 31.58931Q289.34927 31.02681 289.34927 29.87056Q289.34927 28.58931 288.84927 27.99556Q288.3649 27.40181 287.64615 27.40181Q286.94302 27.40181 286.47427 27.979935Q286.00552 28.542435 286.00552 29.77681ZM295.08365 28.698685Q295.08365 26.55806 296.22427 25.354935Q297.38052 24.136185 299.19302 24.136185Q300.39615 24.136185 301.34927 24.71431Q302.3024 25.27681 302.8024 26.292435Q303.3024 27.30806 303.3024 28.604935Q303.3024 29.90181 302.77115 30.93306Q302.2399 31.96431 301.27115 32.49556Q300.31802 33.02681 299.19302 33.02681Q297.97427 33.02681 297.02115 32.448685Q296.06802 31.854935 295.56802 30.854935Q295.08365 29.83931 295.08365 28.698685ZM296.25552 28.71431Q296.25552 30.27681 297.08365 31.167435Q297.9274 32.05806 299.19302 32.05806Q300.47427 32.05806 301.3024 31.167435Q302.13052 30.261185 302.13052 28.58931Q302.13052 27.542435 301.77115 26.761185Q301.4274 25.979935 300.7399 25.55806Q300.0524 25.12056 299.20865 25.12056Q298.00552 25.12056 297.13052 25.948685Q296.25552 26.77681 296.25552 28.71431ZM304.3024 32.886185L304.3024 26.667435L305.2399 26.667435L305.2399 27.542435Q305.9274 26.52681 307.22427 26.52681Q307.78677 26.52681 308.25552 26.729935Q308.7399 26.93306 308.97427 27.261185Q309.20865 27.58931 309.3024 28.02681Q309.34927 28.323685 309.34927 29.05806L309.34927 32.886185L308.3024 32.886185L308.3024 29.104935Q308.3024 28.448685 308.1774 28.136185Q308.0524 27.823685 307.7399 27.636185Q307.4274 27.43306 307.00552 27.43306Q306.33365 27.43306 305.83365 27.87056Q305.34927 28.292435 305.34927 29.479935L305.34927 32.886185L304.3024 32.886185ZM311.27115 32.886185L311.27115 24.292435L312.33365 24.292435L312.33365 32.886185L311.27115 32.886185ZM314.25552 35.27681L314.13052 34.292435Q314.47427 34.386185 314.7399 34.386185Q315.08365 34.386185 315.28677 34.261185Q315.50552 34.15181 315.64615 33.948685Q315.7399 33.77681 315.97427 33.15181Q315.9899 33.073685 316.06802 32.90181L313.69302 26.667435L314.83365 26.667435L316.13052 30.261185Q316.38052 30.948685 316.58365 31.71431Q316.77115 30.979935 317.02115 30.292435L318.34927 26.667435L319.39615 26.667435L317.03677 32.99556Q316.64615 34.011185 316.44302 34.40181Q316.16177 34.93306 315.78677 35.167435Q315.4274 35.417435 314.9274 35.417435Q314.63052 35.417435 314.25552 35.27681ZM322.39615 32.886185L322.39615 24.292435L324.1149 24.292435L326.14615 30.37056Q326.4274 31.229935 326.5524 31.65181Q326.69302 31.18306 327.00552 30.27681L329.06802 24.292435L330.59927 24.292435L330.59927 32.886185L329.50552 32.886185L329.50552 25.698685L327.00552 32.886185L325.97427 32.886185L323.4899 25.573685L323.4899 32.886185L322.39615 32.886185ZM335.5524 30.886185L336.64615 31.011185Q336.39615 31.96431 335.69302 32.49556Q334.9899 33.02681 333.91177 33.02681Q332.5524 33.02681 331.7399 32.18306Q330.94302 31.33931 330.94302 29.823685Q330.94302 28.261185 331.75552 27.40181Q332.56802 26.52681 333.84927 26.52681Q335.09927 26.52681 335.88052 27.37056Q336.6774 28.21431 336.6774 29.761185Q336.6774 29.854935 336.6774 30.042435L332.03677 30.042435Q332.09927 31.073685 332.6149 31.62056Q333.13052 32.15181 333.91177 32.15181Q334.4899 32.15181 334.89615 31.854935Q335.31802 31.542435 335.5524 30.886185ZM332.09927 29.18306L335.56802 29.18306Q335.50552 28.386185 335.1774 27.99556Q334.66177 27.386185 333.8649 27.386185Q333.13052 27.386185 332.63052 27.87056Q332.14615 28.354935 332.09927 29.18306ZM337.88052 31.02681L338.91177 30.87056Q339.00552 31.49556 339.39615 31.823685Q339.8024 32.15181 340.53677 32.15181Q341.25552 32.15181 341.59927 31.87056Q341.95865 31.573685 341.95865 31.167435Q341.95865 30.80806 341.64615 30.604935Q341.4274 30.46431 340.56802 30.24556Q339.41177 29.948685 338.95865 29.74556Q338.52115 29.52681 338.28677 29.15181Q338.0524 28.77681 338.0524 28.30806Q338.0524 27.90181 338.2399 27.542435Q338.4274 27.18306 338.75552 26.948685Q339.00552 26.77681 339.4274 26.65181Q339.84927 26.52681 340.34927 26.52681Q341.06802 26.52681 341.6149 26.74556Q342.1774 26.948685 342.44302 27.30806Q342.70865 27.667435 342.8024 28.261185L341.77115 28.40181Q341.70865 27.93306 341.3649 27.667435Q341.03677 27.386185 340.41177 27.386185Q339.69302 27.386185 339.38052 27.636185Q339.06802 27.87056 339.06802 28.198685Q339.06802 28.40181 339.19302 28.55806Q339.33365 28.729935 339.59927 28.83931Q339.75552 28.90181 340.53677 29.104935Q341.66177 29.417435 342.09927 29.604935Q342.53677 29.792435 342.78677 30.15181Q343.03677 30.511185 343.03677 31.05806Q343.03677 31.58931 342.72427 32.05806Q342.4274 32.511185 341.84927 32.77681Q341.27115 33.02681 340.53677 33.02681Q339.31802 33.02681 338.6774 32.52681Q338.0524 32.011185 337.88052 31.02681ZM344.88052 31.02681L345.91177 30.87056Q346.00552 31.49556 346.39615 31.823685Q346.8024 32.15181 347.53677 32.15181Q348.25552 32.15181 348.59927 31.87056Q348.95865 31.573685 348.95865 31.167435Q348.95865 30.80806 348.64615 30.604935Q348.4274 30.46431 347.56802 30.24556Q346.41177 29.948685 345.95865 29.74556Q345.52115 29.52681 345.28677 29.15181Q345.0524 28.77681 345.0524 28.30806Q345.0524 27.90181 345.2399 27.542435Q345.4274 27.18306 345.75552 26.948685Q346.00552 26.77681 346.4274 26.65181Q346.84927 26.52681 347.34927 26.52681Q348.06802 26.52681 348.6149 26.74556Q349.1774 26.948685 349.44302 27.30806Q349.70865 27.667435 349.8024 28.261185L348.77115 28.40181Q348.70865 27.93306 348.3649 27.667435Q348.03677 27.386185 347.41177 27.386185Q346.69302 27.386185 346.38052 27.636185Q346.06802 27.87056 346.06802 28.198685Q346.06802 28.40181 346.19302 28.55806Q346.33365 28.729935 346.59927 28.83931Q346.75552 28.90181 347.53677 29.104935Q348.66177 29.417435 349.09927 29.604935Q349.53677 29.792435 349.78677 30.15181Q350.03677 30.511185 350.03677 31.05806Q350.03677 31.58931 349.72427 32.05806Q349.4274 32.511185 348.84927 32.77681Q348.27115 33.02681 347.53677 33.02681Q346.31802 33.02681 345.6774 32.52681Q345.0524 32.011185 344.88052 31.02681ZM356.3649 32.12056Q355.77115 32.62056 355.22427 32.823685Q354.69302 33.02681 354.06802 33.02681Q353.03677 33.02681 352.4899 32.52681Q351.94302 32.02681 351.94302 31.24556Q351.94302 30.792435 352.14615 30.417435Q352.34927 30.02681 352.69302 29.80806Q353.03677 29.573685 353.45865 29.46431Q353.75552 29.37056 354.39615 29.292435Q355.66177 29.15181 356.27115 28.93306Q356.27115 28.71431 356.27115 28.667435Q356.27115 28.011185 355.97427 27.74556Q355.56802 27.40181 354.77115 27.40181Q354.03677 27.40181 353.6774 27.667435Q353.31802 27.917435 353.14615 28.573685L352.1149 28.43306Q352.25552 27.77681 352.58365 27.37056Q352.91177 26.96431 353.52115 26.74556Q354.13052 26.52681 354.9274 26.52681Q355.72427 26.52681 356.22427 26.71431Q356.72427 26.90181 356.95865 27.18306Q357.19302 27.46431 357.28677 27.90181Q357.33365 28.167435 357.33365 28.87056L357.33365 30.27681Q357.33365 31.74556 357.39615 32.136185Q357.47427 32.52681 357.6774 32.886185L356.56802 32.886185Q356.41177 32.55806 356.3649 32.12056ZM356.27115 29.761185Q355.69302 29.99556 354.5524 30.167435Q353.89615 30.261185 353.63052 30.386185Q353.3649 30.49556 353.20865 30.71431Q353.06802 30.93306 353.06802 31.21431Q353.06802 31.636185 353.38052 31.917435Q353.70865 32.198685 354.31802 32.198685Q354.9274 32.198685 355.39615 31.93306Q355.88052 31.667435 356.09927 31.198685Q356.27115 30.83931 356.27115 30.15181L356.27115 29.761185ZM359.09927 33.40181L360.13052 33.55806Q360.19302 34.02681 360.4899 34.24556Q360.88052 34.542435 361.5524 34.542435Q362.28677 34.542435 362.6774 34.24556Q363.08365 33.948685 363.22427 33.43306Q363.31802 33.104935 363.3024 32.073685Q362.6149 32.886185 361.58365 32.886185Q360.3024 32.886185 359.59927 31.96431Q358.89615 31.02681 358.89615 29.74556Q358.89615 28.854935 359.20865 28.104935Q359.53677 27.33931 360.14615 26.93306Q360.75552 26.52681 361.58365 26.52681Q362.69302 26.52681 363.41177 27.417435L363.41177 26.667435L364.38052 26.667435L364.38052 32.042435Q364.38052 33.49556 364.08365 34.104935Q363.78677 34.71431 363.14615 35.05806Q362.50552 35.417435 361.56802 35.417435Q360.45865 35.417435 359.77115 34.917435Q359.08365 34.417435 359.09927 33.40181ZM359.97427 29.667435Q359.97427 30.886185 360.45865 31.448685Q360.94302 32.011185 361.6774 32.011185Q362.41177 32.011185 362.89615 31.448685Q363.39615 30.886185 363.39615 29.698685Q363.39615 28.55806 362.88052 27.979935Q362.38052 27.40181 361.66177 27.40181Q360.95865 27.40181 360.45865 27.979935Q359.97427 28.542435 359.97427 29.667435ZM370.5524 30.886185L371.64615 31.011185Q371.39615 31.96431 370.69302 32.49556Q369.9899 33.02681 368.91177 33.02681Q367.5524 33.02681 366.7399 32.18306Q365.94302 31.33931 365.94302 29.823685Q365.94302 28.261185 366.75552 27.40181Q367.56802 26.52681 368.84927 26.52681Q370.09927 26.52681 370.88052 27.37056Q371.6774 28.21431 371.6774 29.761185Q371.6774 29.854935 371.6774 30.042435L367.03677 30.042435Q367.09927 31.073685 367.6149 31.62056Q368.13052 32.15181 368.91177 32.15181Q369.4899 32.15181 369.89615 31.854935Q370.31802 31.542435 370.5524 30.886185ZM367.09927 29.18306L370.56802 29.18306Q370.50552 28.386185 370.1774 27.99556Q369.66177 27.386185 368.8649 27.386185Q368.13052 27.386185 367.63052 27.87056Q367.14615 28.354935 367.09927 29.18306Z" fill-rule="nonzero"/><path stroke="#ea4335" stroke-width="4.0" stroke-linecap="butt" d="M388.50552 28.886185L400.50552 28.886185" fill-rule="nonzero"/><path fill="#1a1a1a" d="M411.88052 32.886185L408.5524 24.292435L409.78677 24.292435L412.02115 30.542435Q412.28677 31.292435 412.47427 31.948685Q412.6774 31.24556 412.94302 30.542435L415.25552 24.292435L416.41177 24.292435L413.0524 32.886185L411.88052 32.886185ZM415.91177 29.77681Q415.91177 28.042435 416.8649 27.21431Q417.66177 26.52681 418.81802 26.52681Q420.09927 26.52681 420.91177 27.37056Q421.7399 28.198685 421.7399 29.68306Q421.7399 30.886185 421.38052 31.573685Q421.02115 32.261185 420.31802 32.65181Q419.63052 33.02681 418.81802 33.02681Q417.52115 33.02681 416.70865 32.198685Q415.91177 31.354935 415.91177 29.77681ZM416.9899 29.77681Q416.9899 30.96431 417.50552 31.55806Q418.03677 32.15181 418.81802 32.15181Q419.6149 32.15181 420.13052 31.55806Q420.64615 30.96431 420.64615 29.74556Q420.64615 28.58931 420.1149 27.99556Q419.59927 27.40181 418.81802 27.40181Q418.03677 27.40181 417.50552 27.99556Q416.9899 28.573685 416.9899 29.77681ZM423.3024 25.511185L423.3024 24.292435L424.3649 24.292435L424.3649 25.511185L423.3024 25.511185ZM423.3024 32.886185L423.3024 26.667435L424.3649 26.667435L424.3649 32.886185L423.3024 32.886185ZM430.33365 32.886185L430.33365 32.104935Q429.7399 33.02681 428.59927 33.02681Q427.84927 33.02681 427.22427 32.62056Q426.59927 32.198685 426.25552 31.46431Q425.91177 30.729935 425.91177 29.77681Q425.91177 28.854935 426.22427 28.08931Q426.53677 27.323685 427.16177 26.93306Q427.78677 26.52681 428.5524 26.52681Q429.1149 26.52681 429.5524 26.761185Q429.9899 26.99556 430.27115 27.37056L430.27115 24.292435L431.31802 24.292435L431.31802 32.886185L430.33365 32.886185ZM427.00552 29.77681Q427.00552 30.979935 427.50552 31.573685Q428.00552 32.15181 428.69302 32.15181Q429.38052 32.15181 429.8649 31.58931Q430.34927 31.02681 430.34927 29.87056Q430.34927 28.58931 429.84927 27.99556Q429.3649 27.40181 428.64615 27.40181Q427.94302 27.40181 427.47427 27.979935Q427.00552 28.542435 427.00552 29.77681ZM432.31802 35.27681L432.31802 34.511185L439.31802 34.511185L439.31802 35.27681L432.31802 35.27681ZM440.44302 32.886185L440.44302 24.292435L444.25552 24.292435Q445.41177 24.292435 446.00552 24.52681Q446.59927 24.761185 446.95865 25.354935Q447.31802 25.93306 447.31802 26.636185Q447.31802 27.55806 446.72427 28.18306Q446.13052 28.80806 444.89615 28.979935Q445.34927 29.198685 445.58365 29.40181Q446.08365 29.854935 446.52115 30.542435L448.02115 32.886185L446.58365 32.886185L445.45865 31.104935Q444.95865 30.323685 444.63052 29.917435Q444.31802 29.511185 444.0524 29.354935Q443.8024 29.18306 443.53677 29.104935Q443.34927 29.073685 442.91177 29.073685L441.58365 29.073685L441.58365 32.886185L440.44302 32.886185ZM441.58365 28.08931L444.03677 28.08931Q444.8024 28.08931 445.2399 27.93306Q445.69302 27.761185 445.91177 27.417435Q446.14615 27.05806 446.14615 26.636185Q446.14615 26.02681 445.69302 25.636185Q445.25552 25.24556 444.3024 25.24556L441.58365 25.24556L441.58365 28.08931ZM453.5524 30.886185L454.64615 31.011185Q454.39615 31.96431 453.69302 32.49556Q452.9899 33.02681 451.91177 33.02681Q450.5524 33.02681 449.7399 32.18306Q448.94302 31.33931 448.94302 29.823685Q448.94302 28.261185 449.75552 27.40181Q450.56802 26.52681 451.84927 26.52681Q453.09927 26.52681 453.88052 27.37056Q454.6774 28.21431 454.6774 29.761185Q454.6774 29.854935 454.6774 30.042435L450.03677 30.042435Q450.09927 31.073685 450.6149 31.62056Q451.13052 32.15181 451.91177 32.15181Q452.4899 32.15181 452.89615 31.854935Q453.31802 31.542435 453.5524 30.886185ZM450.09927 29.18306L453.56802 29.18306Q453.50552 28.386185 453.1774 27.99556Q452.66177 27.386185 451.8649 27.386185Q451.13052 27.386185 450.63052 27.87056Q450.14615 28.354935 450.09927 29.18306ZM460.3649 32.12056Q459.77115 32.62056 459.22427 32.823685Q458.69302 33.02681 458.06802 33.02681Q457.03677 33.02681 456.4899 32.52681Q455.94302 32.02681 455.94302 31.24556Q455.94302 30.792435 456.14615 30.417435Q456.34927 30.02681 456.69302 29.80806Q457.03677 29.573685 457.45865 29.46431Q457.75552 29.37056 458.39615 29.292435Q459.66177 29.15181 460.27115 28.93306Q460.27115 28.71431 460.27115 28.667435Q460.27115 28.011185 459.97427 27.74556Q459.56802 27.40181 458.77115 27.40181Q458.03677 27.40181 457.6774 27.667435Q457.31802 27.917435 457.14615 28.573685L456.1149 28.43306Q456.25552 27.77681 456.58365 27.37056Q456.91177 26.96431 457.52115 26.74556Q458.13052 26.52681 458.9274 26.52681Q459.72427 26.52681 460.22427 26.71431Q460.72427 26.90181 460.95865 27.18306Q461.19302 27.46431 461.28677 27.90181Q461.33365 28.167435 461.33365 28.87056L461.33365 30.27681Q461.33365 31.74556 461.39615 32.136185Q461.47427 32.52681 461.6774 32.886185L460.56802 32.886185Q460.41177 32.55806 460.3649 32.12056ZM460.27115 29.761185Q459.69302 29.99556 458.5524 30.167435Q457.89615 30.261185 457.63052 30.386185Q457.3649 30.49556 457.20865 30.71431Q457.06802 30.93306 457.06802 31.21431Q457.06802 31.636185 457.38052 31.917435Q457.70865 32.198685 458.31802 32.198685Q458.9274 32.198685 459.39615 31.93306Q459.88052 31.667435 460.09927 31.198685Q460.27115 30.83931 460.27115 30.15181L460.27115 29.761185ZM467.33365 32.886185L467.33365 32.104935Q466.7399 33.02681 465.59927 33.02681Q464.84927 33.02681 464.22427 32.62056Q463.59927 32.198685 463.25552 31.46431Q462.91177 30.729935 462.91177 29.77681Q462.91177 28.854935 463.22427 28.08931Q463.53677 27.323685 464.16177 26.93306Q464.78677 26.52681 465.5524 26.52681Q466.1149 26.52681 466.5524 26.761185Q466.9899 26.99556 467.27115 27.37056L467.27115 24.292435L468.31802 24.292435L468.31802 32.886185L467.33365 32.886185ZM464.00552 29.77681Q464.00552 30.979935 464.50552 31.573685Q465.00552 32.15181 465.69302 32.15181Q466.38052 32.15181 466.8649 31.58931Q467.34927 31.02681 467.34927 29.87056Q467.34927 28.58931 466.84927 27.99556Q466.3649 27.40181 465.64615 27.40181Q464.94302 27.40181 464.47427 27.979935Q464.00552 28.542435 464.00552 29.77681ZM473.0524 30.12056L474.1149 30.02681Q474.19302 30.68306 474.47427 31.08931Q474.75552 31.49556 475.33365 31.761185Q475.9274 32.011185 476.66177 32.011185Q477.3024 32.011185 477.8024 31.823685Q478.3024 31.62056 478.53677 31.292435Q478.78677 30.948685 478.78677 30.55806Q478.78677 30.15181 478.5524 29.854935Q478.31802 29.542435 477.78677 29.33931Q477.4274 29.198685 476.2399 28.917435Q475.06802 28.636185 474.59927 28.386185Q473.97427 28.05806 473.6774 27.58931Q473.38052 27.104935 473.38052 26.511185Q473.38052 25.87056 473.7399 25.30806Q474.1149 24.729935 474.81802 24.448685Q475.53677 24.15181 476.39615 24.15181Q477.34927 24.15181 478.08365 24.46431Q478.81802 24.761185 479.20865 25.37056Q479.59927 25.96431 479.63052 26.71431L478.53677 26.792435Q478.44302 25.979935 477.9274 25.573685Q477.4274 25.15181 476.44302 25.15181Q475.41177 25.15181 474.94302 25.52681Q474.47427 25.90181 474.47427 26.43306Q474.47427 26.90181 474.8024 27.198685Q475.13052 27.49556 476.50552 27.80806Q477.89615 28.12056 478.41177 28.354935Q479.16177 28.71431 479.52115 29.24556Q479.88052 29.761185 479.88052 30.46431Q479.88052 31.15181 479.4899 31.761185Q479.09927 32.354935 478.3649 32.698685Q477.63052 33.02681 476.70865 33.02681Q475.53677 33.02681 474.7399 32.698685Q473.95865 32.354935 473.50552 31.667435Q473.06802 30.979935 473.0524 30.12056ZM483.59927 31.948685L483.75552 32.87056Q483.3024 32.96431 482.95865 32.96431Q482.38052 32.96431 482.06802 32.792435Q481.75552 32.604935 481.6149 32.30806Q481.4899 32.011185 481.4899 31.05806L481.4899 27.479935L480.72427 27.479935L480.72427 26.667435L481.4899 26.667435L481.4899 25.12056L482.53677 24.49556L482.53677 26.667435L483.59927 26.667435L483.59927 27.479935L482.53677 27.479935L482.53677 31.12056Q482.53677 31.573685 482.58365 31.698685Q482.64615 31.823685 482.77115 31.90181Q482.89615 31.979935 483.13052 31.979935Q483.31802 31.979935 483.59927 31.948685ZM488.3649 32.12056Q487.77115 32.62056 487.22427 32.823685Q486.69302 33.02681 486.06802 33.02681Q485.03677 33.02681 484.4899 32.52681Q483.94302 32.02681 483.94302 31.24556Q483.94302 30.792435 484.14615 30.417435Q484.34927 30.02681 484.69302 29.80806Q485.03677 29.573685 485.45865 29.46431Q485.75552 29.37056 486.39615 29.292435Q487.66177 29.15181 488.27115 28.93306Q488.27115 28.71431 488.27115 28.667435Q488.27115 28.011185 487.97427 27.74556Q487.56802 27.40181 486.77115 27.40181Q486.03677 27.40181 485.6774 27.667435Q485.31802 27.917435 485.14615 28.573685L484.1149 28.43306Q484.25552 27.77681 484.58365 27.37056Q484.91177 26.96431 485.52115 26.74556Q486.13052 26.52681 486.9274 26.52681Q487.72427 26.52681 488.22427 26.71431Q488.72427 26.90181 488.95865 27.18306Q489.19302 27.46431 489.28677 27.90181Q489.33365 28.167435 489.33365 28.87056L489.33365 30.27681Q489.33365 31.74556 489.39615 32.136185Q489.47427 32.52681 489.6774 32.886185L488.56802 32.886185Q488.41177 32.55806 488.3649 32.12056ZM488.27115 29.761185Q487.69302 29.99556 486.5524 30.167435Q485.89615 30.261185 485.63052 30.386185Q485.3649 30.49556 485.20865 30.71431Q485.06802 30.93306 485.06802 31.21431Q485.06802 31.636185 485.38052 31.917435Q485.70865 32.198685 486.31802 32.198685Q486.9274 32.198685 487.39615 31.93306Q487.88052 31.667435 488.09927 31.198685Q488.27115 30.83931 488.27115 30.15181L488.27115 29.761185ZM495.3649 30.604935L496.39615 30.74556Q496.22427 31.80806 495.52115 32.417435Q494.81802 33.02681 493.8024 33.02681Q492.52115 33.02681 491.7399 32.198685Q490.97427 31.354935 490.97427 29.792435Q490.97427 28.792435 491.3024 28.042435Q491.64615 27.27681 492.31802 26.90181Q493.00552 26.52681 493.81802 26.52681Q494.81802 26.52681 495.45865 27.042435Q496.1149 27.542435 496.3024 28.49556L495.27115 28.65181Q495.13052 28.02681 494.75552 27.71431Q494.38052 27.386185 493.84927 27.386185Q493.0524 27.386185 492.5524 27.96431Q492.0524 28.52681 492.0524 29.761185Q492.0524 31.02681 492.53677 31.58931Q493.02115 32.15181 493.78677 32.15181Q494.41177 32.15181 494.81802 31.77681Q495.2399 31.40181 495.3649 30.604935ZM497.3024 32.886185L497.3024 24.292435L498.3649 24.292435L498.3649 29.198685L500.84927 26.667435L502.22427 26.667435L499.83365 28.96431L502.45865 32.886185L501.16177 32.886185L499.09927 29.698685L498.3649 30.417435L498.3649 32.886185L497.3024 32.886185ZM505.6149 32.886185L505.6149 25.30806L502.78677 25.30806L502.78677 24.292435L509.59927 24.292435L509.59927 25.30806L506.75552 25.30806L506.75552 32.886185L505.6149 32.886185ZM510.28677 32.886185L510.28677 26.667435L511.2399 26.667435L511.2399 27.604935Q511.59927 26.948685 511.89615 26.74556Q512.2086 26.52681 512.5836 26.52681Q513.11487 26.52681 513.66174 26.854935L513.30237 27.83931Q512.91174 27.604935 512.53674 27.604935Q512.17737 27.604935 511.89615 27.823685Q511.63052 28.02681 511.52115 28.40181Q511.33365 28.96431 511.33365 29.62056L511.33365 32.886185L510.28677 32.886185ZM518.36487 32.12056Q517.7711 32.62056 517.22424 32.823685Q516.693 33.02681 516.068 33.02681Q515.03674 33.02681 514.48987 32.52681Q513.943 32.02681 513.943 31.24556Q513.943 30.792435 514.1461 30.417435Q514.34924 30.02681 514.693 29.80806Q515.03674 29.573685 515.4586 29.46431Q515.7555 29.37056 516.3961 29.292435Q517.66174 29.15181 518.2711 28.93306Q518.2711 28.71431 518.2711 28.667435Q518.2711 28.011185 517.97424 27.74556Q517.568 27.40181 516.7711 27.40181Q516.03674 27.40181 515.67737 27.667435Q515.318 27.917435 515.1461 28.573685L514.11487 28.43306Q514.2555 27.77681 514.5836 27.37056Q514.91174 26.96431 515.5211 26.74556Q516.1305 26.52681 516.92737 26.52681Q517.72424 26.52681 518.22424 26.71431Q518.72424 26.90181 518.9586 27.18306Q519.193 27.46431 519.28674 27.90181Q519.3336 28.167435 519.3336 28.87056L519.3336 30.27681Q519.3336 31.74556 519.3961 32.136185Q519.47424 32.52681 519.67737 32.886185L518.568 32.886185Q518.41174 32.55806 518.36487 32.12056ZM518.2711 29.761185Q517.693 29.99556 516.55237 30.167435Q515.8961 30.261185 515.6305 30.386185Q515.36487 30.49556 515.2086 30.71431Q515.068 30.93306 515.068 31.21431Q515.068 31.636185 515.3805 31.917435Q515.7086 32.198685 516.318 32.198685Q516.92737 32.198685 517.3961 31.93306Q517.8805 31.667435 518.09924 31.198685Q518.2711 30.83931 518.2711 30.15181L518.2711 29.761185ZM525.36487 30.604935L526.3961 30.74556Q526.22424 31.80806 525.5211 32.417435Q524.818 33.02681 523.80237 33.02681Q522.5211 33.02681 521.73987 32.198685Q520.97424 31.354935 520.97424 29.792435Q520.97424 28.792435 521.30237 28.042435Q521.6461 27.27681 522.318 26.90181Q523.0055 26.52681 523.818 26.52681Q524.818 26.52681 525.4586 27.042435Q526.11487 27.542435 526.30237 28.49556L525.2711 28.65181Q525.1305 28.02681 524.7555 27.71431Q524.3805 27.386185 523.84924 27.386185Q523.05237 27.386185 522.55237 27.96431Q522.05237 28.52681 522.05237 29.761185Q522.05237 31.02681 522.53674 31.58931Q523.0211 32.15181 523.78674 32.15181Q524.41174 32.15181 524.818 31.77681Q525.23987 31.40181 525.36487 30.604935ZM531.55237 30.886185L532.6461 31.011185Q532.3961 31.96431 531.693 32.49556Q530.98987 33.02681 529.91174 33.02681Q528.55237 33.02681 527.73987 32.18306Q526.943 31.33931 526.943 29.823685Q526.943 28.261185 527.7555 27.40181Q528.568 26.52681 529.84924 26.52681Q531.09924 26.52681 531.8805 27.37056Q532.67737 28.21431 532.67737 29.761185Q532.67737 29.854935 532.67737 30.042435L528.03674 30.042435Q528.09924 31.073685 528.61487 31.62056Q529.1305 32.15181 529.91174 32.15181Q530.48987 32.15181 530.8961 31.854935Q531.318 31.542435 531.55237 30.886185ZM528.09924 29.18306L531.568 29.18306Q531.5055 28.386185 531.17737 27.99556Q530.66174 27.386185 529.86487 27.386185Q529.1305 27.386185 528.6305 27.87056Q528.1461 28.354935 528.09924 29.18306Z" fill-rule="nonzero"/></svg>