<svg version="1.1" viewBox="0.0 0.0 740.0 461.0" fill="none" stroke="none" stroke-linecap="square" stroke-miterlimit="10" width="740" height="461" xmlns:xlink="http://www.w3.org/1999/xlink" xmlns="http://www.w3.org/2000/svg"><path fill="#ffffff" d="M0 0L740.0 0L740.0 461.0L0 461.0L0 0Z" fill-rule="nonzero"/><path stroke="#cccccc" stroke-width="1.0" stroke-linecap="butt" d="M202.5 69.5L202.5 417.5" fill-rule="nonzero"/><path stroke="#cccccc" stroke-width="1.0" stroke-linecap="butt" d="M327.5 69.5L327.5 417.5" fill-rule="nonzero"/><path stroke="#cccccc" stroke-width="1.0" stroke-linecap="butt" d="M451.5 69.5L451.5 417.5" fill-rule="nonzero"/><path stroke="#cccccc" stroke-width="1.0" stroke-linecap="butt" d="M576.5 69.5L576.5 417.5" fill-rule="nonzero"/><path stroke="#cccccc" stroke-width="1.0" stroke-linecap="butt" d="M701.5 69.5L701.5 417.5" fill-rule="nonzero"/><path stroke="#333333" stroke-width="1.0" stroke-linecap="butt" d="M82.5 417.5L716.5 417.5" fill-rule="nonzero"/><path stroke="#cccccc" stroke-width="1.0" stroke-linecap="butt" d="M82.5 330.5L716.5 330.5" fill-rule="nonzero"/><path stroke="#cccccc" stroke-width="1.0" stroke-linecap="butt" d="M82.5 243.5L716.5 243.5" fill-rule="nonzero"/><path stroke="#cccccc" stroke-width="1.0" stroke-linecap="butt" d="M82.5 156.5L716.5 156.5" fill-rule="nonzero"/><path stroke="#cccccc" stroke-width="1.0" stroke-linecap="butt" d="M82.5 69.5L716.5 69.5" fill-rule="nonzero"/><clipPath id="id_0"><path d="M82.05 69.416664L716.95 69.416664L716.95 417.95L82.05 417.95L82.05 69.416664Z" clip-rule="nonzero"/></clipPath><path stroke="#4285f4" stroke-width="2.0" stroke-linecap="butt" clip-path="url(#id_0)" d="M82.05 264.78235L87.04921 255.05891L97.04764 235.51938L117.04449 206.67108L157.0382 195.3081L237.02559 178.7585L397.0004 157.83685L716.95 146.17659" fill-rule="nonzero"/><path fill="#000000" fill-opacity="0.0" clip-path="url(#id_0)" d="M85.05 264.78235C85.05 266.4392 83.706856 267.78235 82.05 267.78235C80.39314 267.78235 79.05 266.4392 79.05 264.78235C79.05 263.1255 80.39314 261.78235 82.05 261.78235C83.706856 261.78235 85.05 263.1255 85.05 264.78235Z" fill-rule="nonzero"/><path fill="#000000" fill-opacity="0.0" clip-path="url(#id_0)" d="M90.04921 255.05891C90.04921 256.71576 88.70607 258.0589 87.04921 258.0589C85.39236 258.0589 84.04921 256.71576 84.04921 255.05891C84.04921 253.40205 85.39236 252.05891 87.04921 252.05891C88.70607 252.05891 90.04921 253.40205 90.04921 255.05891Z" fill-rule="nonzero"/><path fill="#000000" fill-opacity="0.0" clip-path="url(#id_0)" d="M100.04764 235.51938C100.04764 237.17624 98.70449 238.51938 97.04764 238.51938C95.390785 238.51938 94.04764 237.17624 94.04764 235.51938C94.04764 233.86252 95.390785 232.51938 97.04764 232.51938C98.70449 232.51938 100.04764 233.86252 100.04764 235.51938Z" fill-rule="nonzero"/><path fill="#000000" fill-opacity="0.0" clip-path="url(#id_0)" d="M120.04449 206.67108C120.04449 208.32794 118.70134 209.67108 117.04449 209.67108C115.387634 209.67108 114.04449 208.32794 114.04449 206.67108C114.04449 205.01424 115.387634 203.67108 117.04449 203.67108C118.70134 203.67108 120.04449 205.01424 120.04449 206.67108Z" fill-rule="nonzero"/><path fill="#000000" fill-opacity="0.0" clip-path="url(#id_0)" d="M160.0382 195.3081C160.0382 196.96497 158.69504 198.3081 157.0382 198.3081C155.38133 198.3081 154.0382 196.96497 154.0382 195.3081C154.0382 193.65126 155.38133 192.3081 157.0382 192.3081C158.69504 192.3081 160.0382 193.65126 160.0382 195.3081Z" fill-rule="nonzero"/><path fill="#000000" fill-opacity="0.0" clip-path="url(#id_0)" d="M240.02559 178.7585C240.02559 180.41536 238.68245 181.7585 237.02559 181.7585C235.36874 181.7585 234.02559 180.41536 234.02559 178.7585C234.02559 177.10165 235.36874 175.7585 237.02559 175.7585C238.68245 175.7585 240.02559 177.10165 240.02559 178.7585Z" fill-rule="nonzero"/><path fill="#000000" fill-opacity="0.0" clip-path="url(#id_0)" d="M400.0004 157.83685C400.0004 159.49371 398.65726 160.83685 397.0004 160.83685C395.34354 160.83685 394.0004 159.49371 394.0004 157.83685C394.0004 156.18 395.34354 154.83685 397.0004 154.83685C398.65726 154.83685 400.0004 156.18 400.0004 157.83685Z" fill-rule="nonzero"/><path fill="#000000" fill-opacity="0.0" clip-path="url(#id_0)" d="M719.95 146.17659C719.95 147.83345 718.6069 149.17659 716.95 149.17659C715.29315 149.17659 713.95 147.83345 713.95 146.17659C713.95 144.51973 715.29315 143.17659 716.95 143.17659C718.6069 143.17659 719.95 144.51973 719.95 146.17659Z" fill-rule="nonzero"/><path fill="#000000" d="M34.05001 264.57397L26.471888 264.57397L26.471888 267.4021L25.456263 267.4021L25.456263 260.5896L26.471888 260.5896L26.471888 263.43335L34.05001 263.43335L34.05001 264.57397ZM26.675013 259.88647L25.456263 259.88647L25.456263 258.82397L26.675013 258.82397L26.675013 259.88647ZM34.05001 259.88647L27.831263 259.88647L27.831263 258.82397L34.05001 258.82397L34.05001 259.88647ZM34.05001 256.88647L27.831263 256.88647L27.831263 255.94896L28.706263 255.94896Q28.237513 255.65208 27.971888 255.16771Q27.690638 254.68333 27.690638 254.05833Q27.690638 253.37083 27.971888 252.93333Q28.253138 252.48021 28.768763 252.30833Q27.690638 251.55833 27.690638 250.38646Q27.690638 249.44896 28.206263 248.96458Q28.706263 248.46458 29.784388 248.46458L34.05001 248.46458L34.05001 249.51146L30.128138 249.51146Q29.503138 249.51146 29.221888 249.62083Q28.940638 249.71458 28.768763 249.98021Q28.596888 250.24583 28.596888 250.62083Q28.596888 251.27708 29.034388 251.71458Q29.471888 252.13646 30.440638 252.13646L34.05001 252.13646L34.05001 253.19896L30.003138 253.19896Q29.300013 253.19896 28.956263 253.46458Q28.596888 253.71458 28.596888 254.29271Q28.596888 254.74583 28.831263 255.12083Q29.065638 255.49583 29.518763 255.66771Q29.971888 255.83958 30.815638 255.83958L34.05001 255.83958L34.05001 256.88647ZM32.05001 241.63646L32.17501 240.54271Q33.128136 240.79271 33.659386 241.49583Q34.190636 242.19896 34.190636 243.27708Q34.190636 244.63646 33.346886 245.44896Q32.503136 246.24583 30.987513 246.24583Q29.425013 246.24583 28.565638 245.43333Q27.690638 244.62083 27.690638 243.33958Q27.690638 242.08958 28.534388 241.30833Q29.378138 240.51146 30.925013 240.51146Q31.018763 240.51146 31.206263 240.51146L31.206263 245.15208Q32.23751 245.08958 32.784386 244.57396Q33.315636 244.05833 33.315636 243.27708Q33.315636 242.69896 33.01876 242.29271Q32.70626 241.87083 32.05001 241.63646ZM30.346888 245.08958L30.346888 241.62083Q29.550013 241.68333 29.159388 242.01146Q28.550013 242.52708 28.550013 243.32396Q28.550013 244.05833 29.034388 244.55833Q29.518763 245.04271 30.346888 245.08958ZM32.190636 239.30833L32.034386 238.27708Q32.659386 238.18333 32.98751 237.79271Q33.315636 237.38646 33.315636 236.65208Q33.315636 235.93333 33.034386 235.58958Q32.73751 235.23021 32.33126 235.23021Q31.971888 235.23021 31.768763 235.54271Q31.628138 235.76146 31.409388 236.62083Q31.112513 237.77708 30.909388 238.23021Q30.690638 238.66771 30.315638 238.90208Q29.940638 239.13646 29.471888 239.13646Q29.065638 239.13646 28.706263 238.94896Q28.346888 238.76146 28.112513 238.43333Q27.940638 238.18333 27.815638 237.76146Q27.690638 237.33958 27.690638 236.83958Q27.690638 236.12083 27.909388 235.57396Q28.112513 235.01146 28.471888 234.74583Q28.831263 234.48021 29.425013 234.38646L29.565638 235.41771Q29.096888 235.48021 28.831263 235.82396Q28.550013 236.15208 28.550013 236.77708Q28.550013 237.49583 28.800013 237.80833Q29.034388 238.12083 29.362513 238.12083Q29.565638 238.12083 29.721888 237.99583Q29.893763 237.85521 30.003138 237.58958Q30.065638 237.43333 30.268763 236.65208Q30.581263 235.52708 30.768763 235.08958Q30.956263 234.65208 31.315638 234.40208Q31.675013 234.15208 32.221886 234.15208Q32.753136 234.15208 33.221886 234.46458Q33.67501 234.76146 33.940636 235.33958Q34.190636 235.91771 34.190636 236.65208Q34.190636 237.87083 33.690636 238.51146Q33.17501 239.13646 32.190636 239.30833Z" fill-rule="nonzero"/><path fill="#000000" d="M69.55 417.71564Q69.55 416.1844 69.8625 415.2625Q70.175 414.325 70.78438 413.825Q71.40938 413.325 72.34688 413.325Q73.03438 413.325 73.55 413.60626Q74.08125 413.8875 74.425 414.41876Q74.76875 414.9344 74.95625 415.6844Q75.14375 416.4344 75.14375 417.71564Q75.14375 419.23126 74.83125 420.15314Q74.53438 421.075 73.90938 421.59064Q73.3 422.09064 72.34688 422.09064Q71.1125 422.09064 70.39375 421.2Q69.55 420.1375 69.55 417.71564ZM70.62813 417.71564Q70.62813 419.825 71.12813 420.52814Q71.62813 421.23126 72.34688 421.23126Q73.08125 421.23126 73.56563 420.52814Q74.06563 419.825 74.06563 417.71564Q74.06563 415.59064 73.56563 414.90314Q73.08125 414.2 72.33125 414.2Q71.6125 414.2 71.175 414.8094Q70.62813 415.59064 70.62813 417.71564Z" fill-rule="nonzero"/><path fill="#000000" d="M73.51875 334.81668L72.47188 334.81668L72.47188 328.09793Q72.08125 328.4573 71.45625 328.8323Q70.84688 329.19168 70.3625 329.36356L70.3625 328.34793Q71.2375 327.92606 71.89375 327.34793Q72.56563 326.75418 72.84688 326.19168L73.51875 326.19168L73.51875 334.81668Z" fill-rule="nonzero"/><path fill="#000000" d="M75.09688 246.66771L75.09688 247.68333L69.40938 247.68333Q69.40938 247.30833 69.53438 246.94896Q69.75313 246.37083 70.22188 245.80833Q70.70625 245.24583 71.6125 244.51146Q73.01875 243.35521 73.50313 242.68333Q74.00313 242.01146 74.00313 241.41771Q74.00313 240.79271 73.55 240.37083Q73.09688 239.93333 72.37813 239.93333Q71.6125 239.93333 71.15938 240.38646Q70.70625 240.83958 70.69063 241.65208L69.6125 241.54271Q69.72188 240.32396 70.44063 239.69896Q71.175 239.05833 72.40938 239.05833Q73.64375 239.05833 74.3625 239.74583Q75.08125 240.43333 75.08125 241.44896Q75.08125 241.96458 74.8625 242.46458Q74.65938 242.94896 74.15938 243.51146Q73.675 244.05833 72.55 245.01146Q71.59688 245.80833 71.31563 246.10521Q71.05 246.38646 70.87813 246.66771L75.09688 246.66771Z" fill-rule="nonzero"/><path fill="#000000" d="M69.55 158.28438L70.6125 158.14375Q70.78438 159.03438 71.22188 159.44063Q71.65938 159.83125 72.28438 159.83125Q73.03438 159.83125 73.55 159.31563Q74.06563 158.8 74.06563 158.03438Q74.06563 157.31563 73.58125 156.84688Q73.1125 156.3625 72.37813 156.3625Q72.08125 156.3625 71.62813 156.4875L71.75313 155.55Q71.8625 155.56563 71.925 155.56563Q72.59688 155.56563 73.12813 155.22188Q73.675 154.8625 73.675 154.12813Q73.675 153.55 73.28438 153.175Q72.89375 152.78438 72.26875 152.78438Q71.65938 152.78438 71.2375 153.175Q70.83125 153.56563 70.72188 154.33125L69.65938 154.14375Q69.84688 153.09688 70.53438 152.51875Q71.22188 151.925 72.2375 151.925Q72.94063 151.925 73.53438 152.2375Q74.12813 152.53438 74.44063 153.05Q74.75313 153.56563 74.75313 154.15938Q74.75313 154.70625 74.45625 155.175Q74.15938 155.62813 73.58125 155.89375Q74.33125 156.06563 74.75313 156.62813Q75.175 157.175 75.175 158.01875Q75.175 159.14375 74.34688 159.925Q73.53438 160.70625 72.28438 160.70625Q71.15938 160.70625 70.40938 160.03438Q69.65938 159.34688 69.55 158.28438Z" fill-rule="nonzero"/><path fill="#000000" d="M72.925 73.416664L72.925 71.354164L69.20625 71.354164L69.20625 70.385414L73.12813 64.822914L73.9875 64.822914L73.9875 70.385414L75.14375 70.385414L75.14375 71.354164L73.9875 71.354164L73.9875 73.416664L72.925 73.416664ZM72.925 70.385414L72.925 66.52604L70.2375 70.385414L72.925 70.385414Z" fill-rule="nonzero"/><path fill="#000000" d="M177.95297 434.95L177.95297 426.35626L180.92172 426.35626Q181.92172 426.35626 182.45297 426.48126Q183.18735 426.65314 183.70297 427.09064Q184.39047 427.66876 184.7186 428.575Q185.06235 429.46564 185.06235 430.60626Q185.06235 431.59064 184.82797 432.34064Q184.60922 433.09064 184.24985 433.59064Q183.89047 434.09064 183.45297 434.3719Q183.0311 434.65314 182.43735 434.8094Q181.8436 434.95 181.06235 434.95L177.95297 434.95ZM179.0936 433.9344L180.92172 433.9344Q181.7811 433.9344 182.26547 433.77814Q182.74985 433.6219 183.0311 433.325Q183.43735 432.9344 183.6561 432.2469Q183.89047 431.5594 183.89047 430.59064Q183.89047 429.2469 183.43735 428.52814Q182.99985 427.79376 182.37485 427.54376Q181.9061 427.3719 180.9061 427.3719L179.0936 427.3719L179.0936 433.9344ZM191.07797 432.95L192.17172 433.075Q191.92172 434.02814 191.2186 434.5594Q190.51547 435.09064 189.43735 435.09064Q188.07797 435.09064 187.26547 434.2469Q186.4686 433.40314 186.4686 431.8875Q186.4686 430.325 187.2811 429.46564Q188.0936 428.59064 189.37485 428.59064Q190.62485 428.59064 191.4061 429.4344Q192.20297 430.27814 192.20297 431.825Q192.20297 431.91876 192.20297 432.10626L187.56235 432.10626Q187.62485 433.1375 188.14047 433.6844Q188.6561 434.21564 189.43735 434.21564Q190.01547 434.21564 190.42172 433.91876Q190.8436 433.60626 191.07797 432.95ZM187.62485 431.2469L191.0936 431.2469Q191.0311 430.45 190.70297 430.0594Q190.18735 429.45 189.39047 429.45Q188.6561 429.45 188.1561 429.9344Q187.67172 430.41876 187.62485 431.2469ZM193.82797 437.34064L193.82797 428.73126L194.7811 428.73126L194.7811 429.52814Q195.12485 429.0594 195.54672 428.825Q195.98422 428.59064 196.5936 428.59064Q197.39047 428.59064 197.99985 428.9969Q198.60922 429.40314 198.9061 430.15314Q199.2186 430.90314 199.2186 431.79376Q199.2186 432.7469 198.87485 433.5125Q198.54672 434.27814 197.89047 434.6844Q197.23422 435.09064 196.51547 435.09064Q195.98422 435.09064 195.56235 434.8719Q195.14047 434.6375 194.87485 434.3094L194.87485 437.34064L193.82797 437.34064ZM194.7811 431.8719Q194.7811 433.075 195.26547 433.65314Q195.74985 434.21564 196.43735 434.21564Q197.14047 434.21564 197.64047 433.6219Q198.14047 433.02814 198.14047 431.77814Q198.14047 430.59064 197.6561 430.0125Q197.17172 429.41876 196.48422 429.41876Q195.81235 429.41876 195.29672 430.04376Q194.7811 430.66876 194.7811 431.8719ZM203.12485 434.0125L203.2811 434.9344Q202.82797 435.02814 202.48422 435.02814Q201.9061 435.02814 201.5936 434.85626Q201.2811 434.66876 201.14047 434.3719Q201.01547 434.075 201.01547 433.1219L201.01547 429.54376L200.24985 429.54376L200.24985 428.73126L201.01547 428.73126L201.01547 427.1844L202.06235 426.5594L202.06235 428.73126L203.12485 428.73126L203.12485 429.54376L202.06235 429.54376L202.06235 433.1844Q202.06235 433.6375 202.10922 433.7625Q202.17172 433.8875 202.29672 433.96564Q202.42172 434.04376 202.6561 434.04376Q202.8436 434.04376 203.12485 434.0125ZM203.82797 434.95L203.82797 426.35626L204.87485 426.35626L204.87485 429.4344Q205.60922 428.59064 206.73422 428.59064Q207.43735 428.59064 207.93735 428.8719Q208.45297 429.1375 208.67172 429.6219Q208.89047 430.09064 208.89047 431.0125L208.89047 434.95L207.8436 434.95L207.8436 431.0125Q207.8436 430.21564 207.49985 429.85626Q207.1561 429.4969 206.5311 429.4969Q206.06235 429.4969 205.64047 429.7469Q205.23422 429.98126 205.04672 430.40314Q204.87485 430.8094 204.87485 431.54376L204.87485 434.95L203.82797 434.95ZM219.07797 433.9344L219.07797 434.95L213.39047 434.95Q213.39047 434.575 213.51547 434.21564Q213.73422 433.6375 214.20297 433.075Q214.68735 432.5125 215.5936 431.77814Q216.99985 430.6219 217.48422 429.95Q217.98422 429.27814 217.98422 428.6844Q217.98422 428.0594 217.5311 427.6375Q217.07797 427.2 216.35922 427.2Q215.5936 427.2 215.14047 427.65314Q214.68735 428.10626 214.67172 428.91876L213.5936 428.8094Q213.70297 427.59064 214.42172 426.96564Q215.1561 426.325 216.39047 426.325Q217.62485 426.325 218.3436 427.0125Q219.06235 427.7 219.06235 428.71564Q219.06235 429.23126 218.8436 429.73126Q218.64047 430.21564 218.14047 430.77814Q217.6561 431.325 216.5311 432.27814Q215.57797 433.075 215.29672 433.3719Q215.0311 433.65314 214.85922 433.9344L219.07797 433.9344ZM220.5311 432.7L221.64047 432.60626Q221.76547 433.41876 222.20297 433.825Q222.6561 434.23126 223.29672 434.23126Q224.04672 434.23126 224.57797 433.65314Q225.10922 433.075 225.10922 432.1375Q225.10922 431.23126 224.5936 430.71564Q224.0936 430.1844 223.26547 430.1844Q222.76547 430.1844 222.3436 430.41876Q221.93735 430.65314 221.70297 431.0125L220.7186 430.8875L221.54672 426.48126L225.82797 426.48126L225.82797 427.48126L222.39047 427.48126L221.93735 429.79376Q222.70297 429.2469 223.54672 429.2469Q224.67172 429.2469 225.43735 430.02814Q226.2186 430.8094 226.2186 432.04376Q226.2186 433.2 225.54672 434.0594Q224.7186 435.09064 223.29672 435.09064Q222.12485 435.09064 221.37485 434.4344Q220.64047 433.77814 220.5311 432.7Z" fill-rule="nonzero"/><path fill="#000000" d="M302.9333 434.95L302.9333 426.35626L305.90204 426.35626Q306.90204 426.35626 307.4333 426.48126Q308.16766 426.65314 308.6833 427.09064Q309.3708 427.66876 309.6989 428.575Q310.04266 429.46564 310.04266 430.60626Q310.04266 431.59064 309.8083 432.34064Q309.58954 433.09064 309.23016 433.59064Q308.8708 434.09064 308.4333 434.3719Q308.0114 434.65314 307.41766 434.8094Q306.8239 434.95 306.04266 434.95L302.9333 434.95ZM304.0739 433.9344L305.90204 433.9344Q306.7614 433.9344 307.2458 433.77814Q307.73016 433.6219 308.0114 433.325Q308.41766 432.9344 308.6364 432.2469Q308.8708 431.5594 308.8708 430.59064Q308.8708 429.2469 308.41766 428.52814Q307.98016 427.79376 307.35516 427.54376Q306.8864 427.3719 305.8864 427.3719L304.0739 427.3719L304.0739 433.9344ZM316.0583 432.95L317.15204 433.075Q316.90204 434.02814 316.1989 434.5594Q315.4958 435.09064 314.41766 435.09064Q313.0583 435.09064 312.2458 434.2469Q311.4489 433.40314 311.4489 431.8875Q311.4489 430.325 312.2614 429.46564Q313.0739 428.59064 314.35516 428.59064Q315.60516 428.59064 316.3864 429.4344Q317.1833 430.27814 317.1833 431.825Q317.1833 431.91876 317.1833 432.10626L312.54266 432.10626Q312.60516 433.1375 313.1208 433.6844Q313.6364 434.21564 314.41766 434.21564Q314.9958 434.21564 315.40204 433.91876Q315.8239 433.60626 316.0583 432.95ZM312.60516 431.2469L316.0739 431.2469Q316.0114 430.45 315.6833 430.0594Q315.16766 429.45 314.3708 429.45Q313.6364 429.45 313.1364 429.9344Q312.65204 430.41876 312.60516 431.2469ZM318.8083 437.34064L318.8083 428.73126L319.7614 428.73126L319.7614 429.52814Q320.10516 429.0594 320.52704 428.825Q320.96454 428.59064 321.5739 428.59064Q322.3708 428.59064 322.98016 428.9969Q323.58954 429.40314 323.8864 430.15314Q324.1989 430.90314 324.1989 431.79376Q324.1989 432.7469 323.85516 433.5125Q323.52704 434.27814 322.8708 434.6844Q322.21454 435.09064 321.4958 435.09064Q320.96454 435.09064 320.54266 434.8719Q320.1208 434.6375 319.85516 434.3094L319.85516 437.34064L318.8083 437.34064ZM319.7614 431.8719Q319.7614 433.075 320.2458 433.65314Q320.73016 434.21564 321.41766 434.21564Q322.1208 434.21564 322.6208 433.6219Q323.1208 433.02814 323.1208 431.77814Q323.1208 430.59064 322.6364 430.0125Q322.15204 429.41876 321.46454 429.41876Q320.79266 429.41876 320.27704 430.04376Q319.7614 430.66876 319.7614 431.8719ZM328.10516 434.0125L328.2614 434.9344Q327.8083 435.02814 327.46454 435.02814Q326.8864 435.02814 326.5739 434.85626Q326.2614 434.66876 326.1208 434.3719Q325.9958 434.075 325.9958 433.1219L325.9958 429.54376L325.23016 429.54376L325.23016 428.73126L325.9958 428.73126L325.9958 427.1844L327.04266 426.5594L327.04266 428.73126L328.10516 428.73126L328.10516 429.54376L327.04266 429.54376L327.04266 433.1844Q327.04266 433.6375 327.08954 433.7625Q327.15204 433.8875 327.27704 433.96564Q327.40204 434.04376 327.6364 434.04376Q327.8239 434.04376 328.10516 434.0125ZM328.8083 434.95L328.8083 426.35626L329.85516 426.35626L329.85516 429.4344Q330.58954 428.59064 331.71454 428.59064Q332.41766 428.59064 332.91766 428.8719Q333.4333 429.1375 333.65204 429.6219Q333.8708 430.09064 333.8708 431.0125L333.8708 434.95L332.8239 434.95L332.8239 431.0125Q332.8239 430.21564 332.48016 429.85626Q332.1364 429.4969 331.5114 429.4969Q331.04266 429.4969 330.6208 429.7469Q330.21454 429.98126 330.02704 430.40314Q329.85516 430.8094 329.85516 431.54376L329.85516 434.95L328.8083 434.95ZM338.5114 432.7L339.6208 432.60626Q339.7458 433.41876 340.1833 433.825Q340.6364 434.23126 341.27704 434.23126Q342.02704 434.23126 342.5583 433.65314Q343.08954 433.075 343.08954 432.1375Q343.08954 431.23126 342.5739 430.71564Q342.0739 430.1844 341.2458 430.1844Q340.7458 430.1844 340.3239 430.41876Q339.91766 430.65314 339.6833 431.0125L338.6989 430.8875L339.52704 426.48126L343.8083 426.48126L343.8083 427.48126L340.3708 427.48126L339.91766 429.79376Q340.6833 429.2469 341.52704 429.2469Q342.65204 429.2469 343.41766 430.02814Q344.1989 430.8094 344.1989 432.04376Q344.1989 433.2 343.52704 434.0594Q342.6989 435.09064 341.27704 435.09064Q340.10516 435.09064 339.35516 434.4344Q338.6208 433.77814 338.5114 432.7ZM345.5114 430.71564Q345.5114 429.1844 345.8239 428.2625Q346.1364 427.325 346.7458 426.825Q347.3708 426.325 348.3083 426.325Q348.9958 426.325 349.5114 426.60626Q350.04266 426.8875 350.3864 427.41876Q350.73016 427.9344 350.91766 428.6844Q351.10516 429.4344 351.10516 430.71564Q351.10516 432.23126 350.79266 433.15314Q350.4958 434.075 349.8708 434.59064Q349.2614 435.09064 348.3083 435.09064Q347.0739 435.09064 346.35516 434.2Q345.5114 433.1375 345.5114 430.71564ZM346.58954 430.71564Q346.58954 432.825 347.08954 433.52814Q347.58954 434.23126 348.3083 434.23126Q349.04266 434.23126 349.52704 433.52814Q350.02704 432.825 350.02704 430.71564Q350.02704 428.59064 349.52704 427.90314Q349.04266 427.2 348.29266 427.2Q347.5739 427.2 347.1364 427.8094Q346.58954 428.59064 346.58954 430.71564Z" fill-rule="nonzero"/><path fill="#000000" d="M427.9136 434.95L427.9136 426.35626L430.88235 426.35626Q431.88235 426.35626 432.4136 426.48126Q433.14798 426.65314 433.6636 427.09064Q434.3511 427.66876 434.67923 428.575Q435.02298 429.46564 435.02298 430.60626Q435.02298 431.59064 434.7886 432.34064Q434.56985 433.09064 434.21048 433.59064Q433.8511 434.09064 433.4136 434.3719Q432.99173 434.65314 432.39798 434.8094Q431.80423 434.95 431.02298 434.95L427.9136 434.95ZM429.05423 433.9344L430.88235 433.9344Q431.74173 433.9344 432.2261 433.77814Q432.71048 433.6219 432.99173 433.325Q433.39798 432.9344 433.61673 432.2469Q433.8511 431.5594 433.8511 430.59064Q433.8511 429.2469 433.39798 428.52814Q432.96048 427.79376 432.33548 427.54376Q431.86673 427.3719 430.86673 427.3719L429.05423 427.3719L429.05423 433.9344ZM441.0386 432.95L442.13235 433.075Q441.88235 434.02814 441.17923 434.5594Q440.4761 435.09064 439.39798 435.09064Q438.0386 435.09064 437.2261 434.2469Q436.42923 433.40314 436.42923 431.8875Q436.42923 430.325 437.24173 429.46564Q438.05423 428.59064 439.33548 428.59064Q440.58548 428.59064 441.36673 429.4344Q442.1636 430.27814 442.1636 431.825Q442.1636 431.91876 442.1636 432.10626L437.52298 432.10626Q437.58548 433.1375 438.1011 433.6844Q438.61673 434.21564 439.39798 434.21564Q439.9761 434.21564 440.38235 433.91876Q440.80423 433.60626 441.0386 432.95ZM437.58548 431.2469L441.05423 431.2469Q440.99173 430.45 440.6636 430.0594Q440.14798 429.45 439.3511 429.45Q438.61673 429.45 438.11673 429.9344Q437.63235 430.41876 437.58548 431.2469ZM443.7886 437.34064L443.7886 428.73126L444.74173 428.73126L444.74173 429.52814Q445.08548 429.0594 445.50735 428.825Q445.94485 428.59064 446.55423 428.59064Q447.3511 428.59064 447.96048 428.9969Q448.56985 429.40314 448.86673 430.15314Q449.17923 430.90314 449.17923 431.79376Q449.17923 432.7469 448.83548 433.5125Q448.50735 434.27814 447.8511 434.6844Q447.19485 435.09064 446.4761 435.09064Q445.94485 435.09064 445.52298 434.8719Q445.1011 434.6375 444.83548 434.3094L444.83548 437.34064L443.7886 437.34064ZM444.74173 431.8719Q444.74173 433.075 445.2261 433.65314Q445.71048 434.21564 446.39798 434.21564Q447.1011 434.21564 447.6011 433.6219Q448.1011 433.02814 448.1011 431.77814Q448.1011 430.59064 447.61673 430.0125Q447.13235 429.41876 446.44485 429.41876Q445.77298 429.41876 445.25735 430.04376Q444.74173 430.66876 444.74173 431.8719ZM453.08548 434.0125L453.24173 434.9344Q452.7886 435.02814 452.44485 435.02814Q451.86673 435.02814 451.55423 434.85626Q451.24173 434.66876 451.1011 434.3719Q450.9761 434.075 450.9761 433.1219L450.9761 429.54376L450.21048 429.54376L450.21048 428.73126L450.9761 428.73126L450.9761 427.1844L452.02298 426.5594L452.02298 428.73126L453.08548 428.73126L453.08548 429.54376L452.02298 429.54376L452.02298 433.1844Q452.02298 433.6375 452.06985 433.7625Q452.13235 433.8875 452.25735 433.96564Q452.38235 434.04376 452.61673 434.04376Q452.80423 434.04376 453.08548 434.0125ZM453.7886 434.95L453.7886 426.35626L454.83548 426.35626L454.83548 429.4344Q455.56985 428.59064 456.69485 428.59064Q457.39798 428.59064 457.89798 428.8719Q458.4136 429.1375 458.63235 429.6219Q458.8511 430.09064 458.8511 431.0125L458.8511 434.95L457.80423 434.95L457.80423 431.0125Q457.80423 430.21564 457.46048 429.85626Q457.11673 429.4969 456.49173 429.4969Q456.02298 429.4969 455.6011 429.7469Q455.19485 429.98126 455.00735 430.40314Q454.83548 430.8094 454.83548 431.54376L454.83548 434.95L453.7886 434.95ZM463.55423 427.48126L463.55423 426.46564L469.11673 426.46564L469.11673 427.29376Q468.30423 428.16876 467.49173 429.6219Q466.69485 431.0594 466.25735 432.59064Q465.92923 433.66876 465.8511 434.95L464.75735 434.95Q464.77298 433.9344 465.14798 432.4969Q465.5386 431.0594 466.24173 429.73126Q466.96048 428.40314 467.77298 427.48126L463.55423 427.48126ZM470.49173 432.7L471.6011 432.60626Q471.7261 433.41876 472.1636 433.825Q472.61673 434.23126 473.25735 434.23126Q474.00735 434.23126 474.5386 433.65314Q475.06985 433.075 475.06985 432.1375Q475.06985 431.23126 474.55423 430.71564Q474.05423 430.1844 473.2261 430.1844Q472.7261 430.1844 472.30423 430.41876Q471.89798 430.65314 471.6636 431.0125L470.67923 430.8875L471.50735 426.48126L475.7886 426.48126L475.7886 427.48126L472.3511 427.48126L471.89798 429.79376Q472.6636 429.2469 473.50735 429.2469Q474.63235 429.2469 475.39798 430.02814Q476.17923 430.8094 476.17923 432.04376Q476.17923 433.2 475.50735 434.0594Q474.67923 435.09064 473.25735 435.09064Q472.08548 435.09064 471.33548 434.4344Q470.6011 433.77814 470.49173 432.7Z" fill-rule="nonzero"/><path fill="#000000" d="M549.3939 434.95L549.3939 426.35626L552.3627 426.35626Q553.3627 426.35626 553.8939 426.48126Q554.6283 426.65314 555.1439 427.09064Q555.8314 427.66876 556.15955 428.575Q556.5033 429.46564 556.5033 430.60626Q556.5033 431.59064 556.2689 432.34064Q556.0502 433.09064 555.6908 433.59064Q555.3314 434.09064 554.8939 434.3719Q554.47205 434.65314 553.8783 434.8094Q553.28455 434.95 552.5033 434.95L549.3939 434.95ZM550.53455 433.9344L552.3627 433.9344Q553.22205 433.9344 553.7064 433.77814Q554.1908 433.6219 554.47205 433.325Q554.8783 432.9344 555.09705 432.2469Q555.3314 431.5594 555.3314 430.59064Q555.3314 429.2469 554.8783 428.52814Q554.4408 427.79376 553.8158 427.54376Q553.34705 427.3719 552.34705 427.3719L550.53455 427.3719L550.53455 433.9344ZM562.5189 432.95L563.6127 433.075Q563.3627 434.02814 562.65955 434.5594Q561.9564 435.09064 560.8783 435.09064Q559.5189 435.09064 558.7064 434.2469Q557.90955 433.40314 557.90955 431.8875Q557.90955 430.325 558.72205 429.46564Q559.53455 428.59064 560.8158 428.59064Q562.0658 428.59064 562.84705 429.4344Q563.6439 430.27814 563.6439 431.825Q563.6439 431.91876 563.6439 432.10626L559.0033 432.10626Q559.0658 433.1375 559.5814 433.6844Q560.09705 434.21564 560.8783 434.21564Q561.4564 434.21564 561.8627 433.91876Q562.28455 433.60626 562.5189 432.95ZM559.0658 431.2469L562.53455 431.2469Q562.47205 430.45 562.1439 430.0594Q561.6283 429.45 560.8314 429.45Q560.09705 429.45 559.59705 429.9344Q559.1127 430.41876 559.0658 431.2469ZM565.2689 437.34064L565.2689 428.73126L566.22205 428.73126L566.22205 429.52814Q566.5658 429.0594 566.9877 428.825Q567.4252 428.59064 568.03455 428.59064Q568.8314 428.59064 569.4408 428.9969Q570.0502 429.40314 570.34705 430.15314Q570.65955 430.90314 570.65955 431.79376Q570.65955 432.7469 570.3158 433.5125Q569.9877 434.27814 569.3314 434.6844Q568.6752 435.09064 567.9564 435.09064Q567.4252 435.09064 567.0033 434.8719Q566.5814 434.6375 566.3158 434.3094L566.3158 437.34064L565.2689 437.34064ZM566.22205 431.8719Q566.22205 433.075 566.7064 433.65314Q567.1908 434.21564 567.8783 434.21564Q568.5814 434.21564 569.0814 433.6219Q569.5814 433.02814 569.5814 431.77814Q569.5814 430.59064 569.09705 430.0125Q568.6127 429.41876 567.9252 429.41876Q567.2533 429.41876 566.7377 430.04376Q566.22205 430.66876 566.22205 431.8719ZM574.5658 434.0125L574.72205 434.9344Q574.2689 435.02814 573.9252 435.02814Q573.34705 435.02814 573.03455 434.85626Q572.72205 434.66876 572.5814 434.3719Q572.4564 434.075 572.4564 433.1219L572.4564 429.54376L571.6908 429.54376L571.6908 428.73126L572.4564 428.73126L572.4564 427.1844L573.5033 426.5594L573.5033 428.73126L574.5658 428.73126L574.5658 429.54376L573.5033 429.54376L573.5033 433.1844Q573.5033 433.6375 573.5502 433.7625Q573.6127 433.8875 573.7377 433.96564Q573.8627 434.04376 574.09705 434.04376Q574.28455 434.04376 574.5658 434.0125ZM575.2689 434.95L575.2689 426.35626L576.3158 426.35626L576.3158 429.4344Q577.0502 428.59064 578.1752 428.59064Q578.8783 428.59064 579.3783 428.8719Q579.8939 429.1375 580.1127 429.6219Q580.3314 430.09064 580.3314 431.0125L580.3314 434.95L579.28455 434.95L579.28455 431.0125Q579.28455 430.21564 578.9408 429.85626Q578.59705 429.4969 577.97205 429.4969Q577.5033 429.4969 577.0814 429.7469Q576.6752 429.98126 576.4877 430.40314Q576.3158 430.8094 576.3158 431.54376L576.3158 434.95L575.2689 434.95ZM588.9408 434.95L587.8939 434.95L587.8939 428.23126Q587.5033 428.59064 586.8783 428.96564Q586.2689 429.325 585.78455 429.4969L585.78455 428.48126Q586.65955 428.0594 587.3158 427.48126Q587.9877 426.8875 588.2689 426.325L588.9408 426.325L588.9408 434.95ZM591.97205 430.71564Q591.97205 429.1844 592.28455 428.2625Q592.59705 427.325 593.2064 426.825Q593.8314 426.325 594.7689 426.325Q595.4564 426.325 595.97205 426.60626Q596.5033 426.8875 596.84705 427.41876Q597.1908 427.9344 597.3783 428.6844Q597.5658 429.4344 597.5658 430.71564Q597.5658 432.23126 597.2533 433.15314Q596.9564 434.075 596.3314 434.59064Q595.72205 435.09064 594.7689 435.09064Q593.53455 435.09064 592.8158 434.2Q591.97205 433.1375 591.97205 430.71564ZM593.0502 430.71564Q593.0502 432.825 593.5502 433.52814Q594.0502 434.23126 594.7689 434.23126Q595.5033 434.23126 595.9877 433.52814Q596.4877 432.825 596.4877 430.71564Q596.4877 428.59064 595.9877 427.90314Q595.5033 427.2 594.7533 427.2Q594.03455 427.2 593.59705 427.8094Q593.0502 428.59064 593.0502 430.71564ZM598.97205 430.71564Q598.97205 429.1844 599.28455 428.2625Q599.59705 427.325 600.2064 426.825Q600.8314 426.325 601.7689 426.325Q602.4564 426.325 602.97205 426.60626Q603.5033 426.8875 603.84705 427.41876Q604.1908 427.9344 604.3783 428.6844Q604.5658 429.4344 604.5658 430.71564Q604.5658 432.23126 604.2533 433.15314Q603.9564 434.075 603.3314 434.59064Q602.72205 435.09064 601.7689 435.09064Q600.53455 435.09064 599.8158 434.2Q598.97205 433.1375 598.97205 430.71564ZM600.0502 430.71564Q600.0502 432.825 600.5502 433.52814Q601.0502 434.23126 601.7689 434.23126Q602.5033 434.23126 602.9877 433.52814Q603.4877 432.825 603.4877 430.71564Q603.4877 428.59064 602.9877 427.90314Q602.5033 427.2 601.7533 427.2Q601.03455 427.2 600.59705 427.8094Q600.0502 428.59064 600.0502 430.71564Z" fill-rule="nonzero"/><path fill="#000000" d="M674.37427 434.95L674.37427 426.35626L677.343 426.35626Q678.343 426.35626 678.87427 426.48126Q679.60864 426.65314 680.12427 427.09064Q680.81177 427.66876 681.1399 428.575Q681.48364 429.46564 681.48364 430.60626Q681.48364 431.59064 681.24927 432.34064Q681.0305 433.09064 680.67114 433.59064Q680.31177 434.09064 679.87427 434.3719Q679.4524 434.65314 678.85864 434.8094Q678.2649 434.95 677.48364 434.95L674.37427 434.95ZM675.5149 433.9344L677.343 433.9344Q678.2024 433.9344 678.68677 433.77814Q679.17114 433.6219 679.4524 433.325Q679.85864 432.9344 680.0774 432.2469Q680.31177 431.5594 680.31177 430.59064Q680.31177 429.2469 679.85864 428.52814Q679.42114 427.79376 678.79614 427.54376Q678.3274 427.3719 677.3274 427.3719L675.5149 427.3719L675.5149 433.9344ZM687.49927 432.95L688.593 433.075Q688.343 434.02814 687.6399 434.5594Q686.93677 435.09064 685.85864 435.09064Q684.49927 435.09064 683.68677 434.2469Q682.8899 433.40314 682.8899 431.8875Q682.8899 430.325 683.7024 429.46564Q684.5149 428.59064 685.79614 428.59064Q687.04614 428.59064 687.8274 429.4344Q688.62427 430.27814 688.62427 431.825Q688.62427 431.91876 688.62427 432.10626L683.98364 432.10626Q684.04614 433.1375 684.56177 433.6844Q685.0774 434.21564 685.85864 434.21564Q686.43677 434.21564 686.843 433.91876Q687.2649 433.60626 687.49927 432.95ZM684.04614 431.2469L687.5149 431.2469Q687.4524 430.45 687.12427 430.0594Q686.60864 429.45 685.81177 429.45Q685.0774 429.45 684.5774 429.9344Q684.093 430.41876 684.04614 431.2469ZM690.24927 437.34064L690.24927 428.73126L691.2024 428.73126L691.2024 429.52814Q691.54614 429.0594 691.968 428.825Q692.4055 428.59064 693.0149 428.59064Q693.81177 428.59064 694.42114 428.9969Q695.0305 429.40314 695.3274 430.15314Q695.6399 430.90314 695.6399 431.79376Q695.6399 432.7469 695.29614 433.5125Q694.968 434.27814 694.31177 434.6844Q693.6555 435.09064 692.93677 435.09064Q692.4055 435.09064 691.98364 434.8719Q691.56177 434.6375 691.29614 434.3094L691.29614 437.34064L690.24927 437.34064ZM691.2024 431.8719Q691.2024 433.075 691.68677 433.65314Q692.17114 434.21564 692.85864 434.21564Q693.56177 434.21564 694.06177 433.6219Q694.56177 433.02814 694.56177 431.77814Q694.56177 430.59064 694.0774 430.0125Q693.593 429.41876 692.9055 429.41876Q692.23364 429.41876 691.718 430.04376Q691.2024 430.66876 691.2024 431.8719ZM699.54614 434.0125L699.7024 434.9344Q699.24927 435.02814 698.9055 435.02814Q698.3274 435.02814 698.0149 434.85626Q697.7024 434.66876 697.56177 434.3719Q697.43677 434.075 697.43677 433.1219L697.43677 429.54376L696.67114 429.54376L696.67114 428.73126L697.43677 428.73126L697.43677 427.1844L698.48364 426.5594L698.48364 428.73126L699.54614 428.73126L699.54614 429.54376L698.48364 429.54376L698.48364 433.1844Q698.48364 433.6375 698.5305 433.7625Q698.593 433.8875 698.718 433.96564Q698.843 434.04376 699.0774 434.04376Q699.2649 434.04376 699.54614 434.0125ZM700.24927 434.95L700.24927 426.35626L701.29614 426.35626L701.29614 429.4344Q702.0305 428.59064 703.1555 428.59064Q703.85864 428.59064 704.35864 428.8719Q704.87427 429.1375 705.093 429.6219Q705.31177 430.09064 705.31177 431.0125L705.31177 434.95L704.2649 434.95L704.2649 431.0125Q704.2649 430.21564 703.92114 429.85626Q703.5774 429.4969 702.9524 429.4969Q702.48364 429.4969 702.06177 429.7469Q701.6555 429.98126 701.468 430.40314Q701.29614 430.8094 701.29614 431.54376L701.29614 434.95L700.24927 434.95ZM713.92114 434.95L712.87427 434.95L712.87427 428.23126Q712.48364 428.59064 711.85864 428.96564Q711.24927 429.325 710.7649 429.4969L710.7649 428.48126Q711.6399 428.0594 712.29614 427.48126Q712.968 426.8875 713.24927 426.325L713.92114 426.325L713.92114 434.95ZM722.49927 433.9344L722.49927 434.95L716.81177 434.95Q716.81177 434.575 716.93677 434.21564Q717.1555 433.6375 717.62427 433.075Q718.10864 432.5125 719.0149 431.77814Q720.42114 430.6219 720.9055 429.95Q721.4055 429.27814 721.4055 428.6844Q721.4055 428.0594 720.9524 427.6375Q720.49927 427.2 719.7805 427.2Q719.0149 427.2 718.56177 427.65314Q718.10864 428.10626 718.093 428.91876L717.0149 428.8094Q717.12427 427.59064 717.843 426.96564Q718.5774 426.325 719.81177 426.325Q721.04614 426.325 721.7649 427.0125Q722.48364 427.7 722.48364 428.71564Q722.48364 429.23126 722.2649 429.73126Q722.06177 430.21564 721.56177 430.77814Q721.0774 431.325 719.9524 432.27814Q718.99927 433.075 718.718 433.3719Q718.4524 433.65314 718.2805 433.9344L722.49927 433.9344ZM723.9524 432.7L725.06177 432.60626Q725.18677 433.41876 725.62427 433.825Q726.0774 434.23126 726.718 434.23126Q727.468 434.23126 727.99927 433.65314Q728.5305 433.075 728.5305 432.1375Q728.5305 431.23126 728.0149 430.71564Q727.5149 430.1844 726.68677 430.1844Q726.18677 430.1844 725.7649 430.41876Q725.35864 430.65314 725.12427 431.0125L724.1399 430.8875L724.968 426.48126L729.24927 426.48126L729.24927 427.48126L725.81177 427.48126L725.35864 429.79376Q726.12427 429.2469 726.968 429.2469Q728.093 429.2469 728.85864 430.02814Q729.6399 430.8094 729.6399 432.04376Q729.6399 433.2 728.968 434.0594Q728.1399 435.09064 726.718 435.09064Q725.54614 435.09064 724.79614 434.4344Q724.06177 433.77814 723.9524 432.7Z" fill-rule="nonzero"/><path fill="#757575" d="M90.1875 42.05L90.1875 29.425L85.46875 29.425L85.46875 27.7375L96.8125 27.7375L96.8125 29.425L92.078125 29.425L92.078125 42.05L90.1875 42.05ZM98.296875 42.05L98.296875 31.675L99.875 31.675L99.875 33.253124Q100.484375 32.14375 101.0 31.8Q101.515625 31.440624 102.125 31.440624Q103.015625 31.440624 103.9375 32.003124L103.328125 33.64375Q102.6875 33.253124 102.046875 33.253124Q101.46875 33.253124 101.0 33.6125Q100.546875 33.95625 100.34375 34.565624Q100.0625 35.503124 100.0625 36.6125L100.0625 42.05L98.296875 42.05ZM105.328125 29.753124L105.328125 27.7375L107.09375 27.7375L107.09375 29.753124L105.328125 29.753124ZM105.328125 42.05L105.328125 31.675L107.09375 31.675L107.09375 42.05L105.328125 42.05ZM109.0 42.909374L110.703125 43.159374Q110.8125 43.95625 111.296875 44.315624Q111.953125 44.8 113.09375 44.8Q114.3125 44.8 114.96875 44.315624Q115.640625 43.83125 115.875 42.95625Q116.015625 42.409374 116.0 40.690624Q114.84375 42.05 113.125 42.05Q110.984375 42.05 109.8125 40.503124Q108.640625 38.95625 108.640625 36.8Q108.640625 35.315624 109.171875 34.065624Q109.71875 32.815624 110.734375 32.128124Q111.765625 31.440624 113.140625 31.440624Q114.96875 31.440624 116.171875 32.925L116.171875 31.675L117.78125 31.675L117.78125 40.64375Q117.78125 43.065624 117.28125 44.065624Q116.796875 45.08125 115.71875 45.659374Q114.65625 46.253124 113.09375 46.253124Q111.25 46.253124 110.09375 45.425Q108.953125 44.596874 109.0 42.909374ZM110.453125 36.675Q110.453125 38.721874 111.265625 39.659374Q112.078125 40.596874 113.296875 40.596874Q114.5 40.596874 115.3125 39.659374Q116.140625 38.721874 116.140625 36.7375Q116.140625 34.83125 115.296875 33.8625Q114.453125 32.89375 113.265625 32.89375Q112.09375 32.89375 111.265625 33.846874Q110.453125 34.8 110.453125 36.675ZM120.0 42.909374L121.703125 43.159374Q121.8125 43.95625 122.296875 44.315624Q122.953125 44.8 124.09375 44.8Q125.3125 44.8 125.96875 44.315624Q126.640625 43.83125 126.875 42.95625Q127.015625 42.409374 127.0 40.690624Q125.84375 42.05 124.125 42.05Q121.984375 42.05 120.8125 40.503124Q119.640625 38.95625 119.640625 36.8Q119.640625 35.315624 120.171875 34.065624Q120.71875 32.815624 121.734375 32.128124Q122.765625 31.440624 124.140625 31.440624Q125.96875 31.440624 127.171875 32.925L127.171875 31.675L128.78125 31.675L128.78125 40.64375Q128.78125 43.065624 128.28125 44.065624Q127.796875 45.08125 126.71875 45.659374Q125.65625 46.253124 124.09375 46.253124Q122.25 46.253124 121.09375 45.425Q119.953125 44.596874 120.0 42.909374ZM121.453125 36.675Q121.453125 38.721874 122.265625 39.659374Q123.078125 40.596874 124.296875 40.596874Q125.5 40.596874 126.3125 39.659374Q127.140625 38.721874 127.140625 36.7375Q127.140625 34.83125 126.296875 33.8625Q125.453125 32.89375 124.265625 32.89375Q123.09375 32.89375 122.265625 33.846874Q121.453125 34.8 121.453125 36.675ZM138.42188 38.70625L140.23438 38.940624Q139.8125 40.51875 138.64062 41.409374Q137.48438 42.284374 135.67188 42.284374Q133.40625 42.284374 132.0625 40.89375Q130.73438 39.4875 130.73438 36.95625Q130.73438 34.33125 132.07812 32.89375Q133.42188 31.440624 135.57812 31.440624Q137.65625 31.440624 138.96875 32.8625Q140.29688 34.26875 140.29688 36.846874Q140.29688 37.003124 140.28125 37.315624L132.54688 37.315624Q132.64062 39.01875 133.51562 39.925Q134.39062 40.83125 135.6875 40.83125Q136.65625 40.83125 137.32812 40.33125Q138.01562 39.815624 138.42188 38.70625ZM132.64062 35.8625L138.4375 35.8625Q138.32812 34.565624 137.78125 33.909374Q136.9375 32.89375 135.59375 32.89375Q134.39062 32.89375 133.5625 33.70625Q132.73438 34.503124 132.64062 35.8625ZM142.29688 42.05L142.29688 31.675L143.875 31.675L143.875 33.253124Q144.48438 32.14375 145.0 31.8Q145.51562 31.440624 146.125 31.440624Q147.01562 31.440624 147.9375 32.003124L147.32812 33.64375Q146.6875 33.253124 146.04688 33.253124Q145.46875 33.253124 145.0 33.6125Q144.54688 33.95625 144.34375 34.565624Q144.0625 35.503124 144.0625 36.6125L144.0625 42.05L142.29688 42.05ZM154.90625 37.45625L156.6875 37.3Q156.8125 38.3625 157.26562 39.05Q157.73438 39.7375 158.70312 40.175Q159.6875 40.596874 160.92188 40.596874Q162.0 40.596874 162.82812 40.284374Q163.65625 39.95625 164.0625 39.39375Q164.46875 38.83125 164.46875 38.159374Q164.46875 37.4875 164.07812 36.9875Q163.6875 36.4875 162.79688 36.14375Q162.21875 35.909374 160.23438 35.440624Q158.26562 34.971874 157.48438 34.55Q156.45312 34.01875 155.95312 33.221874Q155.45312 32.425 155.45312 31.440624Q155.45312 30.346874 156.0625 29.409374Q156.67188 28.471874 157.85938 27.9875Q159.04688 27.4875 160.48438 27.4875Q162.07812 27.4875 163.29688 28.003124Q164.51562 28.51875 165.15625 29.51875Q165.8125 30.503124 165.85938 31.76875L164.04688 31.909374Q163.90625 30.55 163.0625 29.8625Q162.21875 29.159374 160.5625 29.159374Q158.84375 29.159374 158.04688 29.8Q157.26562 30.425 157.26562 31.3Q157.26562 32.08125 157.82812 32.58125Q158.375 33.08125 160.6875 33.596874Q163.0 34.1125 163.85938 34.503124Q165.10938 35.08125 165.70312 35.971874Q166.29688 36.846874 166.29688 38.003124Q166.29688 39.14375 165.64062 40.159374Q164.98438 41.175 163.75 41.7375Q162.53125 42.3 161.0 42.3Q159.0625 42.3 157.75 41.7375Q156.4375 41.159374 155.6875 40.01875Q154.9375 38.878124 154.90625 37.45625ZM172.15625 40.471874L172.40625 42.034374Q171.67188 42.190624 171.07812 42.190624Q170.125 42.190624 169.59375 41.89375Q169.07812 41.58125 168.85938 41.096874Q168.64062 40.596874 168.64062 39.01875L168.64062 33.05L167.35938 33.05L167.35938 31.675L168.64062 31.675L168.64062 29.1125L170.39062 28.05L170.39062 31.675L172.15625 31.675L172.15625 33.05L170.39062 33.05L170.39062 39.1125Q170.39062 39.8625 170.48438 40.08125Q170.57812 40.284374 170.78125 40.425Q171.0 40.55 171.39062 40.55Q171.67188 40.55 172.15625 40.471874ZM181.09375 40.76875Q180.10938 41.596874 179.20312 41.940624Q178.29688 42.284374 177.26562 42.284374Q175.5625 42.284374 174.64062 41.45625Q173.71875 40.6125 173.71875 39.315624Q173.71875 38.55 174.0625 37.925Q174.42188 37.3 174.98438 36.925Q175.54688 36.534374 176.25 36.33125Q176.76562 36.20625 177.8125 36.065624Q179.9375 35.815624 180.9375 35.471874Q180.95312 35.1125 180.95312 35.003124Q180.95312 33.940624 180.45312 33.4875Q179.78125 32.89375 178.45312 32.89375Q177.20312 32.89375 176.60938 33.33125Q176.03125 33.76875 175.75 34.878124L174.03125 34.64375Q174.26562 33.534374 174.79688 32.8625Q175.32812 32.175 176.34375 31.815624Q177.35938 31.440624 178.70312 31.440624Q180.03125 31.440624 180.85938 31.753124Q181.6875 32.065624 182.07812 32.55Q182.46875 33.01875 182.625 33.7375Q182.71875 34.190624 182.71875 35.3625L182.71875 37.70625Q182.71875 40.159374 182.82812 40.815624Q182.9375 41.45625 183.28125 42.05L181.4375 42.05Q181.17188 41.503124 181.09375 40.76875ZM180.9375 36.846874Q179.98438 37.2375 178.0625 37.503124Q176.98438 37.659374 176.53125 37.8625Q176.09375 38.05 175.84375 38.425Q175.59375 38.8 175.59375 39.26875Q175.59375 39.971874 176.125 40.440624Q176.65625 40.909374 177.6875 40.909374Q178.70312 40.909374 179.48438 40.471874Q180.28125 40.01875 180.65625 39.253124Q180.9375 38.64375 180.9375 37.4875L180.9375 36.846874ZM192.09375 38.253124L193.8125 38.471874Q193.53125 40.26875 192.35938 41.284374Q191.20312 42.284374 189.5 42.284374Q187.375 42.284374 186.07812 40.89375Q184.78125 39.503124 184.78125 36.909374Q184.78125 35.221874 185.32812 33.971874Q185.89062 32.70625 187.03125 32.08125Q188.17188 31.440624 189.51562 31.440624Q191.20312 31.440624 192.26562 32.3Q193.34375 33.159374 193.65625 34.721874L191.9375 34.9875Q191.70312 33.940624 191.07812 33.425Q190.45312 32.89375 189.57812 32.89375Q188.25 32.89375 187.42188 33.846874Q186.59375 34.8 186.59375 36.846874Q186.59375 38.940624 187.39062 39.89375Q188.1875 40.83125 189.48438 40.83125Q190.51562 40.83125 191.20312 40.20625Q191.90625 39.565624 192.09375 38.253124ZM195.32812 42.05L195.32812 27.7375L197.09375 27.7375L197.09375 35.89375L201.25 31.675L203.51562 31.675L199.5625 35.51875L203.92188 42.05L201.75 42.05L198.32812 36.753124L197.09375 37.940624L197.09375 42.05L195.32812 42.05ZM215.1875 42.05L215.1875 29.425L210.46875 29.425L210.46875 27.7375L221.8125 27.7375L221.8125 29.425L217.07812 29.425L217.07812 42.05L215.1875 42.05ZM223.29688 42.05L223.29688 31.675L224.875 31.675L224.875 33.253124Q225.48438 32.14375 226.0 31.8Q226.51562 31.440624 227.125 31.440624Q228.01562 31.440624 228.9375 32.003124L228.32812 33.64375Q227.6875 33.253124 227.04688 33.253124Q226.46875 33.253124 226.0 33.6125Q225.54688 33.95625 225.34375 34.565624Q225.0625 35.503124 225.0625 36.6125L225.0625 42.05L223.29688 42.05ZM237.09375 40.76875Q236.10938 41.596874 235.20312 41.940624Q234.29688 42.284374 233.26562 42.284374Q231.5625 42.284374 230.64062 41.45625Q229.71875 40.6125 229.71875 39.315624Q229.71875 38.55 230.0625 37.925Q230.42188 37.3 230.98438 36.925Q231.54688 36.534374 232.25 36.33125Q232.76562 36.20625 233.8125 36.065624Q235.9375 35.815624 236.9375 35.471874Q236.95312 35.1125 236.95312 35.003124Q236.95312 33.940624 236.45312 33.4875Q235.78125 32.89375 234.45312 32.89375Q233.20312 32.89375 232.60938 33.33125Q232.03125 33.76875 231.75 34.878124L230.03125 34.64375Q230.26562 33.534374 230.79688 32.8625Q231.32812 32.175 232.34375 31.815624Q233.35938 31.440624 234.70312 31.440624Q236.03125 31.440624 236.85938 31.753124Q237.6875 32.065624 238.07812 32.55Q238.46875 33.01875 238.625 33.7375Q238.71875 34.190624 238.71875 35.3625L238.71875 37.70625Q238.71875 40.159374 238.82812 40.815624Q238.9375 41.45625 239.28125 42.05L237.4375 42.05Q237.17188 41.503124 237.09375 40.76875ZM236.9375 36.846874Q235.98438 37.2375 234.0625 37.503124Q232.98438 37.659374 232.53125 37.8625Q232.09375 38.05 231.84375 38.425Q231.59375 38.8 231.59375 39.26875Q231.59375 39.971874 232.125 40.440624Q232.65625 40.909374 233.6875 40.909374Q234.70312 40.909374 235.48438 40.471874Q236.28125 40.01875 236.65625 39.253124Q236.9375 38.64375 236.9375 37.4875L236.9375 36.846874ZM248.09375 38.253124L249.8125 38.471874Q249.53125 40.26875 248.35938 41.284374Q247.20312 42.284374 245.5 42.284374Q243.375 42.284374 242.07812 40.89375Q240.78125 39.503124 240.78125 36.909374Q240.78125 35.221874 241.32812 33.971874Q241.89062 32.70625 243.03125 32.08125Q244.17188 31.440624 245.51562 31.440624Q247.20312 31.440624 248.26562 32.3Q249.34375 33.159374 249.65625 34.721874L247.9375 34.9875Q247.70312 33.940624 247.07812 33.425Q246.45312 32.89375 245.57812 32.89375Q244.25 32.89375 243.42188 33.846874Q242.59375 34.8 242.59375 36.846874Q242.59375 38.940624 243.39062 39.89375Q244.1875 40.83125 245.48438 40.83125Q246.51562 40.83125 247.20312 40.20625Q247.90625 39.565624 248.09375 38.253124ZM258.42188 38.70625L260.23438 38.940624Q259.8125 40.51875 258.64062 41.409374Q257.48438 42.284374 255.67188 42.284374Q253.40625 42.284374 252.0625 40.89375Q250.73438 39.4875 250.73438 36.95625Q250.73438 34.33125 252.07812 32.89375Q253.42188 31.440624 255.57812 31.440624Q257.65625 31.440624 258.96875 32.8625Q260.29688 34.26875 260.29688 36.846874Q260.29688 37.003124 260.28125 37.315624L252.54688 37.315624Q252.64062 39.01875 253.51562 39.925Q254.39062 40.83125 255.6875 40.83125Q256.65625 40.83125 257.32812 40.33125Q258.01562 39.815624 258.42188 38.70625ZM252.64062 35.8625L258.4375 35.8625Q258.32812 34.565624 257.78125 33.909374Q256.9375 32.89375 255.59375 32.89375Q254.39062 32.89375 253.5625 33.70625Q252.73438 34.503124 252.64062 35.8625ZM278.76562 37.034374L280.65625 37.503124Q280.0625 39.846874 278.51562 41.08125Q276.96875 42.3 274.71875 42.3Q272.40625 42.3 270.95312 41.3625Q269.51562 40.409374 268.75 38.628124Q268.0 36.83125 268.0 34.784374Q268.0 32.55 268.84375 30.89375Q269.70312 29.221874 271.28125 28.3625Q272.85938 27.4875 274.75 27.4875Q276.90625 27.4875 278.35938 28.58125Q279.82812 29.675 280.40625 31.659374L278.54688 32.096874Q278.04688 30.534374 277.09375 29.83125Q276.15625 29.1125 274.71875 29.1125Q273.0625 29.1125 271.95312 29.909374Q270.84375 30.690624 270.39062 32.034374Q269.95312 33.3625 269.95312 34.76875Q269.95312 36.596874 270.48438 37.971874Q271.01562 39.33125 272.14062 40.003124Q273.26562 40.675 274.5625 40.675Q276.15625 40.675 277.26562 39.753124Q278.375 38.83125 278.76562 37.034374ZM281.67188 36.8625Q281.67188 33.9875 283.26562 32.596874Q284.60938 31.440624 286.53125 31.440624Q288.67188 31.440624 290.01562 32.846874Q291.375 34.253124 291.375 36.721874Q291.375 38.721874 290.78125 39.878124Q290.1875 41.01875 289.03125 41.659374Q287.89062 42.284374 286.53125 42.284374Q284.34375 42.284374 283.0 40.89375Q281.67188 39.4875 281.67188 36.8625ZM283.46875 36.8625Q283.46875 38.8625 284.32812 39.846874Q285.20312 40.83125 286.53125 40.83125Q287.84375 40.83125 288.70312 39.846874Q289.57812 38.846874 289.57812 36.8Q289.57812 34.878124 288.70312 33.89375Q287.82812 32.89375 286.53125 32.89375Q285.20312 32.89375 284.32812 33.89375Q283.46875 34.878124 283.46875 36.8625ZM293.28125 42.05L293.28125 27.7375L295.03125 27.7375L295.03125 42.05L293.28125 42.05ZM297.28125 42.05L297.28125 27.7375L299.03125 27.7375L299.03125 42.05L297.28125 42.05ZM308.42188 38.70625L310.23438 38.940624Q309.8125 40.51875 308.64062 41.409374Q307.48438 42.284374 305.67188 42.284374Q303.40625 42.284374 302.0625 40.89375Q300.73438 39.4875 300.73438 36.95625Q300.73438 34.33125 302.07812 32.89375Q303.42188 31.440624 305.57812 31.440624Q307.65625 31.440624 308.96875 32.8625Q310.29688 34.26875 310.29688 36.846874Q310.29688 37.003124 310.28125 37.315624L302.54688 37.315624Q302.64062 39.01875 303.51562 39.925Q304.39062 40.83125 305.6875 40.83125Q306.65625 40.83125 307.32812 40.33125Q308.01562 39.815624 308.42188 38.70625ZM302.64062 35.8625L308.4375 35.8625Q308.32812 34.565624 307.78125 33.909374Q306.9375 32.89375 305.59375 32.89375Q304.39062 32.89375 303.5625 33.70625Q302.73438 34.503124 302.64062 35.8625ZM319.09375 38.253124L320.8125 38.471874Q320.53125 40.26875 319.35938 41.284374Q318.20312 42.284374 316.5 42.284374Q314.375 42.284374 313.07812 40.89375Q311.78125 39.503124 311.78125 36.909374Q311.78125 35.221874 312.32812 33.971874Q312.89062 32.70625 314.03125 32.08125Q315.17188 31.440624 316.51562 31.440624Q318.20312 31.440624 319.26562 32.3Q320.34375 33.159374 320.65625 34.721874L318.9375 34.9875Q318.70312 33.940624 318.07812 33.425Q317.45312 32.89375 316.57812 32.89375Q315.25 32.89375 314.42188 33.846874Q313.59375 34.8 313.59375 36.846874Q313.59375 38.940624 314.39062 39.89375Q315.1875 40.83125 316.48438 40.83125Q317.51562 40.83125 318.20312 40.20625Q318.90625 39.565624 319.09375 38.253124ZM326.15625 40.471874L326.40625 42.034374Q325.67188 42.190624 325.07812 42.190624Q324.125 42.190624 323.59375 41.89375Q323.07812 41.58125 322.85938 41.096874Q322.64062 40.596874 322.64062 39.01875L322.64062 33.05L321.35938 33.05L321.35938 31.675L322.64062 31.675L322.64062 29.1125L324.39062 28.05L324.39062 31.675L326.15625 31.675L326.15625 33.05L324.39062 33.05L324.39062 39.1125Q324.39062 39.8625 324.48438 40.08125Q324.57812 40.284374 324.78125 40.425Q325.0 40.55 325.39062 40.55Q325.67188 40.55 326.15625 40.471874ZM328.32812 29.753124L328.32812 27.7375L330.09375 27.7375L330.09375 29.753124L328.32812 29.753124ZM328.32812 42.05L328.32812 31.675L330.09375 31.675L330.09375 42.05L328.32812 42.05ZM331.67188 36.8625Q331.67188 33.9875 333.26562 32.596874Q334.60938 31.440624 336.53125 31.440624Q338.67188 31.440624 340.01562 32.846874Q341.375 34.253124 341.375 36.721874Q341.375 38.721874 340.78125 39.878124Q340.1875 41.01875 339.03125 41.659374Q337.89062 42.284374 336.53125 42.284374Q334.34375 42.284374 333.0 40.89375Q331.67188 39.4875 331.67188 36.8625ZM333.46875 36.8625Q333.46875 38.8625 334.32812 39.846874Q335.20312 40.83125 336.53125 40.83125Q337.84375 40.83125 338.70312 39.846874Q339.57812 38.846874 339.57812 36.8Q339.57812 34.878124 338.70312 33.89375Q337.82812 32.89375 336.53125 32.89375Q335.20312 32.89375 334.32812 33.89375Q333.46875 34.878124 333.46875 36.8625ZM343.3125 42.05L343.3125 31.675L344.90625 31.675L344.90625 33.159374Q346.04688 31.440624 348.20312 31.440624Q349.14062 31.440624 349.92188 31.784374Q350.71875 32.1125 351.10938 32.659374Q351.5 33.20625 351.65625 33.95625Q351.75 34.45625 351.75 35.675L351.75 42.05L349.98438 42.05L349.98438 35.7375Q349.98438 34.659374 349.78125 34.128124Q349.57812 33.596874 349.04688 33.284374Q348.53125 32.971874 347.82812 32.971874Q346.70312 32.971874 345.89062 33.690624Q345.07812 34.39375 345.07812 36.378124L345.07812 42.05L343.3125 42.05ZM358.0 42.3L362.15625 27.4875L363.5625 27.4875L359.42188 42.3L358.0 42.3ZM370.96875 35.08125Q370.96875 31.51875 372.875 29.503124Q374.79688 27.471874 377.82812 27.471874Q379.8125 27.471874 381.39062 28.425Q382.98438 29.378124 383.8125 31.08125Q384.65625 32.76875 384.65625 34.909374Q384.65625 37.08125 383.78125 38.8Q382.90625 40.51875 381.28125 41.409374Q379.67188 42.3 377.8125 42.3Q375.79688 42.3 374.20312 41.33125Q372.60938 40.346874 371.78125 38.659374Q370.96875 36.95625 370.96875 35.08125ZM372.92188 35.1125Q372.92188 37.690624 374.3125 39.190624Q375.70312 40.675 377.79688 40.675Q379.9375 40.675 381.3125 39.175Q382.70312 37.659374 382.70312 34.89375Q382.70312 33.159374 382.10938 31.8625Q381.53125 30.55 380.39062 29.83125Q379.25 29.1125 377.82812 29.1125Q375.82812 29.1125 374.375 30.503124Q372.92188 31.878124 372.92188 35.1125ZM387.3125 42.05L387.3125 31.675L388.90625 31.675L388.90625 33.159374Q390.04688 31.440624 392.20312 31.440624Q393.14062 31.440624 393.92188 31.784374Q394.71875 32.1125 395.10938 32.659374Q395.5 33.20625 395.65625 33.95625Q395.75 34.45625 395.75 35.675L395.75 42.05L393.98438 42.05L393.98438 35.7375Q393.98438 34.659374 393.78125 34.128124Q393.57812 33.596874 393.04688 33.284374Q392.53125 32.971874 391.82812 32.971874Q390.70312 32.971874 389.89062 33.690624Q389.07812 34.39375 389.07812 36.378124L389.07812 42.05L387.3125 42.05ZM397.28125 42.05L397.28125 27.7375L399.03125 27.7375L399.03125 42.05L397.28125 42.05ZM401.23438 46.05L401.04688 44.39375Q401.625 44.55 402.04688 44.55Q402.64062 44.55 402.98438 44.346874Q403.34375 44.159374 403.5625 43.815624Q403.73438 43.55 404.10938 42.503124Q404.15625 42.346874 404.26562 42.065624L400.32812 31.675L402.21875 31.675L404.375 37.690624Q404.79688 38.83125 405.125 40.08125Q405.4375 38.878124 405.84375 37.721874L408.0625 31.675L409.82812 31.675L405.875 42.221874Q405.25 43.940624 404.89062 44.58125Q404.42188 45.45625 403.8125 45.846874Q403.21875 46.253124 402.375 46.253124Q401.85938 46.253124 401.23438 46.05ZM417.57812 42.05L417.57812 27.7375L423.92188 27.7375Q425.82812 27.7375 426.82812 28.128124Q427.82812 28.503124 428.42188 29.4875Q429.01562 30.45625 429.01562 31.64375Q429.01562 33.159374 428.03125 34.20625Q427.04688 35.253124 424.98438 35.534374Q425.73438 35.89375 426.125 36.253124Q426.95312 37.003124 427.70312 38.159374L430.1875 42.05L427.8125 42.05L425.90625 39.065624Q425.07812 37.784374 424.54688 37.096874Q424.01562 36.409374 423.57812 36.14375Q423.15625 35.8625 422.71875 35.753124Q422.39062 35.690624 421.67188 35.690624L419.46875 35.690624L419.46875 42.05L417.57812 42.05ZM419.46875 34.05L423.54688 34.05Q424.84375 34.05 425.5625 33.784374Q426.29688 33.51875 426.67188 32.925Q427.0625 32.33125 427.0625 31.64375Q427.0625 30.628124 426.32812 29.971874Q425.59375 29.315624 424.0 29.315624L419.46875 29.315624L419.46875 34.05ZM438.42188 38.70625L440.23438 38.940624Q439.8125 40.51875 438.64062 41.409374Q437.48438 42.284374 435.67188 42.284374Q433.40625 42.284374 432.0625 40.89375Q430.73438 39.4875 430.73438 36.95625Q430.73438 34.33125 432.07812 32.89375Q433.42188 31.440624 435.57812 31.440624Q437.65625 31.440624 438.96875 32.8625Q440.29688 34.26875 440.29688 36.846874Q440.29688 37.003124 440.28125 37.315624L432.54688 37.315624Q432.64062 39.01875 433.51562 39.925Q434.39062 40.83125 435.6875 40.83125Q436.65625 40.83125 437.32812 40.33125Q438.01562 39.815624 438.42188 38.70625ZM432.64062 35.8625L438.4375 35.8625Q438.32812 34.565624 437.78125 33.909374Q436.9375 32.89375 435.59375 32.89375Q434.39062 32.89375 433.5625 33.70625Q432.73438 34.503124 432.64062 35.8625ZM449.09375 40.76875Q448.10938 41.596874 447.20312 41.940624Q446.29688 42.284374 445.26562 42.284374Q443.5625 42.284374 442.64062 41.45625Q441.71875 40.6125 441.71875 39.315624Q441.71875 38.55 442.0625 37.925Q442.42188 37.3 442.98438 36.925Q443.54688 36.534374 444.25 36.33125Q444.76562 36.20625 445.8125 36.065624Q447.9375 35.815624 448.9375 35.471874Q448.95312 35.1125 448.95312 35.003124Q448.95312 33.940624 448.45312 33.4875Q447.78125 32.89375 446.45312 32.89375Q445.20312 32.89375 444.60938 33.33125Q444.03125 33.76875 443.75 34.878124L442.03125 34.64375Q442.26562 33.534374 442.79688 32.8625Q443.32812 32.175 444.34375 31.815624Q445.35938 31.440624 446.70312 31.440624Q448.03125 31.440624 448.85938 31.753124Q449.6875 32.065624 450.07812 32.55Q450.46875 33.01875 450.625 33.7375Q450.71875 34.190624 450.71875 35.3625L450.71875 37.70625Q450.71875 40.159374 450.82812 40.815624Q450.9375 41.45625 451.28125 42.05L449.4375 42.05Q449.17188 41.503124 449.09375 40.76875ZM448.9375 36.846874Q447.98438 37.2375 446.0625 37.503124Q444.98438 37.659374 444.53125 37.8625Q444.09375 38.05 443.84375 38.425Q443.59375 38.8 443.59375 39.26875Q443.59375 39.971874 444.125 40.440624Q444.65625 40.909374 445.6875 40.909374Q446.70312 40.909374 447.48438 40.471874Q448.28125 40.01875 448.65625 39.253124Q448.9375 38.64375 448.9375 37.4875L448.9375 36.846874ZM460.04688 42.05L460.04688 40.7375Q459.0625 42.284374 457.14062 42.284374Q455.90625 42.284374 454.85938 41.596874Q453.82812 40.909374 453.25 39.690624Q452.6875 38.471874 452.6875 36.878124Q452.6875 35.315624 453.20312 34.05Q453.71875 32.784374 454.75 32.1125Q455.79688 31.440624 457.0625 31.440624Q458.0 31.440624 458.73438 31.846874Q459.46875 32.2375 459.9375 32.8625L459.9375 27.7375L461.67188 27.7375L461.67188 42.05L460.04688 42.05ZM454.48438 36.878124Q454.48438 38.8625 455.32812 39.846874Q456.17188 40.83125 457.3125 40.83125Q458.46875 40.83125 459.26562 39.89375Q460.07812 38.95625 460.07812 37.01875Q460.07812 34.89375 459.25 33.89375Q458.4375 32.89375 457.23438 32.89375Q456.0625 32.89375 455.26562 33.8625Q454.48438 34.815624 454.48438 36.878124ZM470.57812 42.05L470.57812 27.7375L480.9375 27.7375L480.9375 29.425L472.48438 29.425L472.48438 33.8L480.39062 33.8L480.39062 35.4875L472.48438 35.4875L472.48438 40.3625L481.26562 40.3625L481.26562 42.05L470.57812 42.05ZM482.14062 42.05L485.9375 36.659374L482.4375 31.675L484.625 31.675L486.21875 34.1125Q486.67188 34.8 486.9375 35.26875Q487.375 34.628124 487.73438 34.128124L489.48438 31.675L491.57812 31.675L488.0 36.565624L491.85938 42.05L489.70312 42.05L487.5625 38.83125L487.0 37.95625L484.28125 42.05L482.14062 42.05ZM499.09375 38.253124L500.8125 38.471874Q500.53125 40.26875 499.35938 41.284374Q498.20312 42.284374 496.5 42.284374Q494.375 42.284374 493.07812 40.89375Q491.78125 39.503124 491.78125 36.909374Q491.78125 35.221874 492.32812 33.971874Q492.89062 32.70625 494.03125 32.08125Q495.17188 31.440624 496.51562 31.440624Q498.20312 31.440624 499.26562 32.3Q500.34375 33.159374 500.65625 34.721874L498.9375 34.9875Q498.70312 33.940624 498.07812 33.425Q497.45312 32.89375 496.57812 32.89375Q495.25 32.89375 494.42188 33.846874Q493.59375 34.8 493.59375 36.846874Q493.59375 38.940624 494.39062 39.89375Q495.1875 40.83125 496.48438 40.83125Q497.51562 40.83125 498.20312 40.20625Q498.90625 39.565624 499.09375 38.253124ZM509.42188 38.70625L511.23438 38.940624Q510.8125 40.51875 509.64062 41.409374Q508.48438 42.284374 506.67188 42.284374Q504.40625 42.284374 503.0625 40.89375Q501.73438 39.4875 501.73438 36.95625Q501.73438 34.33125 503.07812 32.89375Q504.42188 31.440624 506.57812 31.440624Q508.65625 31.440624 509.96875 32.8625Q511.29688 34.26875 511.29688 36.846874Q511.29688 37.003124 511.28125 37.315624L503.54688 37.315624Q503.64062 39.01875 504.51562 39.925Q505.39062 40.83125 506.6875 40.83125Q507.65625 40.83125 508.32812 40.33125Q509.01562 39.815624 509.42188 38.70625ZM503.64062 35.8625L509.4375 35.8625Q509.32812 34.565624 508.78125 33.909374Q507.9375 32.89375 506.59375 32.89375Q505.39062 32.89375 504.5625 33.70625Q503.73438 34.503124 503.64062 35.8625ZM513.3125 46.01875L513.3125 31.675L514.9219 31.675L514.9219 33.01875Q515.4844 32.2375 516.1875 31.846874Q516.90625 31.440624 517.9219 31.440624Q519.25 31.440624 520.2656 32.128124Q521.28125 32.815624 521.7969 34.065624Q522.3281 35.3 522.3281 36.784374Q522.3281 38.378124 521.75 39.659374Q521.1875 40.925 520.09375 41.6125Q519.0 42.284374 517.7969 42.284374Q516.9219 42.284374 516.21875 41.909374Q515.53125 41.534374 515.0781 40.971874L515.0781 46.01875L513.3125 46.01875ZM514.90625 36.925Q514.90625 38.925 515.71875 39.878124Q516.53125 40.83125 517.6875 40.83125Q518.8594 40.83125 519.6875 39.846874Q520.53125 38.8625 520.53125 36.76875Q520.53125 34.8 519.7031 33.815624Q518.8906 32.815624 517.7656 32.815624Q516.6406 32.815624 515.7656 33.878124Q514.90625 34.925 514.90625 36.925ZM528.15625 40.471874L528.40625 42.034374Q527.6719 42.190624 527.0781 42.190624Q526.125 42.190624 525.59375 41.89375Q525.0781 41.58125 524.8594 41.096874Q524.6406 40.596874 524.6406 39.01875L524.6406 33.05L523.3594 33.05L523.3594 31.675L524.6406 31.675L524.6406 29.1125L526.3906 28.05L526.3906 31.675L528.15625 31.675L528.15625 33.05L526.3906 33.05L526.3906 39.1125Q526.3906 39.8625 526.4844 40.08125Q526.5781 40.284374 526.78125 40.425Q527.0 40.55 527.3906 40.55Q527.6719 40.55 528.15625 40.471874ZM530.3281 29.753124L530.3281 27.7375L532.09375 27.7375L532.09375 29.753124L530.3281 29.753124ZM530.3281 42.05L530.3281 31.675L532.09375 31.675L532.09375 42.05L530.3281 42.05ZM533.6719 36.8625Q533.6719 33.9875 535.2656 32.596874Q536.6094 31.440624 538.53125 31.440624Q540.6719 31.440624 542.0156 32.846874Q543.375 34.253124 543.375 36.721874Q543.375 38.721874 542.78125 39.878124Q542.1875 41.01875 541.03125 41.659374Q539.8906 42.284374 538.53125 42.284374Q536.34375 42.284374 535.0 40.89375Q533.6719 39.4875 533.6719 36.8625ZM535.46875 36.8625Q535.46875 38.8625 536.3281 39.846874Q537.2031 40.83125 538.53125 40.83125Q539.84375 40.83125 540.7031 39.846874Q541.5781 38.846874 541.5781 36.8Q541.5781 34.878124 540.7031 33.89375Q539.8281 32.89375 538.53125 32.89375Q537.2031 32.89375 536.3281 33.89375Q535.46875 34.878124 535.46875 36.8625ZM545.3125 42.05L545.3125 31.675L546.90625 31.675L546.90625 33.159374Q548.0469 31.440624 550.2031 31.440624Q551.1406 31.440624 551.9219 31.784374Q552.71875 32.1125 553.1094 32.659374Q553.5 33.20625 553.65625 33.95625Q553.75 34.45625 553.75 35.675L553.75 42.05L551.9844 42.05L551.9844 35.7375Q551.9844 34.659374 551.78125 34.128124Q551.5781 33.596874 551.0469 33.284374Q550.53125 32.971874 549.8281 32.971874Q548.7031 32.971874 547.8906 33.690624Q547.0781 34.39375 547.0781 36.378124L547.0781 42.05L545.3125 42.05ZM555.3281 32.8L554.875 30.128124L554.875 27.7375L556.875 27.7375L556.875 30.128124L556.40625 32.8L555.3281 32.8ZM558.6094 38.95625L560.3594 38.675Q560.5 39.721874 561.1719 40.284374Q561.84375 40.83125 563.0469 40.83125Q564.25 40.83125 564.8281 40.346874Q565.4219 39.846874 565.4219 39.190624Q565.4219 38.596874 564.90625 38.253124Q564.5469 38.01875 563.1094 37.659374Q561.1719 37.159374 560.4219 36.815624Q559.6875 36.45625 559.2969 35.83125Q558.90625 35.190624 558.90625 34.425Q558.90625 33.7375 559.21875 33.14375Q559.5469 32.55 560.09375 32.159374Q560.5 31.8625 561.2031 31.659374Q561.9219 31.440624 562.7344 31.440624Q563.9531 31.440624 564.875 31.8Q565.7969 32.14375 566.2344 32.753124Q566.6719 33.346874 566.84375 34.346874L565.125 34.58125Q565.0 33.784374 564.4375 33.346874Q563.875 32.89375 562.8594 32.89375Q561.6406 32.89375 561.125 33.3Q560.6094 33.690624 560.6094 34.221874Q560.6094 34.565624 560.8281 34.846874Q561.03125 35.128124 561.5 35.315624Q561.7656 35.409374 563.0469 35.753124Q564.9219 36.253124 565.65625 36.58125Q566.3906 36.89375 566.8125 37.503124Q567.2344 38.096874 567.2344 39.003124Q567.2344 39.878124 566.71875 40.659374Q566.2031 41.440624 565.2344 41.8625Q564.2656 42.284374 563.0469 42.284374Q561.03125 42.284374 559.96875 41.440624Q558.90625 40.596874 558.6094 38.95625ZM575.4844 42.05L575.4844 27.7375L578.34375 27.7375L581.71875 37.8625Q582.1875 39.284374 582.40625 39.9875Q582.65625 39.20625 583.1719 37.690624L586.59375 27.7375L589.1406 27.7375L589.1406 42.05L587.3281 42.05L587.3281 30.065624L583.15625 42.05L581.4531 42.05L577.3125 29.8625L577.3125 42.05L575.4844 42.05ZM599.4219 38.70625L601.2344 38.940624Q600.8125 40.51875 599.6406 41.409374Q598.4844 42.284374 596.6719 42.284374Q594.40625 42.284374 593.0625 40.89375Q591.7344 39.4875 591.7344 36.95625Q591.7344 34.33125 593.0781 32.89375Q594.4219 31.440624 596.5781 31.440624Q598.65625 31.440624 599.96875 32.8625Q601.2969 34.26875 601.2969 36.846874Q601.2969 37.003124 601.28125 37.315624L593.5469 37.315624Q593.6406 39.01875 594.5156 39.925Q595.3906 40.83125 596.6875 40.83125Q597.65625 40.83125 598.3281 40.33125Q599.0156 39.815624 599.4219 38.70625ZM593.6406 35.8625L599.4375 35.8625Q599.3281 34.565624 598.78125 33.909374Q597.9375 32.89375 596.59375 32.89375Q595.3906 32.89375 594.5625 33.70625Q593.7344 34.503124 593.6406 35.8625ZM602.6094 38.95625L604.3594 38.675Q604.5 39.721874 605.1719 40.284374Q605.84375 40.83125 607.0469 40.83125Q608.25 40.83125 608.8281 40.346874Q609.4219 39.846874 609.4219 39.190624Q609.4219 38.596874 608.90625 38.253124Q608.5469 38.01875 607.1094 37.659374Q605.1719 37.159374 604.4219 36.815624Q603.6875 36.45625 603.2969 35.83125Q602.90625 35.190624 602.90625 34.425Q602.90625 33.7375 603.21875 33.14375Q603.5469 32.55 604.09375 32.159374Q604.5 31.8625 605.2031 31.659374Q605.9219 31.440624 606.7344 31.440624Q607.9531 31.440624 608.875 31.8Q609.7969 32.14375 610.2344 32.753124Q610.6719 33.346874 610.84375 34.346874L609.125 34.58125Q609.0 33.784374 608.4375 33.346874Q607.875 32.89375 606.8594 32.89375Q605.6406 32.89375 605.125 33.3Q604.6094 33.690624 604.6094 34.221874Q604.6094 34.565624 604.8281 34.846874Q605.03125 35.128124 605.5 35.315624Q605.7656 35.409374 607.0469 35.753124Q608.9219 36.253124 609.65625 36.58125Q610.3906 36.89375 610.8125 37.503124Q611.2344 38.096874 611.2344 39.003124Q611.2344 39.878124 610.71875 40.659374Q610.2031 41.440624 609.2344 41.8625Q608.2656 42.284374 607.0469 42.284374Q605.03125 42.284374 603.96875 41.440624Q602.90625 40.596874 602.6094 38.95625ZM612.6094 38.95625L614.3594 38.675Q614.5 39.721874 615.1719 40.284374Q615.84375 40.83125 617.0469 40.83125Q618.25 40.83125 618.8281 40.346874Q619.4219 39.846874 619.4219 39.190624Q619.4219 38.596874 618.90625 38.253124Q618.5469 38.01875 617.1094 37.659374Q615.1719 37.159374 614.4219 36.815624Q613.6875 36.45625 613.2969 35.83125Q612.90625 35.190624 612.90625 34.425Q612.90625 33.7375 613.21875 33.14375Q613.5469 32.55 614.09375 32.159374Q614.5 31.8625 615.2031 31.659374Q615.9219 31.440624 616.7344 31.440624Q617.9531 31.440624 618.875 31.8Q619.7969 32.14375 620.2344 32.753124Q620.6719 33.346874 620.84375 34.346874L619.125 34.58125Q619.0 33.784374 618.4375 33.346874Q617.875 32.89375 616.8594 32.89375Q615.6406 32.89375 615.125 33.3Q614.6094 33.690624 614.6094 34.221874Q614.6094 34.565624 614.8281 34.846874Q615.03125 35.128124 615.5 35.315624Q615.7656 35.409374 617.0469 35.753124Q618.9219 36.253124 619.65625 36.58125Q620.3906 36.89375 620.8125 37.503124Q621.2344 38.096874 621.2344 39.003124Q621.2344 39.878124 620.71875 40.659374Q620.2031 41.440624 619.2344 41.8625Q618.2656 42.284374 617.0469 42.284374Q615.03125 42.284374 613.96875 41.440624Q612.90625 40.596874 612.6094 38.95625ZM630.09375 40.76875Q629.1094 41.596874 628.2031 41.940624Q627.2969 42.284374 626.2656 42.284374Q624.5625 42.284374 623.6406 41.45625Q622.71875 40.6125 622.71875 39.315624Q622.71875 38.55 623.0625 37.925Q623.4219 37.3 623.9844 36.925Q624.5469 36.534374 625.25 36.33125Q625.7656 36.20625 626.8125 36.065624Q628.9375 35.815624 629.9375 35.471874Q629.9531 35.1125 629.9531 35.003124Q629.9531 33.940624 629.4531 33.4875Q628.78125 32.89375 627.4531 32.89375Q626.2031 32.89375 625.6094 33.33125Q625.03125 33.76875 624.75 34.878124L623.03125 34.64375Q623.2656 33.534374 623.7969 32.8625Q624.3281 32.175 625.34375 31.815624Q626.3594 31.440624 627.7031 31.440624Q629.03125 31.440624 629.8594 31.753124Q630.6875 32.065624 631.0781 32.55Q631.46875 33.01875 631.625 33.7375Q631.71875 34.190624 631.71875 35.3625L631.71875 37.70625Q631.71875 40.159374 631.8281 40.815624Q631.9375 41.45625 632.28125 42.05L630.4375 42.05Q630.1719 41.503124 630.09375 40.76875ZM629.9375 36.846874Q628.9844 37.2375 627.0625 37.503124Q625.9844 37.659374 625.53125 37.8625Q625.09375 38.05 624.84375 38.425Q624.59375 38.8 624.59375 39.26875Q624.59375 39.971874 625.125 40.440624Q625.65625 40.909374 626.6875 40.909374Q627.7031 40.909374 628.4844 40.471874Q629.28125 40.01875 629.65625 39.253124Q629.9375 38.64375 629.9375 37.4875L629.9375 36.846874ZM634.0 42.909374L635.7031 43.159374Q635.8125 43.95625 636.2969 44.315624Q636.9531 44.8 638.09375 44.8Q639.3125 44.8 639.96875 44.315624Q640.6406 43.83125 640.875 42.95625Q641.0156 42.409374 641.0 40.690624Q639.84375 42.05 638.125 42.05Q635.9844 42.05 634.8125 40.503124Q633.6406 38.95625 633.6406 36.8Q633.6406 35.315624 634.1719 34.065624Q634.71875 32.815624 635.7344 32.128124Q636.7656 31.440624 638.1406 31.440624Q639.96875 31.440624 641.1719 32.925L641.1719 31.675L642.78125 31.675L642.78125 40.64375Q642.78125 43.065624 642.28125 44.065624Q641.7969 45.08125 640.71875 45.659374Q639.65625 46.253124 638.09375 46.253124Q636.25 46.253124 635.09375 45.425Q633.9531 44.596874 634.0 42.909374ZM635.4531 36.675Q635.4531 38.721874 636.2656 39.659374Q637.0781 40.596874 638.2969 40.596874Q639.5 40.596874 640.3125 39.659374Q641.1406 38.721874 641.1406 36.7375Q641.1406 34.83125 640.2969 33.8625Q639.4531 32.89375 638.2656 32.89375Q637.09375 32.89375 636.2656 33.846874Q635.4531 34.8 635.4531 36.675ZM652.4219 38.70625L654.2344 38.940624Q653.8125 40.51875 652.6406 41.409374Q651.4844 42.284374 649.6719 42.284374Q647.40625 42.284374 646.0625 40.89375Q644.7344 39.4875 644.7344 36.95625Q644.7344 34.33125 646.0781 32.89375Q647.4219 31.440624 649.5781 31.440624Q651.65625 31.440624 652.96875 32.8625Q654.2969 34.26875 654.2969 36.846874Q654.2969 37.003124 654.28125 37.315624L646.5469 37.315624Q646.6406 39.01875 647.5156 39.925Q648.3906 40.83125 649.6875 40.83125Q650.65625 40.83125 651.3281 40.33125Q652.0156 39.815624 652.4219 38.70625ZM646.6406 35.8625L652.4375 35.8625Q652.3281 34.565624 651.78125 33.909374Q650.9375 32.89375 649.59375 32.89375Q648.3906 32.89375 647.5625 33.70625Q646.7344 34.503124 646.6406 35.8625Z" fill-rule="nonzero"/></svg>